%TF.GenerationSoftware,KiCad,Pcbnew,(7.0.0-0)*%
%TF.CreationDate,2023-04-16T17:27:38-07:00*%
%TF.ProjectId,Amoeba_executive,416d6f65-6261-45f6-9578-656375746976,rev?*%
%TF.SameCoordinates,Original*%
%TF.FileFunction,Legend,Top*%
%TF.FilePolarity,Positive*%
%FSLAX46Y46*%
G04 Gerber Fmt 4.6, Leading zero omitted, Abs format (unit mm)*
G04 Created by KiCad (PCBNEW (7.0.0-0)) date 2023-04-16 17:27:38*
%MOMM*%
%LPD*%
G01*
G04 APERTURE LIST*
%ADD10C,0.150000*%
%ADD11C,0.120000*%
%ADD12C,0.100000*%
G04 APERTURE END LIST*
D10*
G36*
X186139441Y-82058361D02*
G01*
X186008832Y-82058361D01*
X185925667Y-81864921D01*
X185586780Y-81864921D01*
X185498670Y-82058361D01*
X185369893Y-82058361D01*
X185513081Y-81747684D01*
X185636606Y-81747684D01*
X185876941Y-81747684D01*
X185759704Y-81477124D01*
X185636606Y-81747684D01*
X185513081Y-81747684D01*
X185761719Y-81208213D01*
X186139441Y-82058361D01*
G37*
G36*
X186210515Y-82052500D02*
G01*
X186377028Y-81197222D01*
X186648870Y-81815462D01*
X186930238Y-81197222D01*
X187079898Y-82052500D01*
X186957532Y-82052500D01*
X186881145Y-81572196D01*
X186646672Y-82089136D01*
X186419160Y-81571830D01*
X186333980Y-82052500D01*
X186210515Y-82052500D01*
G37*
G36*
X187634034Y-81231963D02*
G01*
X187644392Y-81232323D01*
X187654656Y-81232922D01*
X187664827Y-81233761D01*
X187674904Y-81234840D01*
X187684887Y-81236158D01*
X187694776Y-81237716D01*
X187704572Y-81239514D01*
X187714274Y-81241552D01*
X187723882Y-81243829D01*
X187733396Y-81246346D01*
X187742817Y-81249103D01*
X187752144Y-81252099D01*
X187761377Y-81255335D01*
X187770516Y-81258811D01*
X187779562Y-81262527D01*
X187788514Y-81266482D01*
X187797372Y-81270677D01*
X187806137Y-81275111D01*
X187814807Y-81279786D01*
X187823384Y-81284700D01*
X187831868Y-81289854D01*
X187840257Y-81295247D01*
X187848553Y-81300880D01*
X187856755Y-81306753D01*
X187864863Y-81312866D01*
X187872878Y-81319218D01*
X187880799Y-81325810D01*
X187888626Y-81332642D01*
X187896359Y-81339713D01*
X187903999Y-81347025D01*
X187911545Y-81354576D01*
X187918972Y-81362294D01*
X187926163Y-81370110D01*
X187933118Y-81378021D01*
X187939838Y-81386029D01*
X187946322Y-81394132D01*
X187952570Y-81402332D01*
X187958582Y-81410629D01*
X187964358Y-81419021D01*
X187969899Y-81427510D01*
X187975204Y-81436095D01*
X187980273Y-81444776D01*
X187985107Y-81453554D01*
X187989704Y-81462428D01*
X187994066Y-81471398D01*
X187998192Y-81480464D01*
X188002082Y-81489627D01*
X188005737Y-81498885D01*
X188009156Y-81508240D01*
X188012339Y-81517692D01*
X188015286Y-81527239D01*
X188017997Y-81536883D01*
X188020473Y-81546623D01*
X188022713Y-81556459D01*
X188024717Y-81566391D01*
X188026485Y-81576420D01*
X188028018Y-81586545D01*
X188029314Y-81596766D01*
X188030375Y-81607084D01*
X188031201Y-81617497D01*
X188031790Y-81628007D01*
X188032144Y-81638613D01*
X188032262Y-81649316D01*
X188032143Y-81660083D01*
X188031788Y-81670749D01*
X188031196Y-81681311D01*
X188030367Y-81691771D01*
X188029301Y-81702128D01*
X188027998Y-81712383D01*
X188026459Y-81722534D01*
X188024683Y-81732583D01*
X188022669Y-81742530D01*
X188020419Y-81752373D01*
X188017932Y-81762114D01*
X188015209Y-81771753D01*
X188012248Y-81781289D01*
X188009050Y-81790721D01*
X188005616Y-81800052D01*
X188001945Y-81809279D01*
X187998037Y-81818404D01*
X187993892Y-81827427D01*
X187989510Y-81836346D01*
X187984892Y-81845163D01*
X187980037Y-81853877D01*
X187974944Y-81862489D01*
X187969615Y-81870998D01*
X187964049Y-81879404D01*
X187958246Y-81887707D01*
X187952207Y-81895908D01*
X187945930Y-81904006D01*
X187939417Y-81912002D01*
X187932667Y-81919894D01*
X187925680Y-81927684D01*
X187918456Y-81935372D01*
X187910995Y-81942957D01*
X187903355Y-81950417D01*
X187895616Y-81957641D01*
X187887779Y-81964628D01*
X187879843Y-81971378D01*
X187871808Y-81977892D01*
X187863674Y-81984168D01*
X187855442Y-81990208D01*
X187847110Y-81996011D01*
X187838680Y-82001577D01*
X187830152Y-82006906D01*
X187821524Y-82011998D01*
X187812798Y-82016853D01*
X187803973Y-82021472D01*
X187795049Y-82025854D01*
X187786027Y-82029999D01*
X187776906Y-82033907D01*
X187767686Y-82037578D01*
X187758367Y-82041012D01*
X187748950Y-82044209D01*
X187739434Y-82047170D01*
X187729819Y-82049894D01*
X187720105Y-82052381D01*
X187710293Y-82054631D01*
X187700381Y-82056644D01*
X187690372Y-82058420D01*
X187680263Y-82059960D01*
X187670055Y-82061263D01*
X187659749Y-82062328D01*
X187649344Y-82063157D01*
X187638841Y-82063749D01*
X187628238Y-82064105D01*
X187617537Y-82064223D01*
X187608054Y-82064118D01*
X187598631Y-82063803D01*
X187589269Y-82063278D01*
X187579968Y-82062543D01*
X187570727Y-82061598D01*
X187561548Y-82060443D01*
X187552429Y-82059078D01*
X187543371Y-82057503D01*
X187534374Y-82055718D01*
X187525438Y-82053722D01*
X187516563Y-82051517D01*
X187507748Y-82049102D01*
X187498994Y-82046477D01*
X187490302Y-82043642D01*
X187481669Y-82040596D01*
X187473098Y-82037341D01*
X187464588Y-82033876D01*
X187456138Y-82030201D01*
X187447749Y-82026315D01*
X187439421Y-82022220D01*
X187431154Y-82017915D01*
X187422948Y-82013399D01*
X187414802Y-82008674D01*
X187406718Y-82003739D01*
X187398694Y-81998593D01*
X187390731Y-81993238D01*
X187382828Y-81987673D01*
X187374987Y-81981897D01*
X187367206Y-81975912D01*
X187359487Y-81969716D01*
X187351828Y-81963311D01*
X187344230Y-81956695D01*
X187336025Y-81949170D01*
X187328081Y-81941502D01*
X187320397Y-81933690D01*
X187312974Y-81925735D01*
X187305811Y-81917636D01*
X187298909Y-81909393D01*
X187292267Y-81901008D01*
X187285886Y-81892478D01*
X187279765Y-81883806D01*
X187273905Y-81874990D01*
X187268305Y-81866030D01*
X187262965Y-81856927D01*
X187257886Y-81847680D01*
X187253068Y-81838290D01*
X187248510Y-81828757D01*
X187244212Y-81819080D01*
X187240175Y-81809259D01*
X187236398Y-81799295D01*
X187232882Y-81789188D01*
X187229626Y-81778937D01*
X187226631Y-81768543D01*
X187223896Y-81758005D01*
X187221422Y-81747324D01*
X187219208Y-81736499D01*
X187217254Y-81725531D01*
X187215561Y-81714419D01*
X187214129Y-81703164D01*
X187212957Y-81691765D01*
X187212045Y-81680223D01*
X187211394Y-81668538D01*
X187211003Y-81656709D01*
X187210887Y-81646018D01*
X187328842Y-81646018D01*
X187328928Y-81654182D01*
X187329186Y-81662254D01*
X187329615Y-81670236D01*
X187330216Y-81678127D01*
X187330989Y-81685927D01*
X187331933Y-81693636D01*
X187333050Y-81701254D01*
X187334338Y-81708781D01*
X187335797Y-81716218D01*
X187337429Y-81723563D01*
X187339232Y-81730818D01*
X187341207Y-81737981D01*
X187343354Y-81745054D01*
X187345672Y-81752036D01*
X187350824Y-81765728D01*
X187356663Y-81779056D01*
X187363189Y-81792020D01*
X187370402Y-81804621D01*
X187378301Y-81816859D01*
X187386888Y-81828733D01*
X187391439Y-81834533D01*
X187396162Y-81840243D01*
X187401056Y-81845862D01*
X187406122Y-81851390D01*
X187411360Y-81856827D01*
X187416770Y-81862173D01*
X187422269Y-81867391D01*
X187427821Y-81872444D01*
X187433426Y-81877330D01*
X187439084Y-81882051D01*
X187450558Y-81890997D01*
X187462245Y-81899279D01*
X187474143Y-81906899D01*
X187486253Y-81913856D01*
X187498575Y-81920151D01*
X187511108Y-81925783D01*
X187523854Y-81930753D01*
X187536811Y-81935060D01*
X187549980Y-81938704D01*
X187563361Y-81941686D01*
X187576954Y-81944005D01*
X187590758Y-81945661D01*
X187604775Y-81946655D01*
X187619003Y-81946987D01*
X187626738Y-81946902D01*
X187634398Y-81946650D01*
X187641981Y-81946228D01*
X187649488Y-81945638D01*
X187656919Y-81944880D01*
X187664274Y-81943953D01*
X187671552Y-81942858D01*
X187685881Y-81940162D01*
X187699904Y-81936792D01*
X187713623Y-81932747D01*
X187727036Y-81928029D01*
X187740145Y-81922636D01*
X187752950Y-81916570D01*
X187765449Y-81909829D01*
X187777643Y-81902415D01*
X187789533Y-81894326D01*
X187801118Y-81885564D01*
X187806796Y-81880929D01*
X187812398Y-81876127D01*
X187817924Y-81871156D01*
X187823373Y-81866016D01*
X187828746Y-81860708D01*
X187834009Y-81855210D01*
X187839105Y-81849637D01*
X187844034Y-81843991D01*
X187848796Y-81838271D01*
X187853391Y-81832476D01*
X187857819Y-81826608D01*
X187866173Y-81814649D01*
X187873858Y-81802394D01*
X187880876Y-81789842D01*
X187887225Y-81776994D01*
X187892906Y-81763850D01*
X187897918Y-81750410D01*
X187902262Y-81736673D01*
X187905938Y-81722641D01*
X187908946Y-81708312D01*
X187910199Y-81701036D01*
X187911285Y-81693686D01*
X187912204Y-81686263D01*
X187912956Y-81678765D01*
X187913540Y-81671193D01*
X187913958Y-81663547D01*
X187914209Y-81655827D01*
X187914292Y-81648033D01*
X187914210Y-81640151D01*
X187913962Y-81632348D01*
X187913550Y-81624624D01*
X187912973Y-81616981D01*
X187912231Y-81609418D01*
X187911324Y-81601934D01*
X187910251Y-81594530D01*
X187909014Y-81587205D01*
X187907612Y-81579961D01*
X187906046Y-81572796D01*
X187902417Y-81558706D01*
X187898129Y-81544935D01*
X187893181Y-81531484D01*
X187887573Y-81518351D01*
X187881305Y-81505538D01*
X187874378Y-81493043D01*
X187866791Y-81480868D01*
X187858544Y-81469012D01*
X187849638Y-81457475D01*
X187844937Y-81451826D01*
X187840071Y-81446258D01*
X187835041Y-81440768D01*
X187829845Y-81435359D01*
X187824563Y-81430051D01*
X187819202Y-81424911D01*
X187813764Y-81419940D01*
X187802653Y-81410503D01*
X187791229Y-81401740D01*
X187779494Y-81393652D01*
X187767447Y-81386237D01*
X187755088Y-81379497D01*
X187742417Y-81373430D01*
X187729434Y-81368038D01*
X187716139Y-81363319D01*
X187702532Y-81359275D01*
X187688613Y-81355905D01*
X187674382Y-81353209D01*
X187659839Y-81351187D01*
X187652451Y-81350428D01*
X187644984Y-81349838D01*
X187637440Y-81349417D01*
X187629817Y-81349164D01*
X187622117Y-81349080D01*
X187614438Y-81349164D01*
X187606835Y-81349417D01*
X187599307Y-81349838D01*
X187591855Y-81350428D01*
X187584478Y-81351187D01*
X187577176Y-81352113D01*
X187562800Y-81354473D01*
X187548726Y-81357506D01*
X187534954Y-81361213D01*
X187521483Y-81365594D01*
X187508315Y-81370650D01*
X187495449Y-81376379D01*
X187482884Y-81382783D01*
X187470622Y-81389860D01*
X187458661Y-81397612D01*
X187447003Y-81406038D01*
X187435646Y-81415137D01*
X187430081Y-81419940D01*
X187424591Y-81424911D01*
X187419177Y-81430051D01*
X187413839Y-81435359D01*
X187408609Y-81440733D01*
X187403546Y-81446185D01*
X187398649Y-81451715D01*
X187393918Y-81457324D01*
X187384953Y-81468774D01*
X187376653Y-81480536D01*
X187369016Y-81492610D01*
X187362044Y-81504997D01*
X187355736Y-81517695D01*
X187350091Y-81530705D01*
X187345111Y-81544027D01*
X187340795Y-81557662D01*
X187337143Y-81571608D01*
X187334155Y-81585866D01*
X187332909Y-81593112D01*
X187331830Y-81600436D01*
X187330917Y-81607838D01*
X187330170Y-81615318D01*
X187329589Y-81622876D01*
X187329174Y-81630512D01*
X187328925Y-81638226D01*
X187328842Y-81646018D01*
X187210887Y-81646018D01*
X187210873Y-81644736D01*
X187210992Y-81634193D01*
X187211348Y-81623742D01*
X187211942Y-81613386D01*
X187212773Y-81603122D01*
X187213843Y-81592952D01*
X187215149Y-81582876D01*
X187216693Y-81572892D01*
X187218475Y-81563002D01*
X187220494Y-81553206D01*
X187222751Y-81543503D01*
X187225246Y-81533893D01*
X187227978Y-81524377D01*
X187230947Y-81514954D01*
X187234154Y-81505624D01*
X187237599Y-81496388D01*
X187241281Y-81487245D01*
X187245201Y-81478196D01*
X187249358Y-81469240D01*
X187253753Y-81460377D01*
X187258386Y-81451608D01*
X187263256Y-81442932D01*
X187268364Y-81434349D01*
X187273709Y-81425860D01*
X187279291Y-81417464D01*
X187285112Y-81409162D01*
X187291170Y-81400953D01*
X187297465Y-81392837D01*
X187303998Y-81384815D01*
X187310769Y-81376886D01*
X187317777Y-81369051D01*
X187325023Y-81361308D01*
X187332506Y-81353660D01*
X187340121Y-81346165D01*
X187347832Y-81338908D01*
X187355639Y-81331890D01*
X187363541Y-81325109D01*
X187371539Y-81318566D01*
X187379632Y-81312261D01*
X187387820Y-81306194D01*
X187396104Y-81300365D01*
X187404484Y-81294774D01*
X187412959Y-81289421D01*
X187421530Y-81284305D01*
X187430196Y-81279428D01*
X187438958Y-81274788D01*
X187447815Y-81270387D01*
X187456768Y-81266223D01*
X187465817Y-81262298D01*
X187474961Y-81258610D01*
X187484200Y-81255160D01*
X187493535Y-81251948D01*
X187502965Y-81248974D01*
X187512491Y-81246238D01*
X187522113Y-81243740D01*
X187531830Y-81241479D01*
X187541643Y-81239457D01*
X187551551Y-81237673D01*
X187561554Y-81236126D01*
X187571654Y-81234818D01*
X187581848Y-81233747D01*
X187592138Y-81232914D01*
X187602524Y-81232319D01*
X187613006Y-81231962D01*
X187623582Y-81231844D01*
X187634034Y-81231963D01*
G37*
G36*
X188623574Y-81372527D02*
G01*
X188301906Y-81372527D01*
X188301906Y-81560106D01*
X188611850Y-81560106D01*
X188611850Y-81677342D01*
X188301906Y-81677342D01*
X188301906Y-81935263D01*
X188623574Y-81935263D01*
X188623574Y-82052500D01*
X188183936Y-82052500D01*
X188183936Y-81255291D01*
X188623574Y-81255291D01*
X188623574Y-81372527D01*
G37*
G36*
X188906327Y-81255340D02*
G01*
X188915886Y-81255485D01*
X188925194Y-81255729D01*
X188934250Y-81256069D01*
X188943055Y-81256507D01*
X188951607Y-81257043D01*
X188959907Y-81257675D01*
X188967956Y-81258405D01*
X188975753Y-81259232D01*
X188983298Y-81260157D01*
X188990590Y-81261178D01*
X189001058Y-81262894D01*
X189010958Y-81264828D01*
X189020292Y-81266981D01*
X189023277Y-81267747D01*
X189032109Y-81270200D01*
X189040678Y-81272955D01*
X189048982Y-81276013D01*
X189057023Y-81279374D01*
X189064799Y-81283037D01*
X189072311Y-81287003D01*
X189079559Y-81291271D01*
X189086544Y-81295843D01*
X189093264Y-81300717D01*
X189099720Y-81305893D01*
X189103877Y-81309513D01*
X189110039Y-81315346D01*
X189115952Y-81321444D01*
X189121618Y-81327806D01*
X189127035Y-81334431D01*
X189132205Y-81341321D01*
X189137127Y-81348475D01*
X189141801Y-81355893D01*
X189146227Y-81363574D01*
X189150405Y-81371520D01*
X189154335Y-81379730D01*
X189156817Y-81385350D01*
X189160385Y-81393979D01*
X189163602Y-81402624D01*
X189166469Y-81411286D01*
X189168984Y-81419963D01*
X189171148Y-81428656D01*
X189172962Y-81437366D01*
X189174424Y-81446092D01*
X189175536Y-81454833D01*
X189176296Y-81463591D01*
X189176706Y-81472365D01*
X189176784Y-81478224D01*
X189176522Y-81488837D01*
X189175736Y-81499247D01*
X189174427Y-81509451D01*
X189172593Y-81519451D01*
X189170236Y-81529246D01*
X189167355Y-81538837D01*
X189163951Y-81548223D01*
X189160022Y-81557404D01*
X189155570Y-81566381D01*
X189150594Y-81575153D01*
X189145095Y-81583720D01*
X189139071Y-81592083D01*
X189132524Y-81600241D01*
X189125453Y-81608194D01*
X189117858Y-81615943D01*
X189109739Y-81623487D01*
X189117579Y-81626316D01*
X189125209Y-81629400D01*
X189132629Y-81632739D01*
X189139838Y-81636333D01*
X189146837Y-81640181D01*
X189153625Y-81644284D01*
X189160204Y-81648642D01*
X189166571Y-81653254D01*
X189172729Y-81658121D01*
X189178676Y-81663243D01*
X189184412Y-81668620D01*
X189189938Y-81674251D01*
X189195254Y-81680137D01*
X189200360Y-81686278D01*
X189205255Y-81692674D01*
X189209940Y-81699324D01*
X189214443Y-81706124D01*
X189218655Y-81713057D01*
X189222577Y-81720126D01*
X189226208Y-81727328D01*
X189229549Y-81734666D01*
X189232600Y-81742137D01*
X189235360Y-81749744D01*
X189237829Y-81757485D01*
X189240008Y-81765360D01*
X189241896Y-81773370D01*
X189243494Y-81781514D01*
X189244801Y-81789793D01*
X189245818Y-81798207D01*
X189246545Y-81806755D01*
X189246980Y-81815437D01*
X189247126Y-81824255D01*
X189246869Y-81835819D01*
X189246101Y-81847158D01*
X189244820Y-81858271D01*
X189243027Y-81869157D01*
X189240721Y-81879817D01*
X189237904Y-81890252D01*
X189234573Y-81900460D01*
X189230731Y-81910442D01*
X189226376Y-81920198D01*
X189221509Y-81929727D01*
X189216129Y-81939031D01*
X189210237Y-81948109D01*
X189203833Y-81956960D01*
X189196917Y-81965585D01*
X189189488Y-81973984D01*
X189181546Y-81982158D01*
X189174077Y-81989429D01*
X189166436Y-81996270D01*
X189158625Y-82002679D01*
X189150643Y-82008656D01*
X189142490Y-82014202D01*
X189134167Y-82019316D01*
X189125674Y-82023999D01*
X189117009Y-82028251D01*
X189108174Y-82032071D01*
X189099168Y-82035459D01*
X189093069Y-82037479D01*
X189082733Y-82040163D01*
X189075578Y-82041806D01*
X189068210Y-82043331D01*
X189060631Y-82044740D01*
X189052840Y-82046031D01*
X189044837Y-82047204D01*
X189036623Y-82048260D01*
X189028196Y-82049199D01*
X189019558Y-82050020D01*
X189010708Y-82050725D01*
X189001646Y-82051311D01*
X188992373Y-82051781D01*
X188982888Y-82052133D01*
X188973190Y-82052367D01*
X188963281Y-82052485D01*
X188958247Y-82052500D01*
X188777447Y-82052500D01*
X188777447Y-81700790D01*
X188895416Y-81700790D01*
X188895416Y-81935263D01*
X188969605Y-81935263D01*
X188979580Y-81935142D01*
X188989219Y-81934779D01*
X188998522Y-81934175D01*
X189007489Y-81933328D01*
X189016119Y-81932240D01*
X189024413Y-81930909D01*
X189032371Y-81929337D01*
X189039992Y-81927523D01*
X189047277Y-81925468D01*
X189057574Y-81921931D01*
X189067115Y-81917849D01*
X189075898Y-81913224D01*
X189083925Y-81908054D01*
X189088856Y-81904305D01*
X189096058Y-81897795D01*
X189102552Y-81890972D01*
X189108337Y-81883837D01*
X189113414Y-81876390D01*
X189117783Y-81868630D01*
X189121443Y-81860558D01*
X189124394Y-81852174D01*
X189126638Y-81843477D01*
X189128172Y-81834468D01*
X189128999Y-81825147D01*
X189129156Y-81818759D01*
X189128817Y-81809490D01*
X189127797Y-81800504D01*
X189126099Y-81791801D01*
X189123721Y-81783382D01*
X189120664Y-81775246D01*
X189116927Y-81767394D01*
X189112511Y-81759825D01*
X189107415Y-81752539D01*
X189101640Y-81745536D01*
X189095185Y-81738817D01*
X189090505Y-81734495D01*
X189082911Y-81728472D01*
X189074280Y-81723041D01*
X189064613Y-81718202D01*
X189057592Y-81715306D01*
X189050110Y-81712672D01*
X189042167Y-81710302D01*
X189033764Y-81708196D01*
X189024900Y-81706353D01*
X189015574Y-81704773D01*
X189005788Y-81703456D01*
X188995542Y-81702403D01*
X188984834Y-81701613D01*
X188973666Y-81701086D01*
X188962037Y-81700823D01*
X188956049Y-81700790D01*
X188895416Y-81700790D01*
X188777447Y-81700790D01*
X188777447Y-81359338D01*
X188895416Y-81359338D01*
X188895416Y-81596742D01*
X188932235Y-81596742D01*
X188940296Y-81596624D01*
X188948081Y-81596267D01*
X188955591Y-81595673D01*
X188966342Y-81594337D01*
X188976474Y-81592466D01*
X188985988Y-81590061D01*
X188994884Y-81587121D01*
X189003161Y-81583647D01*
X189010821Y-81579638D01*
X189017862Y-81575094D01*
X189024285Y-81570016D01*
X189028223Y-81566334D01*
X189033690Y-81560378D01*
X189038619Y-81553914D01*
X189043011Y-81546940D01*
X189046865Y-81539458D01*
X189050181Y-81531467D01*
X189052959Y-81522967D01*
X189055200Y-81513959D01*
X189056902Y-81504441D01*
X189058067Y-81494415D01*
X189058695Y-81483881D01*
X189058814Y-81476575D01*
X189058539Y-81466033D01*
X189057713Y-81455978D01*
X189056337Y-81446408D01*
X189054409Y-81437325D01*
X189051932Y-81428728D01*
X189048903Y-81420618D01*
X189045324Y-81412993D01*
X189041195Y-81405855D01*
X189036514Y-81399203D01*
X189031283Y-81393037D01*
X189027490Y-81389197D01*
X189021400Y-81383861D01*
X189014808Y-81379050D01*
X189007713Y-81374763D01*
X189000116Y-81371002D01*
X188992017Y-81367765D01*
X188983415Y-81365053D01*
X188974311Y-81362867D01*
X188964705Y-81361204D01*
X188954596Y-81360067D01*
X188943985Y-81359455D01*
X188936632Y-81359338D01*
X188895416Y-81359338D01*
X188777447Y-81359338D01*
X188777447Y-81255291D01*
X188896515Y-81255291D01*
X188906327Y-81255340D01*
G37*
G36*
X190066133Y-82058361D02*
G01*
X189935524Y-82058361D01*
X189852359Y-81864921D01*
X189513472Y-81864921D01*
X189425362Y-82058361D01*
X189296585Y-82058361D01*
X189439773Y-81747684D01*
X189563298Y-81747684D01*
X189803633Y-81747684D01*
X189686396Y-81477124D01*
X189563298Y-81747684D01*
X189439773Y-81747684D01*
X189688411Y-81208213D01*
X190066133Y-82058361D01*
G37*
G36*
X185577621Y-82833295D02*
G01*
X185885733Y-82515291D01*
X186045102Y-82515291D01*
X185687347Y-82876160D01*
X186047300Y-83312500D01*
X185887199Y-83312500D01*
X185602167Y-82957859D01*
X185577621Y-82982588D01*
X185577621Y-83312500D01*
X185459652Y-83312500D01*
X185459652Y-82515291D01*
X185577621Y-82515291D01*
X185577621Y-82833295D01*
G37*
G36*
X186249533Y-82808382D02*
G01*
X186249533Y-83312500D01*
X186131564Y-83312500D01*
X186131564Y-82808382D01*
X186249533Y-82808382D01*
G37*
G36*
X186119840Y-82602486D02*
G01*
X186120189Y-82594924D01*
X186121237Y-82587625D01*
X186123528Y-82578872D01*
X186126911Y-82570530D01*
X186131385Y-82562600D01*
X186135750Y-82556552D01*
X186140813Y-82550768D01*
X186142188Y-82549363D01*
X186147956Y-82544125D01*
X186153992Y-82539585D01*
X186160298Y-82535744D01*
X186168558Y-82531925D01*
X186177238Y-82529197D01*
X186184486Y-82527800D01*
X186192002Y-82527102D01*
X186195861Y-82527015D01*
X186203637Y-82527364D01*
X186211122Y-82528411D01*
X186218315Y-82530157D01*
X186226895Y-82533322D01*
X186233431Y-82536639D01*
X186239675Y-82540655D01*
X186245627Y-82545369D01*
X186249899Y-82549363D01*
X186255137Y-82554970D01*
X186259677Y-82560892D01*
X186264369Y-82568737D01*
X186267970Y-82577074D01*
X186270065Y-82584098D01*
X186271462Y-82591437D01*
X186272160Y-82599090D01*
X186272248Y-82603035D01*
X186271899Y-82610852D01*
X186270851Y-82618365D01*
X186269105Y-82625575D01*
X186265940Y-82634161D01*
X186261685Y-82642273D01*
X186257494Y-82648421D01*
X186252606Y-82654265D01*
X186249899Y-82657074D01*
X186244295Y-82662312D01*
X186238382Y-82666851D01*
X186230556Y-82671543D01*
X186222246Y-82675144D01*
X186213454Y-82677654D01*
X186206072Y-82678876D01*
X186198381Y-82679400D01*
X186196410Y-82679422D01*
X186188631Y-82679076D01*
X186181137Y-82678037D01*
X186173930Y-82676305D01*
X186167010Y-82673881D01*
X186160375Y-82670764D01*
X186154027Y-82666954D01*
X186147964Y-82662452D01*
X186142188Y-82657257D01*
X186136951Y-82651513D01*
X186132411Y-82645453D01*
X186128570Y-82639079D01*
X186125427Y-82632390D01*
X186122983Y-82625386D01*
X186121237Y-82618067D01*
X186120189Y-82610434D01*
X186119840Y-82602486D01*
G37*
G36*
X186392415Y-82808382D02*
G01*
X186510384Y-82808382D01*
X186510384Y-82855826D01*
X186518046Y-82848662D01*
X186525826Y-82841959D01*
X186533725Y-82835719D01*
X186541743Y-82829941D01*
X186549880Y-82824625D01*
X186558135Y-82819771D01*
X186566509Y-82815380D01*
X186575002Y-82811451D01*
X186583614Y-82807984D01*
X186592344Y-82804979D01*
X186601193Y-82802437D01*
X186610162Y-82800357D01*
X186619248Y-82798739D01*
X186628454Y-82797583D01*
X186637778Y-82796890D01*
X186647222Y-82796659D01*
X186658038Y-82796874D01*
X186668551Y-82797520D01*
X186678760Y-82798597D01*
X186688666Y-82800105D01*
X186698269Y-82802043D01*
X186707569Y-82804412D01*
X186716565Y-82807212D01*
X186725257Y-82810443D01*
X186733646Y-82814105D01*
X186741732Y-82818197D01*
X186749514Y-82822720D01*
X186756993Y-82827674D01*
X186764169Y-82833058D01*
X186771041Y-82838874D01*
X186777610Y-82845120D01*
X186783875Y-82851796D01*
X186789000Y-82857890D01*
X186793793Y-82864447D01*
X186798256Y-82871468D01*
X186802388Y-82878953D01*
X186806190Y-82886902D01*
X186809661Y-82895314D01*
X186812802Y-82904189D01*
X186815612Y-82913529D01*
X186818091Y-82923332D01*
X186820240Y-82933599D01*
X186822058Y-82944329D01*
X186823546Y-82955523D01*
X186824703Y-82967181D01*
X186825529Y-82979303D01*
X186826025Y-82991888D01*
X186826190Y-83004937D01*
X186826190Y-83312500D01*
X186708221Y-83312500D01*
X186708221Y-83032048D01*
X186708141Y-83022953D01*
X186707901Y-83014216D01*
X186707500Y-83005837D01*
X186706939Y-82997815D01*
X186706218Y-82990152D01*
X186705336Y-82982846D01*
X186703713Y-82972558D01*
X186701730Y-82963075D01*
X186699386Y-82954397D01*
X186696681Y-82946524D01*
X186693615Y-82939457D01*
X186688967Y-82931285D01*
X186687705Y-82929466D01*
X186682244Y-82922725D01*
X186675752Y-82916883D01*
X186668230Y-82911940D01*
X186659678Y-82907896D01*
X186652587Y-82905453D01*
X186644917Y-82903515D01*
X186636668Y-82902082D01*
X186627839Y-82901155D01*
X186618430Y-82900734D01*
X186615165Y-82900706D01*
X186604709Y-82901041D01*
X186594842Y-82902046D01*
X186585565Y-82903720D01*
X186576877Y-82906064D01*
X186568778Y-82909078D01*
X186561268Y-82912762D01*
X186554348Y-82917115D01*
X186548017Y-82922138D01*
X186542275Y-82927831D01*
X186537123Y-82934194D01*
X186534015Y-82938808D01*
X186529792Y-82946343D01*
X186525984Y-82954867D01*
X186522592Y-82964380D01*
X186519615Y-82974881D01*
X186517861Y-82982430D01*
X186516292Y-82990420D01*
X186514908Y-82998848D01*
X186513708Y-83007716D01*
X186512692Y-83017023D01*
X186511861Y-83026770D01*
X186511215Y-83036956D01*
X186510754Y-83047581D01*
X186510477Y-83058646D01*
X186510384Y-83070150D01*
X186510384Y-83312500D01*
X186392415Y-83312500D01*
X186392415Y-82808382D01*
G37*
G36*
X187188767Y-82796934D02*
G01*
X187200120Y-82797761D01*
X187211224Y-82799138D01*
X187222081Y-82801066D01*
X187232691Y-82803546D01*
X187243053Y-82806576D01*
X187253167Y-82810158D01*
X187263034Y-82814290D01*
X187272653Y-82818973D01*
X187282025Y-82824207D01*
X187291149Y-82829993D01*
X187300025Y-82836329D01*
X187308654Y-82843216D01*
X187317036Y-82850654D01*
X187325169Y-82858644D01*
X187333055Y-82867184D01*
X187333055Y-82810580D01*
X187448277Y-82810580D01*
X187448277Y-83297845D01*
X187448240Y-83306552D01*
X187448128Y-83314995D01*
X187447942Y-83323176D01*
X187447682Y-83331092D01*
X187447347Y-83338746D01*
X187446937Y-83346136D01*
X187446321Y-83355004D01*
X187445896Y-83360127D01*
X187445160Y-83368381D01*
X187444325Y-83376313D01*
X187443392Y-83383923D01*
X187442361Y-83391211D01*
X187440993Y-83399531D01*
X187439484Y-83407388D01*
X187437010Y-83417858D01*
X187434120Y-83428041D01*
X187430814Y-83437938D01*
X187427094Y-83447548D01*
X187422958Y-83456871D01*
X187418406Y-83465908D01*
X187413439Y-83474658D01*
X187408057Y-83483122D01*
X187402259Y-83491299D01*
X187396046Y-83499190D01*
X187391674Y-83504291D01*
X187383051Y-83513719D01*
X187374034Y-83522538D01*
X187364624Y-83530749D01*
X187354820Y-83538352D01*
X187344622Y-83545346D01*
X187334031Y-83551733D01*
X187323047Y-83557511D01*
X187311669Y-83562681D01*
X187299897Y-83567242D01*
X187287732Y-83571196D01*
X187275173Y-83574541D01*
X187262221Y-83577278D01*
X187248875Y-83579407D01*
X187235136Y-83580927D01*
X187221003Y-83581839D01*
X187206477Y-83582144D01*
X187194180Y-83581933D01*
X187182159Y-83581299D01*
X187170413Y-83580244D01*
X187158941Y-83578766D01*
X187147744Y-83576866D01*
X187136822Y-83574544D01*
X187126174Y-83571800D01*
X187115801Y-83568634D01*
X187105704Y-83565045D01*
X187095880Y-83561035D01*
X187086332Y-83556602D01*
X187077058Y-83551747D01*
X187068060Y-83546470D01*
X187059336Y-83540770D01*
X187050886Y-83534649D01*
X187042712Y-83528105D01*
X187034642Y-83520999D01*
X187027010Y-83513559D01*
X187019815Y-83505784D01*
X187013059Y-83497674D01*
X187006741Y-83489229D01*
X187000860Y-83480449D01*
X186995418Y-83471334D01*
X186990413Y-83461885D01*
X186985847Y-83452100D01*
X186981718Y-83441981D01*
X186978027Y-83431526D01*
X186974774Y-83420737D01*
X186971959Y-83409613D01*
X186969582Y-83398154D01*
X186967643Y-83386361D01*
X186966142Y-83374232D01*
X187081913Y-83374232D01*
X187083696Y-83383256D01*
X187085748Y-83391737D01*
X187088069Y-83399674D01*
X187090660Y-83407067D01*
X187093519Y-83413917D01*
X187097472Y-83421713D01*
X187101845Y-83428661D01*
X187103711Y-83431202D01*
X187110661Y-83439582D01*
X187118184Y-83447138D01*
X187126280Y-83453870D01*
X187134950Y-83459778D01*
X187144192Y-83464861D01*
X187154008Y-83469120D01*
X187164397Y-83472555D01*
X187171641Y-83474387D01*
X187179140Y-83475852D01*
X187186894Y-83476951D01*
X187194902Y-83477684D01*
X187203165Y-83478050D01*
X187207393Y-83478096D01*
X187215124Y-83477944D01*
X187222610Y-83477486D01*
X187236845Y-83475658D01*
X187250098Y-83472609D01*
X187262370Y-83468342D01*
X187273660Y-83462855D01*
X187283968Y-83456149D01*
X187293295Y-83448223D01*
X187301640Y-83439078D01*
X187309003Y-83428714D01*
X187315384Y-83417131D01*
X187320784Y-83404328D01*
X187325202Y-83390306D01*
X187327042Y-83382838D01*
X187328638Y-83375065D01*
X187329988Y-83366987D01*
X187331092Y-83358604D01*
X187331951Y-83349917D01*
X187332565Y-83340924D01*
X187332933Y-83331627D01*
X187333055Y-83322025D01*
X187333055Y-83251866D01*
X187324433Y-83260451D01*
X187315647Y-83268481D01*
X187306699Y-83275958D01*
X187297587Y-83282881D01*
X187288312Y-83289250D01*
X187278874Y-83295066D01*
X187269272Y-83300327D01*
X187259508Y-83305035D01*
X187249580Y-83309189D01*
X187239489Y-83312789D01*
X187229236Y-83315835D01*
X187218818Y-83318327D01*
X187208238Y-83320265D01*
X187197495Y-83321650D01*
X187186588Y-83322481D01*
X187175519Y-83322758D01*
X187162977Y-83322470D01*
X187150723Y-83321607D01*
X187138757Y-83320169D01*
X187127079Y-83318155D01*
X187115688Y-83315566D01*
X187104584Y-83312402D01*
X187093769Y-83308663D01*
X187083241Y-83304348D01*
X187073001Y-83299458D01*
X187063048Y-83293992D01*
X187053383Y-83287952D01*
X187044005Y-83281336D01*
X187034916Y-83274144D01*
X187026114Y-83266378D01*
X187017599Y-83258036D01*
X187009373Y-83249118D01*
X187001476Y-83239631D01*
X186994088Y-83229853D01*
X186987210Y-83219784D01*
X186980842Y-83209425D01*
X186974983Y-83198776D01*
X186969634Y-83187835D01*
X186964794Y-83176605D01*
X186960463Y-83165084D01*
X186956642Y-83153272D01*
X186953330Y-83141170D01*
X186950528Y-83128777D01*
X186948236Y-83116094D01*
X186946452Y-83103120D01*
X186945179Y-83089856D01*
X186944415Y-83076301D01*
X186944160Y-83062456D01*
X186944189Y-83060807D01*
X187062129Y-83060807D01*
X187062262Y-83069161D01*
X187062661Y-83077325D01*
X187063327Y-83085299D01*
X187064259Y-83093082D01*
X187065456Y-83100674D01*
X187066920Y-83108077D01*
X187068651Y-83115289D01*
X187071745Y-83125750D01*
X187075438Y-83135783D01*
X187079731Y-83145388D01*
X187084622Y-83154564D01*
X187090112Y-83163312D01*
X187096201Y-83171632D01*
X187100960Y-83177333D01*
X187108515Y-83185195D01*
X187116569Y-83192229D01*
X187125121Y-83198436D01*
X187134173Y-83203815D01*
X187143724Y-83208366D01*
X187153775Y-83212090D01*
X187164324Y-83214986D01*
X187171634Y-83216457D01*
X187179166Y-83217561D01*
X187186920Y-83218296D01*
X187194895Y-83218664D01*
X187198966Y-83218710D01*
X187207035Y-83218524D01*
X187214892Y-83217966D01*
X187222537Y-83217036D01*
X187229970Y-83215734D01*
X187237191Y-83214059D01*
X187247626Y-83210850D01*
X187257584Y-83206803D01*
X187267066Y-83201920D01*
X187276071Y-83196199D01*
X187284600Y-83189641D01*
X187292652Y-83182246D01*
X187297756Y-83176850D01*
X187302647Y-83171083D01*
X187308900Y-83162763D01*
X187314538Y-83154015D01*
X187319560Y-83144838D01*
X187323968Y-83135234D01*
X187327761Y-83125201D01*
X187330938Y-83114739D01*
X187332715Y-83107527D01*
X187334218Y-83100125D01*
X187335448Y-83092532D01*
X187336405Y-83084749D01*
X187337088Y-83076776D01*
X187337498Y-83068612D01*
X187337635Y-83060258D01*
X187337485Y-83051328D01*
X187337034Y-83042626D01*
X187336283Y-83034154D01*
X187335231Y-83025911D01*
X187333878Y-83017897D01*
X187332225Y-83010112D01*
X187330272Y-83002555D01*
X187328018Y-82995228D01*
X187325463Y-82988130D01*
X187322608Y-82981260D01*
X187319453Y-82974620D01*
X187314156Y-82965089D01*
X187308183Y-82956073D01*
X187301533Y-82947572D01*
X187299167Y-82944853D01*
X187291625Y-82936963D01*
X187283700Y-82929850D01*
X187275392Y-82923512D01*
X187266701Y-82917951D01*
X187257626Y-82913165D01*
X187248168Y-82909156D01*
X187238328Y-82905923D01*
X187228104Y-82903465D01*
X187217496Y-82901784D01*
X187206506Y-82900879D01*
X187198966Y-82900706D01*
X187190944Y-82900894D01*
X187183135Y-82901459D01*
X187175540Y-82902400D01*
X187168157Y-82903717D01*
X187160988Y-82905411D01*
X187150634Y-82908657D01*
X187140760Y-82912750D01*
X187131366Y-82917690D01*
X187122451Y-82923477D01*
X187114016Y-82930111D01*
X187106061Y-82937591D01*
X187101025Y-82943049D01*
X187096201Y-82948883D01*
X187090112Y-82957213D01*
X187084622Y-82965990D01*
X187079731Y-82975214D01*
X187075438Y-82984887D01*
X187071745Y-82995007D01*
X187068651Y-83005574D01*
X187066920Y-83012868D01*
X187065456Y-83020360D01*
X187064259Y-83028052D01*
X187063327Y-83035942D01*
X187062661Y-83044032D01*
X187062262Y-83052320D01*
X187062129Y-83060807D01*
X186944189Y-83060807D01*
X186944397Y-83048982D01*
X186945107Y-83035763D01*
X186946291Y-83022798D01*
X186947949Y-83010089D01*
X186950081Y-82997634D01*
X186952686Y-82985434D01*
X186955765Y-82973488D01*
X186959318Y-82961797D01*
X186963345Y-82950361D01*
X186967845Y-82939180D01*
X186972818Y-82928254D01*
X186978266Y-82917582D01*
X186984187Y-82907165D01*
X186990582Y-82897002D01*
X186997451Y-82887095D01*
X187004793Y-82877442D01*
X187013109Y-82867660D01*
X187021752Y-82858508D01*
X187030723Y-82849988D01*
X187040021Y-82842099D01*
X187049648Y-82834841D01*
X187059602Y-82828215D01*
X187069884Y-82822219D01*
X187080493Y-82816854D01*
X187091430Y-82812121D01*
X187102695Y-82808019D01*
X187114288Y-82804548D01*
X187126208Y-82801708D01*
X187138457Y-82799499D01*
X187151033Y-82797921D01*
X187163936Y-82796974D01*
X187177167Y-82796659D01*
X187188767Y-82796934D01*
G37*
G36*
X187767029Y-82515345D02*
G01*
X187778935Y-82515506D01*
X187790459Y-82515774D01*
X187801601Y-82516150D01*
X187812361Y-82516633D01*
X187822739Y-82517223D01*
X187832734Y-82517921D01*
X187842348Y-82518726D01*
X187851579Y-82519638D01*
X187860428Y-82520658D01*
X187868895Y-82521785D01*
X187876980Y-82523019D01*
X187884683Y-82524361D01*
X187892004Y-82525810D01*
X187902269Y-82528184D01*
X187905500Y-82529030D01*
X187915042Y-82531854D01*
X187924365Y-82535107D01*
X187933469Y-82538788D01*
X187942354Y-82542897D01*
X187951020Y-82547434D01*
X187959467Y-82552400D01*
X187967695Y-82557794D01*
X187975704Y-82563617D01*
X187983494Y-82569867D01*
X187991066Y-82576546D01*
X187995992Y-82581236D01*
X188004288Y-82589706D01*
X188012049Y-82598444D01*
X188019274Y-82607451D01*
X188025965Y-82616728D01*
X188032120Y-82626273D01*
X188037740Y-82636088D01*
X188042825Y-82646172D01*
X188047374Y-82656524D01*
X188051388Y-82667146D01*
X188054867Y-82678037D01*
X188057811Y-82689197D01*
X188060220Y-82700625D01*
X188062093Y-82712323D01*
X188063431Y-82724290D01*
X188064234Y-82736526D01*
X188064502Y-82749031D01*
X188064215Y-82762411D01*
X188063354Y-82775438D01*
X188061919Y-82788113D01*
X188059911Y-82800437D01*
X188057328Y-82812408D01*
X188054172Y-82824027D01*
X188050442Y-82835294D01*
X188046138Y-82846209D01*
X188041260Y-82856772D01*
X188035808Y-82866983D01*
X188029782Y-82876842D01*
X188023183Y-82886349D01*
X188016009Y-82895504D01*
X188008262Y-82904307D01*
X187999941Y-82912757D01*
X187991046Y-82920856D01*
X187981663Y-82928531D01*
X187971880Y-82935711D01*
X187961696Y-82942396D01*
X187951112Y-82948585D01*
X187940127Y-82954280D01*
X187928741Y-82959479D01*
X187916954Y-82964183D01*
X187904767Y-82968392D01*
X187892179Y-82972106D01*
X187879190Y-82975324D01*
X187865801Y-82978048D01*
X187852010Y-82980276D01*
X187837820Y-82982009D01*
X187823228Y-82983247D01*
X187815782Y-82983680D01*
X187808236Y-82983990D01*
X187800589Y-82984175D01*
X187792843Y-82984237D01*
X187736972Y-82984237D01*
X187736972Y-83306638D01*
X187619003Y-83306638D01*
X187619003Y-82619338D01*
X187736972Y-82619338D01*
X187736972Y-82880190D01*
X187781485Y-82880190D01*
X187791640Y-82880060D01*
X187801471Y-82879672D01*
X187810981Y-82879024D01*
X187820168Y-82878117D01*
X187829033Y-82876952D01*
X187837576Y-82875527D01*
X187845796Y-82873843D01*
X187853693Y-82871901D01*
X187861269Y-82869699D01*
X187868522Y-82867238D01*
X187875453Y-82864518D01*
X187888347Y-82858302D01*
X187899952Y-82851049D01*
X187910267Y-82842760D01*
X187919293Y-82833435D01*
X187927030Y-82823073D01*
X187933477Y-82811676D01*
X187938635Y-82799242D01*
X187942503Y-82785773D01*
X187945082Y-82771267D01*
X187945888Y-82763626D01*
X187946371Y-82755725D01*
X187946532Y-82747566D01*
X187946366Y-82739677D01*
X187945868Y-82732038D01*
X187945037Y-82724650D01*
X187942378Y-82710625D01*
X187938389Y-82697602D01*
X187933071Y-82685581D01*
X187926424Y-82674561D01*
X187918447Y-82664544D01*
X187909140Y-82655528D01*
X187898504Y-82647513D01*
X187886539Y-82640501D01*
X187873244Y-82634490D01*
X187866098Y-82631861D01*
X187858619Y-82629481D01*
X187850808Y-82627353D01*
X187842665Y-82625474D01*
X187834190Y-82623846D01*
X187825382Y-82622469D01*
X187816241Y-82621342D01*
X187806769Y-82620465D01*
X187796963Y-82619839D01*
X187786826Y-82619464D01*
X187776356Y-82619338D01*
X187736972Y-82619338D01*
X187619003Y-82619338D01*
X187619003Y-82515291D01*
X187754741Y-82515291D01*
X187767029Y-82515345D01*
G37*
G36*
X188280657Y-82808382D02*
G01*
X188280657Y-83312500D01*
X188162687Y-83312500D01*
X188162687Y-82808382D01*
X188280657Y-82808382D01*
G37*
G36*
X188150964Y-82602486D02*
G01*
X188151313Y-82594924D01*
X188152360Y-82587625D01*
X188154652Y-82578872D01*
X188158035Y-82570530D01*
X188162509Y-82562600D01*
X188166874Y-82556552D01*
X188171937Y-82550768D01*
X188173312Y-82549363D01*
X188179079Y-82544125D01*
X188185116Y-82539585D01*
X188191421Y-82535744D01*
X188199681Y-82531925D01*
X188208362Y-82529197D01*
X188215609Y-82527800D01*
X188223125Y-82527102D01*
X188226984Y-82527015D01*
X188234761Y-82527364D01*
X188242246Y-82528411D01*
X188249438Y-82530157D01*
X188258019Y-82533322D01*
X188264555Y-82536639D01*
X188270799Y-82540655D01*
X188276751Y-82545369D01*
X188281023Y-82549363D01*
X188286261Y-82554970D01*
X188290800Y-82560892D01*
X188295493Y-82568737D01*
X188299094Y-82577074D01*
X188301189Y-82584098D01*
X188302586Y-82591437D01*
X188303284Y-82599090D01*
X188303371Y-82603035D01*
X188303022Y-82610852D01*
X188301974Y-82618365D01*
X188300229Y-82625575D01*
X188297064Y-82634161D01*
X188292808Y-82642273D01*
X188288618Y-82648421D01*
X188283729Y-82654265D01*
X188281023Y-82657074D01*
X188275419Y-82662312D01*
X188269505Y-82666851D01*
X188261679Y-82671543D01*
X188253370Y-82675144D01*
X188244577Y-82677654D01*
X188237196Y-82678876D01*
X188229505Y-82679400D01*
X188227534Y-82679422D01*
X188219754Y-82679076D01*
X188212261Y-82678037D01*
X188205054Y-82676305D01*
X188198133Y-82673881D01*
X188191498Y-82670764D01*
X188185150Y-82666954D01*
X188179088Y-82662452D01*
X188173312Y-82657257D01*
X188168074Y-82651513D01*
X188163535Y-82645453D01*
X188159693Y-82639079D01*
X188156551Y-82632390D01*
X188154106Y-82625386D01*
X188152360Y-82618067D01*
X188151313Y-82610434D01*
X188150964Y-82602486D01*
G37*
G36*
X188423539Y-82808382D02*
G01*
X188541508Y-82808382D01*
X188541508Y-82855826D01*
X188549169Y-82848662D01*
X188556950Y-82841959D01*
X188564849Y-82835719D01*
X188572866Y-82829941D01*
X188581003Y-82824625D01*
X188589258Y-82819771D01*
X188597633Y-82815380D01*
X188606125Y-82811451D01*
X188614737Y-82807984D01*
X188623468Y-82804979D01*
X188632317Y-82802437D01*
X188641285Y-82800357D01*
X188650372Y-82798739D01*
X188659577Y-82797583D01*
X188668902Y-82796890D01*
X188678345Y-82796659D01*
X188689161Y-82796874D01*
X188699674Y-82797520D01*
X188709884Y-82798597D01*
X188719790Y-82800105D01*
X188729393Y-82802043D01*
X188738692Y-82804412D01*
X188747688Y-82807212D01*
X188756381Y-82810443D01*
X188764770Y-82814105D01*
X188772856Y-82818197D01*
X188780638Y-82822720D01*
X188788117Y-82827674D01*
X188795293Y-82833058D01*
X188802165Y-82838874D01*
X188808734Y-82845120D01*
X188814999Y-82851796D01*
X188820123Y-82857890D01*
X188824917Y-82864447D01*
X188829379Y-82871468D01*
X188833512Y-82878953D01*
X188837314Y-82886902D01*
X188840785Y-82895314D01*
X188843925Y-82904189D01*
X188846735Y-82913529D01*
X188849215Y-82923332D01*
X188851363Y-82933599D01*
X188853182Y-82944329D01*
X188854669Y-82955523D01*
X188855826Y-82967181D01*
X188856653Y-82979303D01*
X188857149Y-82991888D01*
X188857314Y-83004937D01*
X188857314Y-83312500D01*
X188739345Y-83312500D01*
X188739345Y-83032048D01*
X188739265Y-83022953D01*
X188739024Y-83014216D01*
X188738623Y-83005837D01*
X188738062Y-82997815D01*
X188737341Y-82990152D01*
X188736460Y-82982846D01*
X188734837Y-82972558D01*
X188732853Y-82963075D01*
X188730509Y-82954397D01*
X188727804Y-82946524D01*
X188724739Y-82939457D01*
X188720091Y-82931285D01*
X188718828Y-82929466D01*
X188713367Y-82922725D01*
X188706876Y-82916883D01*
X188699354Y-82911940D01*
X188690801Y-82907896D01*
X188683711Y-82905453D01*
X188676041Y-82903515D01*
X188667791Y-82902082D01*
X188658962Y-82901155D01*
X188649553Y-82900734D01*
X188646288Y-82900706D01*
X188635832Y-82901041D01*
X188625966Y-82902046D01*
X188616688Y-82903720D01*
X188608000Y-82906064D01*
X188599901Y-82909078D01*
X188592392Y-82912762D01*
X188585472Y-82917115D01*
X188579140Y-82922138D01*
X188573399Y-82927831D01*
X188568246Y-82934194D01*
X188565138Y-82938808D01*
X188560915Y-82946343D01*
X188557108Y-82954867D01*
X188553716Y-82964380D01*
X188550739Y-82974881D01*
X188548985Y-82982430D01*
X188547416Y-82990420D01*
X188546031Y-82998848D01*
X188544831Y-83007716D01*
X188543816Y-83017023D01*
X188542985Y-83026770D01*
X188542339Y-83036956D01*
X188541877Y-83047581D01*
X188541600Y-83058646D01*
X188541508Y-83070150D01*
X188541508Y-83312500D01*
X188423539Y-83312500D01*
X188423539Y-82808382D01*
G37*
G36*
X189387077Y-82808382D02*
G01*
X189516220Y-83090300D01*
X189644997Y-82808382D01*
X189774690Y-82808382D01*
X189515304Y-83344740D01*
X189257933Y-82808382D01*
X189387077Y-82808382D01*
G37*
G36*
X190122262Y-82505432D02*
G01*
X190135997Y-82506630D01*
X190149470Y-82508626D01*
X190162681Y-82511421D01*
X190175631Y-82515015D01*
X190188318Y-82519407D01*
X190200744Y-82524597D01*
X190212908Y-82530587D01*
X190224809Y-82537374D01*
X190236449Y-82544961D01*
X190247827Y-82553346D01*
X190258944Y-82562529D01*
X190264403Y-82567420D01*
X190269798Y-82572511D01*
X190275127Y-82577801D01*
X190280390Y-82583291D01*
X190285588Y-82588981D01*
X190290721Y-82594871D01*
X190295788Y-82600960D01*
X190300789Y-82607248D01*
X190306244Y-82614381D01*
X190311525Y-82621674D01*
X190316634Y-82629127D01*
X190321569Y-82636741D01*
X190326331Y-82644514D01*
X190330920Y-82652448D01*
X190335336Y-82660543D01*
X190339578Y-82668797D01*
X190343647Y-82677212D01*
X190347544Y-82685788D01*
X190351267Y-82694523D01*
X190354817Y-82703419D01*
X190358193Y-82712475D01*
X190361397Y-82721691D01*
X190364427Y-82731068D01*
X190367284Y-82740605D01*
X190369968Y-82750302D01*
X190372479Y-82760160D01*
X190374817Y-82770177D01*
X190376982Y-82780355D01*
X190378973Y-82790694D01*
X190380791Y-82801192D01*
X190382436Y-82811851D01*
X190383908Y-82822670D01*
X190385207Y-82833650D01*
X190386332Y-82844790D01*
X190387285Y-82856090D01*
X190388064Y-82867550D01*
X190388670Y-82879171D01*
X190389103Y-82890952D01*
X190389363Y-82902893D01*
X190389449Y-82914994D01*
X190389363Y-82927051D01*
X190389103Y-82938949D01*
X190388670Y-82950688D01*
X190388064Y-82962270D01*
X190387285Y-82973692D01*
X190386332Y-82984956D01*
X190385207Y-82996062D01*
X190383908Y-83007009D01*
X190382436Y-83017798D01*
X190380791Y-83028428D01*
X190378973Y-83038899D01*
X190376982Y-83049212D01*
X190374817Y-83059367D01*
X190372479Y-83069363D01*
X190369968Y-83079201D01*
X190367284Y-83088880D01*
X190364427Y-83098401D01*
X190361397Y-83107763D01*
X190358193Y-83116966D01*
X190354817Y-83126011D01*
X190351267Y-83134898D01*
X190347544Y-83143626D01*
X190343647Y-83152196D01*
X190339578Y-83160607D01*
X190335336Y-83168860D01*
X190330920Y-83176954D01*
X190326331Y-83184890D01*
X190321569Y-83192667D01*
X190316634Y-83200286D01*
X190311525Y-83207746D01*
X190306244Y-83215047D01*
X190300789Y-83222191D01*
X190295788Y-83228468D01*
X190290723Y-83234546D01*
X190285593Y-83240425D01*
X190280399Y-83246105D01*
X190275140Y-83251585D01*
X190269817Y-83256866D01*
X190264430Y-83261947D01*
X190253462Y-83271513D01*
X190242236Y-83280281D01*
X190230753Y-83288253D01*
X190219012Y-83295427D01*
X190207014Y-83301804D01*
X190194758Y-83307384D01*
X190182244Y-83312167D01*
X190169473Y-83316152D01*
X190156444Y-83319341D01*
X190143157Y-83321732D01*
X190129613Y-83323326D01*
X190115812Y-83324124D01*
X190108814Y-83324223D01*
X190094857Y-83323825D01*
X190081151Y-83322629D01*
X190067695Y-83320636D01*
X190054489Y-83317846D01*
X190041534Y-83314259D01*
X190028830Y-83309875D01*
X190016375Y-83304694D01*
X190004172Y-83298715D01*
X189992218Y-83291939D01*
X189980515Y-83284367D01*
X189969063Y-83275997D01*
X189957861Y-83266830D01*
X189952354Y-83261947D01*
X189946909Y-83256866D01*
X189941527Y-83251585D01*
X189936208Y-83246105D01*
X189930951Y-83240425D01*
X189925757Y-83234546D01*
X189920626Y-83228468D01*
X189915557Y-83222191D01*
X189910091Y-83215042D01*
X189904799Y-83207725D01*
X189899680Y-83200239D01*
X189894735Y-83192584D01*
X189889963Y-83184760D01*
X189885364Y-83176767D01*
X189880940Y-83168606D01*
X189876688Y-83160275D01*
X189872610Y-83151776D01*
X189868706Y-83143108D01*
X189864975Y-83134270D01*
X189861418Y-83125264D01*
X189858035Y-83116090D01*
X189854824Y-83106746D01*
X189851788Y-83097233D01*
X189848925Y-83087552D01*
X189846235Y-83077702D01*
X189843719Y-83067682D01*
X189841376Y-83057494D01*
X189839207Y-83047137D01*
X189837212Y-83036611D01*
X189835390Y-83025917D01*
X189833742Y-83015053D01*
X189832267Y-83004021D01*
X189830965Y-82992819D01*
X189829837Y-82981449D01*
X189828883Y-82969910D01*
X189828102Y-82958202D01*
X189827495Y-82946326D01*
X189827061Y-82934280D01*
X189826801Y-82922065D01*
X189826719Y-82910415D01*
X189944683Y-82910415D01*
X189944728Y-82918751D01*
X189944863Y-82926998D01*
X189945089Y-82935156D01*
X189945404Y-82943224D01*
X189945810Y-82951204D01*
X189946306Y-82959095D01*
X189946892Y-82966896D01*
X189947568Y-82974609D01*
X189948335Y-82982232D01*
X189949191Y-82989766D01*
X189950138Y-82997211D01*
X189951175Y-83004567D01*
X189952302Y-83011834D01*
X189954826Y-83026101D01*
X189957711Y-83040012D01*
X189960957Y-83053566D01*
X189964563Y-83066763D01*
X189968530Y-83079605D01*
X189972858Y-83092090D01*
X189977546Y-83104218D01*
X189982595Y-83115991D01*
X189988005Y-83127407D01*
X189990845Y-83132981D01*
X189996669Y-83143540D01*
X190002692Y-83153417D01*
X190008914Y-83162614D01*
X190015334Y-83171129D01*
X190021954Y-83178963D01*
X190028772Y-83186115D01*
X190035790Y-83192587D01*
X190043006Y-83198377D01*
X190050421Y-83203486D01*
X190058036Y-83207914D01*
X190065849Y-83211661D01*
X190073861Y-83214726D01*
X190082072Y-83217110D01*
X190090482Y-83218813D01*
X190099091Y-83219835D01*
X190107898Y-83220176D01*
X190116642Y-83219835D01*
X190125195Y-83218813D01*
X190133558Y-83217110D01*
X190141730Y-83214726D01*
X190149712Y-83211661D01*
X190157504Y-83207914D01*
X190165105Y-83203486D01*
X190172516Y-83198377D01*
X190179737Y-83192587D01*
X190186767Y-83186115D01*
X190193607Y-83178963D01*
X190200257Y-83171129D01*
X190206716Y-83162614D01*
X190212985Y-83153417D01*
X190219064Y-83143540D01*
X190224952Y-83132981D01*
X190230586Y-83121997D01*
X190235857Y-83110659D01*
X190240764Y-83098967D01*
X190245308Y-83086922D01*
X190249488Y-83074524D01*
X190253305Y-83061772D01*
X190256758Y-83048666D01*
X190259848Y-83035208D01*
X190262574Y-83021395D01*
X190264937Y-83007229D01*
X190266936Y-82992710D01*
X190267800Y-82985318D01*
X190268572Y-82977837D01*
X190269254Y-82970268D01*
X190269844Y-82962611D01*
X190270344Y-82954865D01*
X190270753Y-82947031D01*
X190271071Y-82939109D01*
X190271298Y-82931098D01*
X190271435Y-82922999D01*
X190271480Y-82914811D01*
X190271435Y-82906600D01*
X190271298Y-82898478D01*
X190271071Y-82890443D01*
X190270753Y-82882497D01*
X190270344Y-82874638D01*
X190269844Y-82866867D01*
X190269254Y-82859185D01*
X190268572Y-82851590D01*
X190267800Y-82844084D01*
X190266936Y-82836665D01*
X190265982Y-82829335D01*
X190263801Y-82814938D01*
X190261257Y-82800893D01*
X190258349Y-82787200D01*
X190255077Y-82773859D01*
X190251442Y-82760870D01*
X190247444Y-82748234D01*
X190243081Y-82735949D01*
X190238356Y-82724017D01*
X190233267Y-82712436D01*
X190227814Y-82701207D01*
X190224952Y-82695725D01*
X190219064Y-82685233D01*
X190212985Y-82675418D01*
X190206716Y-82666279D01*
X190200257Y-82657818D01*
X190193607Y-82650033D01*
X190186767Y-82642926D01*
X190179737Y-82636495D01*
X190172516Y-82630741D01*
X190165105Y-82625665D01*
X190157504Y-82621265D01*
X190149712Y-82617542D01*
X190141730Y-82614495D01*
X190133558Y-82612126D01*
X190125195Y-82610434D01*
X190116642Y-82609419D01*
X190107898Y-82609080D01*
X190099199Y-82609419D01*
X190090688Y-82610434D01*
X190082364Y-82612126D01*
X190074227Y-82614495D01*
X190066278Y-82617542D01*
X190058517Y-82621265D01*
X190050942Y-82625665D01*
X190043556Y-82630741D01*
X190036357Y-82636495D01*
X190029345Y-82642926D01*
X190022521Y-82650033D01*
X190015884Y-82657818D01*
X190009434Y-82666279D01*
X190003173Y-82675418D01*
X189997098Y-82685233D01*
X189991211Y-82695725D01*
X189985577Y-82706632D01*
X189980306Y-82717873D01*
X189975399Y-82729449D01*
X189970855Y-82741360D01*
X189966675Y-82753607D01*
X189962858Y-82766187D01*
X189959405Y-82779103D01*
X189956315Y-82792354D01*
X189953589Y-82805939D01*
X189951226Y-82819860D01*
X189949227Y-82834115D01*
X189947591Y-82848705D01*
X189946910Y-82856126D01*
X189946319Y-82863630D01*
X189945819Y-82871218D01*
X189945410Y-82878890D01*
X189945092Y-82886646D01*
X189944865Y-82894485D01*
X189944729Y-82902408D01*
X189944683Y-82910415D01*
X189826719Y-82910415D01*
X189826714Y-82909682D01*
X189826801Y-82897907D01*
X189827061Y-82886283D01*
X189827495Y-82874808D01*
X189828102Y-82863483D01*
X189828883Y-82852308D01*
X189829837Y-82841283D01*
X189830965Y-82830408D01*
X189832267Y-82819682D01*
X189833742Y-82809107D01*
X189835390Y-82798681D01*
X189837212Y-82788406D01*
X189839207Y-82778280D01*
X189841376Y-82768305D01*
X189843719Y-82758479D01*
X189846235Y-82748803D01*
X189848925Y-82739277D01*
X189851788Y-82729901D01*
X189854824Y-82720675D01*
X189858035Y-82711598D01*
X189861418Y-82702672D01*
X189864975Y-82693895D01*
X189868706Y-82685269D01*
X189872610Y-82676792D01*
X189876688Y-82668465D01*
X189880940Y-82660289D01*
X189885364Y-82652262D01*
X189889963Y-82644385D01*
X189894735Y-82636658D01*
X189899680Y-82629080D01*
X189904799Y-82621653D01*
X189910091Y-82614376D01*
X189915557Y-82607248D01*
X189920559Y-82600960D01*
X189925626Y-82594871D01*
X189930760Y-82588981D01*
X189935959Y-82583291D01*
X189941224Y-82577801D01*
X189946555Y-82572511D01*
X189951952Y-82567420D01*
X189957414Y-82562529D01*
X189968537Y-82553346D01*
X189979923Y-82544961D01*
X189991572Y-82537374D01*
X190003485Y-82530587D01*
X190015661Y-82524597D01*
X190028100Y-82519407D01*
X190040802Y-82515015D01*
X190053768Y-82511421D01*
X190066997Y-82508626D01*
X190080490Y-82506630D01*
X190094246Y-82505432D01*
X190108265Y-82505033D01*
X190122262Y-82505432D01*
G37*
G36*
X190521341Y-83253332D02*
G01*
X190521846Y-83244647D01*
X190523362Y-83236337D01*
X190525889Y-83228404D01*
X190529426Y-83220845D01*
X190533975Y-83213663D01*
X190539534Y-83206856D01*
X190542040Y-83204239D01*
X190548758Y-83198276D01*
X190555861Y-83193323D01*
X190563348Y-83189381D01*
X190571220Y-83186450D01*
X190579477Y-83184530D01*
X190588118Y-83183620D01*
X190591682Y-83183539D01*
X190600526Y-83184045D01*
X190608967Y-83185561D01*
X190617005Y-83188088D01*
X190624641Y-83191625D01*
X190631874Y-83196173D01*
X190638705Y-83201732D01*
X190641325Y-83204239D01*
X190647288Y-83210909D01*
X190652241Y-83217981D01*
X190656182Y-83225456D01*
X190659114Y-83233333D01*
X190661034Y-83241613D01*
X190661944Y-83250296D01*
X190662024Y-83253881D01*
X190661519Y-83262830D01*
X190660003Y-83271359D01*
X190657476Y-83279467D01*
X190653939Y-83287155D01*
X190649390Y-83294422D01*
X190643831Y-83301269D01*
X190641325Y-83303890D01*
X190634800Y-83309748D01*
X190627819Y-83314613D01*
X190620381Y-83318485D01*
X190612488Y-83321364D01*
X190604138Y-83323250D01*
X190595333Y-83324144D01*
X190591682Y-83324223D01*
X190582584Y-83323731D01*
X190573951Y-83322255D01*
X190565783Y-83319796D01*
X190558080Y-83316352D01*
X190550842Y-83311925D01*
X190544069Y-83306513D01*
X190541491Y-83304073D01*
X190535686Y-83297473D01*
X190530865Y-83290381D01*
X190527027Y-83282797D01*
X190524174Y-83274721D01*
X190522305Y-83266153D01*
X190521419Y-83257093D01*
X190521341Y-83253332D01*
G37*
G36*
X190948521Y-82632527D02*
G01*
X190811684Y-82632527D01*
X190877263Y-82515291D01*
X191066491Y-82515291D01*
X191066491Y-83318361D01*
X190948521Y-83318361D01*
X190948521Y-82632527D01*
G37*
D11*
%TO.C,SW1*%
X174708700Y-78398900D02*
X174708700Y-79398900D01*
X174708700Y-78398900D02*
X175708700Y-78398900D01*
X174708700Y-92398900D02*
X174708700Y-91398900D01*
X175708700Y-92398900D02*
X174708700Y-92398900D01*
X188708700Y-78398900D02*
X187708700Y-78398900D01*
X188708700Y-79398900D02*
X188708700Y-78398900D01*
X188708700Y-91398900D02*
X188708700Y-92398900D01*
X188708700Y-92398900D02*
X187708700Y-92398900D01*
D12*
%TO.C,D1*%
X178270000Y-93427200D02*
X177870000Y-93427200D01*
X177870000Y-93427200D02*
X177870000Y-92877200D01*
X177870000Y-93427200D02*
X177870000Y-93977200D01*
X177870000Y-93427200D02*
X177270000Y-93827200D01*
X177270000Y-93027200D02*
X177870000Y-93427200D01*
X177270000Y-93427200D02*
X176770000Y-93427200D01*
X177270000Y-93827200D02*
X177270000Y-93027200D01*
%TD*%
M02*
