%TF.GenerationSoftware,KiCad,Pcbnew,(7.0.0-0)*%
%TF.CreationDate,2023-04-16T17:27:38-07:00*%
%TF.ProjectId,Amoeba_executive,416d6f65-6261-45f6-9578-656375746976,rev?*%
%TF.SameCoordinates,Original*%
%TF.FileFunction,Legend,Bot*%
%TF.FilePolarity,Positive*%
%FSLAX46Y46*%
G04 Gerber Fmt 4.6, Leading zero omitted, Abs format (unit mm)*
G04 Created by KiCad (PCBNEW (7.0.0-0)) date 2023-04-16 17:27:38*
%MOMM*%
%LPD*%
G01*
G04 APERTURE LIST*
%ADD10C,0.070000*%
%ADD11C,0.150000*%
%ADD12C,0.062500*%
%ADD13C,0.087500*%
%ADD14C,0.125000*%
%ADD15C,0.120000*%
%ADD16C,0.100000*%
%ADD17C,1.750000*%
G04 APERTURE END LIST*
D10*
G36*
X181637083Y-78488469D02*
G01*
X181534928Y-78745779D01*
X181431320Y-78488469D01*
X181370284Y-78488469D01*
X181536125Y-78887598D01*
X181698119Y-78488469D01*
X181637083Y-78488469D01*
G37*
G36*
X181324891Y-78860500D02*
G01*
X181248639Y-78860500D01*
X181245159Y-78860489D01*
X181241729Y-78860459D01*
X181235019Y-78860338D01*
X181228508Y-78860136D01*
X181222197Y-78859853D01*
X181216086Y-78859489D01*
X181210174Y-78859045D01*
X181204463Y-78858520D01*
X181198951Y-78857914D01*
X181193638Y-78857227D01*
X181188525Y-78856459D01*
X181183612Y-78855610D01*
X181178899Y-78854681D01*
X181174385Y-78853671D01*
X181170071Y-78852580D01*
X181165957Y-78851408D01*
X181162042Y-78850156D01*
X181157961Y-78848790D01*
X181153903Y-78847299D01*
X181149867Y-78845683D01*
X181145854Y-78843942D01*
X181141863Y-78842076D01*
X181137896Y-78840086D01*
X181133951Y-78837971D01*
X181130028Y-78835730D01*
X181126129Y-78833365D01*
X181122252Y-78830875D01*
X181118398Y-78828260D01*
X181114566Y-78825520D01*
X181110757Y-78822655D01*
X181106971Y-78819666D01*
X181103208Y-78816551D01*
X181099467Y-78813312D01*
X181095812Y-78809967D01*
X181092273Y-78806558D01*
X181088850Y-78803086D01*
X181085543Y-78799549D01*
X181082352Y-78795948D01*
X181079277Y-78792282D01*
X181076318Y-78788553D01*
X181073475Y-78784760D01*
X181070748Y-78780902D01*
X181068137Y-78776981D01*
X181065642Y-78772995D01*
X181063263Y-78768945D01*
X181061000Y-78764831D01*
X181058854Y-78760653D01*
X181056823Y-78756411D01*
X181054908Y-78752105D01*
X181053110Y-78747734D01*
X181051427Y-78743300D01*
X181049861Y-78738801D01*
X181048410Y-78734238D01*
X181047076Y-78729611D01*
X181045857Y-78724920D01*
X181044755Y-78720165D01*
X181043769Y-78715346D01*
X181042898Y-78710463D01*
X181042144Y-78705515D01*
X181041506Y-78700504D01*
X181040984Y-78695428D01*
X181040578Y-78690288D01*
X181040287Y-78685084D01*
X181040113Y-78679816D01*
X181040056Y-78674570D01*
X181095108Y-78674570D01*
X181095148Y-78678282D01*
X181095270Y-78681951D01*
X181095472Y-78685576D01*
X181095755Y-78689157D01*
X181096120Y-78692694D01*
X181096565Y-78696187D01*
X181097092Y-78699636D01*
X181097699Y-78703041D01*
X181099157Y-78709720D01*
X181100938Y-78716224D01*
X181103043Y-78722551D01*
X181105473Y-78728703D01*
X181108226Y-78734679D01*
X181111303Y-78740480D01*
X181114704Y-78746105D01*
X181118429Y-78751554D01*
X181122478Y-78756828D01*
X181126851Y-78761926D01*
X181131547Y-78766848D01*
X181134017Y-78769244D01*
X181136568Y-78771595D01*
X181139109Y-78773812D01*
X181142991Y-78776994D01*
X181146960Y-78780005D01*
X181151014Y-78782844D01*
X181155153Y-78785512D01*
X181159378Y-78788009D01*
X181163689Y-78790335D01*
X181168086Y-78792489D01*
X181172568Y-78794472D01*
X181177136Y-78796284D01*
X181181789Y-78797924D01*
X181183367Y-78798408D01*
X181188249Y-78799768D01*
X181191627Y-78800597D01*
X181195104Y-78801365D01*
X181198679Y-78802072D01*
X181202354Y-78802717D01*
X181206127Y-78803301D01*
X181210000Y-78803823D01*
X181213971Y-78804284D01*
X181218040Y-78804683D01*
X181222209Y-78805021D01*
X181226477Y-78805298D01*
X181230843Y-78805513D01*
X181235308Y-78805666D01*
X181239872Y-78805758D01*
X181244535Y-78805789D01*
X181269839Y-78805789D01*
X181269839Y-78543179D01*
X181244535Y-78543179D01*
X181240087Y-78543212D01*
X181235707Y-78543310D01*
X181231395Y-78543474D01*
X181227151Y-78543703D01*
X181222976Y-78543997D01*
X181218869Y-78544357D01*
X181214830Y-78544783D01*
X181210860Y-78545274D01*
X181206958Y-78545830D01*
X181203124Y-78546452D01*
X181199358Y-78547139D01*
X181195661Y-78547892D01*
X181192032Y-78548710D01*
X181188471Y-78549593D01*
X181184979Y-78550542D01*
X181181554Y-78551557D01*
X181178198Y-78552637D01*
X181174911Y-78553782D01*
X181168541Y-78556269D01*
X181162443Y-78559018D01*
X181156619Y-78562029D01*
X181151069Y-78565301D01*
X181145791Y-78568835D01*
X181140786Y-78572631D01*
X181136055Y-78576689D01*
X181133536Y-78579052D01*
X181131097Y-78581459D01*
X181126458Y-78586409D01*
X181122139Y-78591539D01*
X181118141Y-78596848D01*
X181114462Y-78602336D01*
X181111103Y-78608005D01*
X181108064Y-78613853D01*
X181105344Y-78619881D01*
X181102945Y-78626088D01*
X181100866Y-78632475D01*
X181099106Y-78639042D01*
X181098347Y-78642392D01*
X181097667Y-78645788D01*
X181097067Y-78649228D01*
X181096547Y-78652714D01*
X181096107Y-78656244D01*
X181095747Y-78659819D01*
X181095468Y-78663440D01*
X181095268Y-78667105D01*
X181095148Y-78670815D01*
X181095108Y-78674570D01*
X181040056Y-78674570D01*
X181040055Y-78674484D01*
X181040111Y-78669168D01*
X181040278Y-78663917D01*
X181040556Y-78658730D01*
X181040946Y-78653608D01*
X181041447Y-78648551D01*
X181042060Y-78643558D01*
X181042784Y-78638630D01*
X181043619Y-78633767D01*
X181044566Y-78628968D01*
X181045624Y-78624233D01*
X181046793Y-78619564D01*
X181048074Y-78614959D01*
X181049466Y-78610418D01*
X181050969Y-78605942D01*
X181052584Y-78601531D01*
X181054310Y-78597184D01*
X181056147Y-78592902D01*
X181058096Y-78588685D01*
X181060157Y-78584532D01*
X181062328Y-78580444D01*
X181064611Y-78576420D01*
X181067005Y-78572461D01*
X181069511Y-78568567D01*
X181072128Y-78564737D01*
X181074857Y-78560972D01*
X181077696Y-78557272D01*
X181080648Y-78553636D01*
X181083710Y-78550065D01*
X181086884Y-78546558D01*
X181090169Y-78543116D01*
X181093566Y-78539739D01*
X181097074Y-78536426D01*
X181100625Y-78533236D01*
X181104225Y-78530164D01*
X181107875Y-78527210D01*
X181111574Y-78524372D01*
X181115323Y-78521653D01*
X181119121Y-78519051D01*
X181122968Y-78516567D01*
X181126865Y-78514200D01*
X181130812Y-78511950D01*
X181134807Y-78509819D01*
X181138853Y-78507804D01*
X181142947Y-78505908D01*
X181147091Y-78504129D01*
X181151285Y-78502467D01*
X181155528Y-78500923D01*
X181159820Y-78499496D01*
X181161857Y-78498818D01*
X181166068Y-78497526D01*
X181170461Y-78496319D01*
X181175036Y-78495199D01*
X181179794Y-78494166D01*
X181184734Y-78493218D01*
X181189857Y-78492356D01*
X181195161Y-78491581D01*
X181200648Y-78490892D01*
X181206318Y-78490289D01*
X181212169Y-78489772D01*
X181218203Y-78489341D01*
X181224420Y-78488996D01*
X181230819Y-78488738D01*
X181237400Y-78488566D01*
X181244163Y-78488480D01*
X181247613Y-78488469D01*
X181324891Y-78488469D01*
X181324891Y-78860500D01*
G37*
G36*
X180969274Y-78860500D02*
G01*
X180893021Y-78860500D01*
X180889541Y-78860489D01*
X180886111Y-78860459D01*
X180879401Y-78860338D01*
X180872890Y-78860136D01*
X180866580Y-78859853D01*
X180860468Y-78859489D01*
X180854557Y-78859045D01*
X180848845Y-78858520D01*
X180843333Y-78857914D01*
X180838021Y-78857227D01*
X180832908Y-78856459D01*
X180827995Y-78855610D01*
X180823281Y-78854681D01*
X180818768Y-78853671D01*
X180814454Y-78852580D01*
X180810339Y-78851408D01*
X180806425Y-78850156D01*
X180802344Y-78848790D01*
X180798285Y-78847299D01*
X180794249Y-78845683D01*
X180790236Y-78843942D01*
X180786246Y-78842076D01*
X180782278Y-78840086D01*
X180778333Y-78837971D01*
X180774411Y-78835730D01*
X180770511Y-78833365D01*
X180766634Y-78830875D01*
X180762780Y-78828260D01*
X180758949Y-78825520D01*
X180755140Y-78822655D01*
X180751354Y-78819666D01*
X180747590Y-78816551D01*
X180743850Y-78813312D01*
X180740195Y-78809967D01*
X180736655Y-78806558D01*
X180733232Y-78803086D01*
X180729925Y-78799549D01*
X180726734Y-78795948D01*
X180723659Y-78792282D01*
X180720700Y-78788553D01*
X180717857Y-78784760D01*
X180715130Y-78780902D01*
X180712519Y-78776981D01*
X180710024Y-78772995D01*
X180707646Y-78768945D01*
X180705383Y-78764831D01*
X180703236Y-78760653D01*
X180701205Y-78756411D01*
X180699291Y-78752105D01*
X180697492Y-78747734D01*
X180695810Y-78743300D01*
X180694243Y-78738801D01*
X180692793Y-78734238D01*
X180691458Y-78729611D01*
X180690240Y-78724920D01*
X180689137Y-78720165D01*
X180688151Y-78715346D01*
X180687281Y-78710463D01*
X180686526Y-78705515D01*
X180685888Y-78700504D01*
X180685366Y-78695428D01*
X180684960Y-78690288D01*
X180684670Y-78685084D01*
X180684496Y-78679816D01*
X180684439Y-78674570D01*
X180739490Y-78674570D01*
X180739531Y-78678282D01*
X180739652Y-78681951D01*
X180739854Y-78685576D01*
X180740138Y-78689157D01*
X180740502Y-78692694D01*
X180740948Y-78696187D01*
X180741474Y-78699636D01*
X180742081Y-78703041D01*
X180743539Y-78709720D01*
X180745320Y-78716224D01*
X180747426Y-78722551D01*
X180749855Y-78728703D01*
X180752608Y-78734679D01*
X180755685Y-78740480D01*
X180759087Y-78746105D01*
X180762811Y-78751554D01*
X180766860Y-78756828D01*
X180771233Y-78761926D01*
X180775930Y-78766848D01*
X180778400Y-78769244D01*
X180780950Y-78771595D01*
X180783491Y-78773812D01*
X180787374Y-78776994D01*
X180791342Y-78780005D01*
X180795396Y-78782844D01*
X180799536Y-78785512D01*
X180803761Y-78788009D01*
X180808072Y-78790335D01*
X180812468Y-78792489D01*
X180816951Y-78794472D01*
X180821518Y-78796284D01*
X180826172Y-78797924D01*
X180827750Y-78798408D01*
X180832631Y-78799768D01*
X180836009Y-78800597D01*
X180839486Y-78801365D01*
X180843062Y-78802072D01*
X180846736Y-78802717D01*
X180850510Y-78803301D01*
X180854382Y-78803823D01*
X180858353Y-78804284D01*
X180862423Y-78804683D01*
X180866592Y-78805021D01*
X180870859Y-78805298D01*
X180875226Y-78805513D01*
X180879691Y-78805666D01*
X180884255Y-78805758D01*
X180888918Y-78805789D01*
X180914221Y-78805789D01*
X180914221Y-78543179D01*
X180888918Y-78543179D01*
X180884469Y-78543212D01*
X180880089Y-78543310D01*
X180875777Y-78543474D01*
X180871534Y-78543703D01*
X180867358Y-78543997D01*
X180863251Y-78544357D01*
X180859213Y-78544783D01*
X180855242Y-78545274D01*
X180851340Y-78545830D01*
X180847506Y-78546452D01*
X180843740Y-78547139D01*
X180840043Y-78547892D01*
X180836414Y-78548710D01*
X180832853Y-78549593D01*
X180829361Y-78550542D01*
X180825937Y-78551557D01*
X180822581Y-78552637D01*
X180819293Y-78553782D01*
X180812923Y-78556269D01*
X180806826Y-78559018D01*
X180801002Y-78562029D01*
X180795451Y-78565301D01*
X180790173Y-78568835D01*
X180785169Y-78572631D01*
X180780437Y-78576689D01*
X180777918Y-78579052D01*
X180775479Y-78581459D01*
X180770840Y-78586409D01*
X180766522Y-78591539D01*
X180762523Y-78596848D01*
X180758844Y-78602336D01*
X180755485Y-78608005D01*
X180752446Y-78613853D01*
X180749727Y-78619881D01*
X180747328Y-78626088D01*
X180745248Y-78632475D01*
X180743489Y-78639042D01*
X180742729Y-78642392D01*
X180742049Y-78645788D01*
X180741449Y-78649228D01*
X180740930Y-78652714D01*
X180740490Y-78656244D01*
X180740130Y-78659819D01*
X180739850Y-78663440D01*
X180739650Y-78667105D01*
X180739530Y-78670815D01*
X180739490Y-78674570D01*
X180684439Y-78674570D01*
X180684438Y-78674484D01*
X180684493Y-78669168D01*
X180684660Y-78663917D01*
X180684939Y-78658730D01*
X180685329Y-78653608D01*
X180685830Y-78648551D01*
X180686442Y-78643558D01*
X180687166Y-78638630D01*
X180688001Y-78633767D01*
X180688948Y-78628968D01*
X180690006Y-78624233D01*
X180691175Y-78619564D01*
X180692456Y-78614959D01*
X180693848Y-78610418D01*
X180695351Y-78605942D01*
X180696966Y-78601531D01*
X180698692Y-78597184D01*
X180700530Y-78592902D01*
X180702479Y-78588685D01*
X180704539Y-78584532D01*
X180706711Y-78580444D01*
X180708994Y-78576420D01*
X180711388Y-78572461D01*
X180713894Y-78568567D01*
X180716511Y-78564737D01*
X180719239Y-78560972D01*
X180722079Y-78557272D01*
X180725030Y-78553636D01*
X180728093Y-78550065D01*
X180731266Y-78546558D01*
X180734552Y-78543116D01*
X180737948Y-78539739D01*
X180741456Y-78536426D01*
X180745007Y-78533236D01*
X180748608Y-78530164D01*
X180752257Y-78527210D01*
X180755957Y-78524372D01*
X180759705Y-78521653D01*
X180763503Y-78519051D01*
X180767351Y-78516567D01*
X180771248Y-78514200D01*
X180775194Y-78511950D01*
X180779190Y-78509819D01*
X180783235Y-78507804D01*
X180787330Y-78505908D01*
X180791474Y-78504129D01*
X180795667Y-78502467D01*
X180799910Y-78500923D01*
X180804202Y-78499496D01*
X180806239Y-78498818D01*
X180810450Y-78497526D01*
X180814843Y-78496319D01*
X180819419Y-78495199D01*
X180824176Y-78494166D01*
X180829117Y-78493218D01*
X180834239Y-78492356D01*
X180839544Y-78491581D01*
X180845031Y-78490892D01*
X180850700Y-78490289D01*
X180856552Y-78489772D01*
X180862586Y-78489341D01*
X180868802Y-78488996D01*
X180875201Y-78488738D01*
X180881782Y-78488566D01*
X180888545Y-78488480D01*
X180891995Y-78488469D01*
X180969274Y-78488469D01*
X180969274Y-78860500D01*
G37*
G36*
X180484403Y-78690897D02*
G01*
X180484403Y-78647129D01*
X180380453Y-78647129D01*
X180380453Y-78543179D01*
X180336685Y-78543179D01*
X180336685Y-78647129D01*
X180227264Y-78647129D01*
X180227264Y-78690897D01*
X180336685Y-78690897D01*
X180336685Y-78794847D01*
X180380453Y-78794847D01*
X180380453Y-78690897D01*
X180484403Y-78690897D01*
G37*
D11*
X174770000Y-77160000D02*
G75*
G03*
X172250000Y-77160000I-1260000J0D01*
G01*
X178760000Y-75870000D02*
X183570000Y-75870000D01*
X174770000Y-77160000D02*
X174770000Y-81970000D01*
X186360000Y-75920000D02*
X188750000Y-75920000D01*
X174730000Y-84765000D02*
X174730000Y-87155000D01*
X172210000Y-87155000D02*
G75*
G03*
X174730000Y-87155000I1260000J0D01*
G01*
X186360000Y-75920000D02*
G75*
G03*
X186360000Y-78440000I0J-1260000D01*
G01*
X183570000Y-78390000D02*
X178760000Y-78390000D01*
X172250000Y-81970000D02*
X172250000Y-77160000D01*
X188750000Y-78440000D02*
G75*
G03*
X188750000Y-75920000I0J1260000D01*
G01*
X172250000Y-81970000D02*
G75*
G03*
X174770000Y-81970000I1260000J0D01*
G01*
X188750000Y-78440000D02*
X186360000Y-78440000D01*
X183570000Y-78390000D02*
G75*
G03*
X183570000Y-75870000I0J1260000D01*
G01*
X178760000Y-75870000D02*
G75*
G03*
X178760000Y-78390000I0J-1260000D01*
G01*
X174730000Y-84765000D02*
G75*
G03*
X172210000Y-84765000I-1260000J0D01*
G01*
X172210000Y-87155000D02*
X172210000Y-84765000D01*
D12*
G36*
X175255052Y-78405789D02*
G01*
X175229748Y-78405789D01*
X175225085Y-78405758D01*
X175220521Y-78405666D01*
X175216056Y-78405513D01*
X175211690Y-78405298D01*
X175207422Y-78405021D01*
X175203253Y-78404683D01*
X175199183Y-78404284D01*
X175195212Y-78403823D01*
X175191340Y-78403301D01*
X175187567Y-78402717D01*
X175183892Y-78402072D01*
X175180317Y-78401365D01*
X175176840Y-78400597D01*
X175173462Y-78399768D01*
X175168580Y-78398408D01*
X175167002Y-78397924D01*
X175162349Y-78396284D01*
X175157781Y-78394472D01*
X175153299Y-78392489D01*
X175148902Y-78390335D01*
X175144591Y-78388009D01*
X175140366Y-78385512D01*
X175136226Y-78382844D01*
X175132172Y-78380005D01*
X175128204Y-78376994D01*
X175124322Y-78373812D01*
X175121781Y-78371595D01*
X175119230Y-78369244D01*
X175116760Y-78366848D01*
X175112063Y-78361926D01*
X175107691Y-78356828D01*
X175103642Y-78351554D01*
X175099917Y-78346105D01*
X175096516Y-78340480D01*
X175093439Y-78334679D01*
X175090686Y-78328703D01*
X175088256Y-78322551D01*
X175086151Y-78316224D01*
X175084369Y-78309720D01*
X175082912Y-78303041D01*
X175082304Y-78299636D01*
X175081778Y-78296187D01*
X175081333Y-78292694D01*
X175080968Y-78289157D01*
X175080685Y-78285576D01*
X175080482Y-78281951D01*
X175080361Y-78278282D01*
X175080321Y-78274570D01*
X175080360Y-78270815D01*
X175080480Y-78267105D01*
X175080680Y-78263440D01*
X175080960Y-78259819D01*
X175081320Y-78256244D01*
X175081760Y-78252714D01*
X175082280Y-78249228D01*
X175082880Y-78245788D01*
X175083560Y-78242392D01*
X175084319Y-78239042D01*
X175086079Y-78232475D01*
X175088158Y-78226088D01*
X175090557Y-78219881D01*
X175093276Y-78213853D01*
X175096316Y-78208005D01*
X175099675Y-78202336D01*
X175103353Y-78196848D01*
X175107352Y-78191539D01*
X175111671Y-78186409D01*
X175116309Y-78181459D01*
X175118749Y-78179052D01*
X175121268Y-78176689D01*
X175125999Y-78172631D01*
X175131004Y-78168835D01*
X175136281Y-78165301D01*
X175141832Y-78162029D01*
X175147656Y-78159018D01*
X175153753Y-78156269D01*
X175160124Y-78153782D01*
X175163411Y-78152637D01*
X175166767Y-78151557D01*
X175170191Y-78150542D01*
X175173684Y-78149593D01*
X175177245Y-78148710D01*
X175180874Y-78147892D01*
X175184571Y-78147139D01*
X175188336Y-78146452D01*
X175192170Y-78145830D01*
X175196073Y-78145274D01*
X175200043Y-78144783D01*
X175204082Y-78144357D01*
X175208189Y-78143997D01*
X175212364Y-78143703D01*
X175216608Y-78143474D01*
X175220920Y-78143310D01*
X175225300Y-78143212D01*
X175229748Y-78143179D01*
X175255052Y-78143179D01*
X175255052Y-78405789D01*
G37*
G36*
X176296394Y-78626818D02*
G01*
X174881518Y-78626818D01*
X174881518Y-78483068D01*
X175400376Y-78483068D01*
X175668457Y-78200027D01*
X175668457Y-78460500D01*
X175723510Y-78460500D01*
X175723510Y-78275937D01*
X175791556Y-78275937D01*
X175791594Y-78281178D01*
X175791709Y-78286344D01*
X175791901Y-78291434D01*
X175792170Y-78296448D01*
X175792516Y-78301388D01*
X175792938Y-78306251D01*
X175793437Y-78311039D01*
X175794013Y-78315752D01*
X175794666Y-78320389D01*
X175795396Y-78324951D01*
X175796202Y-78329437D01*
X175797085Y-78333848D01*
X175798046Y-78338183D01*
X175799082Y-78342443D01*
X175800196Y-78346628D01*
X175801386Y-78350737D01*
X175802635Y-78354483D01*
X175803986Y-78358201D01*
X175805440Y-78361889D01*
X175806996Y-78365547D01*
X175808656Y-78369176D01*
X175810418Y-78372776D01*
X175812284Y-78376346D01*
X175814252Y-78379887D01*
X175816323Y-78383399D01*
X175818497Y-78386881D01*
X175820774Y-78390334D01*
X175823153Y-78393757D01*
X175825635Y-78397151D01*
X175828221Y-78400516D01*
X175830909Y-78403851D01*
X175833700Y-78407157D01*
X175836943Y-78410775D01*
X175840242Y-78414279D01*
X175843595Y-78417668D01*
X175847002Y-78420941D01*
X175850464Y-78424100D01*
X175853981Y-78427144D01*
X175857552Y-78430074D01*
X175861178Y-78432888D01*
X175864858Y-78435587D01*
X175868593Y-78438172D01*
X175872383Y-78440642D01*
X175876227Y-78442996D01*
X175880126Y-78445236D01*
X175884079Y-78447362D01*
X175888088Y-78449372D01*
X175892150Y-78451267D01*
X175896267Y-78453048D01*
X175900439Y-78454713D01*
X175904666Y-78456264D01*
X175908947Y-78457700D01*
X175913282Y-78459021D01*
X175917672Y-78460227D01*
X175922117Y-78461318D01*
X175926617Y-78462295D01*
X175931171Y-78463156D01*
X175935779Y-78463903D01*
X175940442Y-78464535D01*
X175945160Y-78465052D01*
X175949933Y-78465454D01*
X175954760Y-78465741D01*
X175959641Y-78465913D01*
X175964577Y-78465971D01*
X175969401Y-78465915D01*
X175974182Y-78465749D01*
X175978919Y-78465472D01*
X175983612Y-78465084D01*
X175988262Y-78464585D01*
X175992869Y-78463975D01*
X175997431Y-78463254D01*
X176001950Y-78462423D01*
X176006426Y-78461481D01*
X176010858Y-78460427D01*
X176015246Y-78459263D01*
X176019591Y-78457988D01*
X176023892Y-78456603D01*
X176028150Y-78455106D01*
X176032364Y-78453498D01*
X176036534Y-78451780D01*
X176040661Y-78449951D01*
X176044745Y-78448011D01*
X176048784Y-78445960D01*
X176052780Y-78443798D01*
X176056733Y-78441525D01*
X176060642Y-78439142D01*
X176064508Y-78436647D01*
X176068329Y-78434042D01*
X176072108Y-78431326D01*
X176075842Y-78428499D01*
X176079534Y-78425561D01*
X176083181Y-78422512D01*
X176086785Y-78419352D01*
X176090345Y-78416082D01*
X176093862Y-78412701D01*
X176097336Y-78409209D01*
X176100738Y-78405628D01*
X176104033Y-78402003D01*
X176107220Y-78398334D01*
X176110299Y-78394620D01*
X176113269Y-78390862D01*
X176116132Y-78387059D01*
X176118886Y-78383212D01*
X176121533Y-78379321D01*
X176124072Y-78375385D01*
X176126502Y-78371405D01*
X176128825Y-78367380D01*
X176131039Y-78363311D01*
X176133146Y-78359198D01*
X176135144Y-78355040D01*
X176137035Y-78350837D01*
X176138817Y-78346591D01*
X176140491Y-78342300D01*
X176142058Y-78337964D01*
X176143516Y-78333584D01*
X176144867Y-78329160D01*
X176146109Y-78324691D01*
X176147243Y-78320178D01*
X176148269Y-78315620D01*
X176149188Y-78311018D01*
X176149998Y-78306372D01*
X176150700Y-78301681D01*
X176151294Y-78296946D01*
X176151780Y-78292166D01*
X176152158Y-78287342D01*
X176152428Y-78282474D01*
X176152590Y-78277561D01*
X176152644Y-78272603D01*
X176152589Y-78267536D01*
X176152425Y-78262517D01*
X176152150Y-78257546D01*
X176151765Y-78252624D01*
X176151271Y-78247750D01*
X176150667Y-78242925D01*
X176149953Y-78238148D01*
X176149129Y-78233419D01*
X176148195Y-78228739D01*
X176147151Y-78224107D01*
X176145998Y-78219524D01*
X176144734Y-78214989D01*
X176143361Y-78210503D01*
X176141878Y-78206065D01*
X176140285Y-78201675D01*
X176138582Y-78197334D01*
X176136769Y-78193041D01*
X176134847Y-78188797D01*
X176132814Y-78184601D01*
X176130672Y-78180453D01*
X176128420Y-78176354D01*
X176126058Y-78172304D01*
X176123586Y-78168301D01*
X176121004Y-78164347D01*
X176118313Y-78160442D01*
X176115511Y-78156585D01*
X176112600Y-78152776D01*
X176109579Y-78149016D01*
X176106448Y-78145304D01*
X176103207Y-78141641D01*
X176099856Y-78138026D01*
X176096395Y-78134460D01*
X176092856Y-78130957D01*
X176089269Y-78127565D01*
X176085635Y-78124285D01*
X176081954Y-78121116D01*
X176078225Y-78118058D01*
X176074448Y-78115111D01*
X176070624Y-78112276D01*
X176066753Y-78109552D01*
X176062835Y-78106938D01*
X176058869Y-78104436D01*
X176054855Y-78102046D01*
X176050794Y-78099766D01*
X176046686Y-78097598D01*
X176042530Y-78095541D01*
X176038327Y-78093595D01*
X176034077Y-78091760D01*
X176029779Y-78090036D01*
X176025433Y-78088424D01*
X176021040Y-78086923D01*
X176016600Y-78085533D01*
X176012113Y-78084254D01*
X176007578Y-78083087D01*
X176002995Y-78082030D01*
X175998365Y-78081085D01*
X175993688Y-78080251D01*
X175988963Y-78079528D01*
X175984191Y-78078917D01*
X175979372Y-78078416D01*
X175974505Y-78078027D01*
X175969590Y-78077749D01*
X175964628Y-78077582D01*
X175959619Y-78077527D01*
X175954224Y-78077598D01*
X175948875Y-78077811D01*
X175943571Y-78078167D01*
X175938312Y-78078665D01*
X175933099Y-78079305D01*
X175927931Y-78080087D01*
X175922809Y-78081012D01*
X175917732Y-78082079D01*
X175912700Y-78083288D01*
X175907714Y-78084639D01*
X175902773Y-78086133D01*
X175897878Y-78087769D01*
X175893028Y-78089547D01*
X175888223Y-78091467D01*
X175883464Y-78093530D01*
X175878750Y-78095735D01*
X175874267Y-78098089D01*
X175869793Y-78100621D01*
X175865329Y-78103330D01*
X175860873Y-78106218D01*
X175856427Y-78109282D01*
X175851991Y-78112525D01*
X175847564Y-78115945D01*
X175843146Y-78119543D01*
X175838737Y-78123318D01*
X175834338Y-78127271D01*
X175829948Y-78131402D01*
X175825568Y-78135710D01*
X175821197Y-78140196D01*
X175816835Y-78144860D01*
X175812483Y-78149701D01*
X175808140Y-78154720D01*
X175847976Y-78192675D01*
X175850848Y-78188957D01*
X175853759Y-78185356D01*
X175856709Y-78181874D01*
X175859698Y-78178510D01*
X175862725Y-78175264D01*
X175865791Y-78172136D01*
X175868896Y-78169125D01*
X175872040Y-78166233D01*
X175875222Y-78163459D01*
X175878443Y-78160803D01*
X175881703Y-78158266D01*
X175885001Y-78155846D01*
X175888339Y-78153544D01*
X175891715Y-78151360D01*
X175895129Y-78149294D01*
X175898583Y-78147347D01*
X175902075Y-78145517D01*
X175905606Y-78143805D01*
X175909176Y-78142212D01*
X175912784Y-78140736D01*
X175916431Y-78139379D01*
X175920117Y-78138139D01*
X175923842Y-78137018D01*
X175927605Y-78136014D01*
X175931407Y-78135129D01*
X175935248Y-78134362D01*
X175939127Y-78133713D01*
X175943046Y-78133181D01*
X175947003Y-78132768D01*
X175950999Y-78132473D01*
X175955033Y-78132296D01*
X175959106Y-78132237D01*
X175962764Y-78132277D01*
X175966384Y-78132395D01*
X175969967Y-78132593D01*
X175973513Y-78132870D01*
X175977022Y-78133226D01*
X175980494Y-78133662D01*
X175983929Y-78134176D01*
X175987327Y-78134770D01*
X175990688Y-78135442D01*
X175997298Y-78137025D01*
X176003760Y-78138924D01*
X176010074Y-78141140D01*
X176016240Y-78143673D01*
X176022257Y-78146522D01*
X176028126Y-78149688D01*
X176033847Y-78153170D01*
X176039420Y-78156968D01*
X176044844Y-78161084D01*
X176047500Y-78163260D01*
X176050120Y-78165516D01*
X176052702Y-78167850D01*
X176055248Y-78170264D01*
X176057756Y-78172757D01*
X176060207Y-78175261D01*
X176062580Y-78177804D01*
X176064875Y-78180387D01*
X176067093Y-78183009D01*
X176071294Y-78188370D01*
X176075184Y-78193888D01*
X176078763Y-78199563D01*
X176082031Y-78205395D01*
X176084988Y-78211384D01*
X176087633Y-78217530D01*
X176089967Y-78223833D01*
X176091990Y-78230292D01*
X176093702Y-78236909D01*
X176094441Y-78240276D01*
X176095102Y-78243683D01*
X176095686Y-78247129D01*
X176096191Y-78250613D01*
X176096619Y-78254138D01*
X176096970Y-78257701D01*
X176097242Y-78261304D01*
X176097436Y-78264946D01*
X176097553Y-78268627D01*
X176097592Y-78272347D01*
X176097549Y-78276194D01*
X176097419Y-78279998D01*
X176097202Y-78283759D01*
X176096899Y-78287477D01*
X176096509Y-78291152D01*
X176096032Y-78294784D01*
X176095469Y-78298373D01*
X176094819Y-78301919D01*
X176094082Y-78305423D01*
X176093259Y-78308884D01*
X176092349Y-78312301D01*
X176091353Y-78315676D01*
X176090270Y-78319008D01*
X176089100Y-78322297D01*
X176087843Y-78325543D01*
X176086500Y-78328746D01*
X176085070Y-78331906D01*
X176083554Y-78335023D01*
X176081951Y-78338098D01*
X176080261Y-78341129D01*
X176078485Y-78344118D01*
X176076622Y-78347063D01*
X176074672Y-78349966D01*
X176072636Y-78352826D01*
X176070513Y-78355643D01*
X176068303Y-78358417D01*
X176066007Y-78361148D01*
X176063624Y-78363836D01*
X176061154Y-78366481D01*
X176058598Y-78369084D01*
X176055955Y-78371643D01*
X176053225Y-78374160D01*
X176050622Y-78376442D01*
X176048005Y-78378652D01*
X176042731Y-78382855D01*
X176037402Y-78386768D01*
X176032020Y-78390391D01*
X176026583Y-78393724D01*
X176021092Y-78396768D01*
X176015547Y-78399521D01*
X176009948Y-78401985D01*
X176004295Y-78404159D01*
X175998588Y-78406043D01*
X175992827Y-78407637D01*
X175987012Y-78408941D01*
X175981142Y-78409956D01*
X175975219Y-78410680D01*
X175969241Y-78411115D01*
X175963210Y-78411260D01*
X175958081Y-78411154D01*
X175953019Y-78410834D01*
X175948024Y-78410301D01*
X175943094Y-78409556D01*
X175938230Y-78408597D01*
X175933433Y-78407425D01*
X175928701Y-78406041D01*
X175924036Y-78404443D01*
X175919437Y-78402632D01*
X175914904Y-78400608D01*
X175910437Y-78398371D01*
X175906036Y-78395921D01*
X175901701Y-78393258D01*
X175897433Y-78390382D01*
X175893230Y-78387293D01*
X175889094Y-78383990D01*
X175885094Y-78380518D01*
X175881320Y-78376961D01*
X175877774Y-78373318D01*
X175874455Y-78369592D01*
X175871363Y-78365780D01*
X175868498Y-78361883D01*
X175865860Y-78357902D01*
X175863449Y-78353836D01*
X175861265Y-78349685D01*
X175859308Y-78345449D01*
X175857578Y-78341128D01*
X175856075Y-78336723D01*
X175854800Y-78332232D01*
X175853751Y-78327657D01*
X175852930Y-78322997D01*
X175852336Y-78318252D01*
X175944745Y-78318252D01*
X175944745Y-78263542D01*
X175791556Y-78263542D01*
X175791556Y-78275937D01*
X175723510Y-78275937D01*
X175723510Y-78063251D01*
X175455429Y-78346975D01*
X175455429Y-78088469D01*
X175400376Y-78088469D01*
X175400376Y-78483068D01*
X174881518Y-78483068D01*
X174881518Y-78274484D01*
X175025268Y-78274484D01*
X175025269Y-78274570D01*
X175025326Y-78279816D01*
X175025500Y-78285084D01*
X175025790Y-78290288D01*
X175026196Y-78295428D01*
X175026719Y-78300504D01*
X175027357Y-78305515D01*
X175028111Y-78310463D01*
X175028981Y-78315346D01*
X175029968Y-78320165D01*
X175031070Y-78324920D01*
X175032289Y-78329611D01*
X175033623Y-78334238D01*
X175035073Y-78338801D01*
X175036640Y-78343300D01*
X175038323Y-78347734D01*
X175040121Y-78352105D01*
X175042036Y-78356411D01*
X175044067Y-78360653D01*
X175046213Y-78364831D01*
X175048476Y-78368945D01*
X175050855Y-78372995D01*
X175053350Y-78376981D01*
X175055961Y-78380902D01*
X175058687Y-78384760D01*
X175061530Y-78388553D01*
X175064489Y-78392282D01*
X175067564Y-78395948D01*
X175070756Y-78399549D01*
X175074063Y-78403086D01*
X175077486Y-78406558D01*
X175081025Y-78409967D01*
X175084680Y-78413312D01*
X175088421Y-78416551D01*
X175092184Y-78419666D01*
X175095970Y-78422655D01*
X175099779Y-78425520D01*
X175103610Y-78428260D01*
X175107465Y-78430875D01*
X175111342Y-78433365D01*
X175115241Y-78435730D01*
X175119163Y-78437971D01*
X175123108Y-78440086D01*
X175127076Y-78442076D01*
X175131067Y-78443942D01*
X175135080Y-78445683D01*
X175139115Y-78447299D01*
X175143174Y-78448790D01*
X175147255Y-78450156D01*
X175151170Y-78451408D01*
X175155284Y-78452580D01*
X175159598Y-78453671D01*
X175164112Y-78454681D01*
X175168825Y-78455610D01*
X175173738Y-78456459D01*
X175178851Y-78457227D01*
X175184163Y-78457914D01*
X175189676Y-78458520D01*
X175195387Y-78459045D01*
X175201299Y-78459489D01*
X175207410Y-78459853D01*
X175213721Y-78460136D01*
X175220231Y-78460338D01*
X175226942Y-78460459D01*
X175230372Y-78460489D01*
X175233852Y-78460500D01*
X175310104Y-78460500D01*
X175310104Y-78088469D01*
X175232826Y-78088469D01*
X175229376Y-78088480D01*
X175222612Y-78088566D01*
X175216031Y-78088738D01*
X175209633Y-78088996D01*
X175203416Y-78089341D01*
X175197382Y-78089772D01*
X175191531Y-78090289D01*
X175185861Y-78090892D01*
X175180374Y-78091581D01*
X175175069Y-78092356D01*
X175169947Y-78093218D01*
X175165007Y-78094166D01*
X175160249Y-78095199D01*
X175155674Y-78096319D01*
X175151280Y-78097526D01*
X175147070Y-78098818D01*
X175145033Y-78099496D01*
X175140740Y-78100923D01*
X175136498Y-78102467D01*
X175132304Y-78104129D01*
X175128160Y-78105908D01*
X175124065Y-78107804D01*
X175120020Y-78109819D01*
X175116025Y-78111950D01*
X175112078Y-78114200D01*
X175108181Y-78116567D01*
X175104334Y-78119051D01*
X175100536Y-78121653D01*
X175096787Y-78124372D01*
X175093088Y-78127210D01*
X175089438Y-78130164D01*
X175085838Y-78133236D01*
X175082287Y-78136426D01*
X175078779Y-78139739D01*
X175075382Y-78143116D01*
X175072097Y-78146558D01*
X175068923Y-78150065D01*
X175065860Y-78153636D01*
X175062909Y-78157272D01*
X175060069Y-78160972D01*
X175057341Y-78164737D01*
X175054724Y-78168567D01*
X175052218Y-78172461D01*
X175049824Y-78176420D01*
X175047541Y-78180444D01*
X175045369Y-78184532D01*
X175043309Y-78188685D01*
X175041360Y-78192902D01*
X175039523Y-78197184D01*
X175037797Y-78201531D01*
X175036182Y-78205942D01*
X175034678Y-78210418D01*
X175033286Y-78214959D01*
X175032006Y-78219564D01*
X175030836Y-78224233D01*
X175029778Y-78228968D01*
X175028832Y-78233767D01*
X175027997Y-78238630D01*
X175027273Y-78243558D01*
X175026660Y-78248551D01*
X175026159Y-78253608D01*
X175025769Y-78258730D01*
X175025491Y-78263917D01*
X175025324Y-78269168D01*
X175025268Y-78274484D01*
X174881518Y-78274484D01*
X174881518Y-77919501D01*
X176296394Y-77919501D01*
X176296394Y-78626818D01*
G37*
D13*
G36*
X175964314Y-82072276D02*
G01*
X175967862Y-82072394D01*
X175971375Y-82072591D01*
X175974853Y-82072866D01*
X175978295Y-82073220D01*
X175981703Y-82073653D01*
X175988412Y-82074754D01*
X175994980Y-82076169D01*
X176001407Y-82077899D01*
X176007693Y-82079944D01*
X176013838Y-82082303D01*
X176019842Y-82084977D01*
X176025706Y-82087965D01*
X176031428Y-82091268D01*
X176037010Y-82094885D01*
X176042450Y-82098817D01*
X176047750Y-82103064D01*
X176050347Y-82105305D01*
X176052909Y-82107625D01*
X176055436Y-82110023D01*
X176057927Y-82112501D01*
X176060367Y-82115008D01*
X176062730Y-82117553D01*
X176065016Y-82120134D01*
X176067223Y-82122751D01*
X176071407Y-82128094D01*
X176075280Y-82133583D01*
X176078844Y-82139218D01*
X176082098Y-82144998D01*
X176085042Y-82150924D01*
X176087676Y-82156995D01*
X176090000Y-82163213D01*
X176092014Y-82169575D01*
X176093718Y-82176083D01*
X176095113Y-82182737D01*
X176095694Y-82186119D01*
X176096197Y-82189537D01*
X176096624Y-82192991D01*
X176096972Y-82196482D01*
X176097243Y-82200009D01*
X176097437Y-82203572D01*
X176097553Y-82207172D01*
X176097592Y-82210808D01*
X176097552Y-82214618D01*
X176097432Y-82218385D01*
X176097231Y-82222110D01*
X176096951Y-82225792D01*
X176096590Y-82229432D01*
X176096149Y-82233030D01*
X176095628Y-82236585D01*
X176095027Y-82240098D01*
X176094346Y-82243568D01*
X176093585Y-82246996D01*
X176092743Y-82250381D01*
X176091822Y-82253724D01*
X176090820Y-82257025D01*
X176089738Y-82260283D01*
X176087334Y-82266673D01*
X176084609Y-82272892D01*
X176081564Y-82278943D01*
X176078198Y-82284823D01*
X176074511Y-82290534D01*
X176070504Y-82296075D01*
X176068380Y-82298782D01*
X176066176Y-82301446D01*
X176063892Y-82304069D01*
X176061528Y-82306648D01*
X176059084Y-82309186D01*
X176056559Y-82311681D01*
X176053993Y-82314116D01*
X176051402Y-82316473D01*
X176048786Y-82318754D01*
X176046146Y-82320957D01*
X176040791Y-82325131D01*
X176035338Y-82328997D01*
X176029785Y-82332553D01*
X176024134Y-82335799D01*
X176018383Y-82338737D01*
X176012534Y-82341365D01*
X176006587Y-82343684D01*
X176000540Y-82345694D01*
X175994394Y-82347395D01*
X175988150Y-82348786D01*
X175981807Y-82349869D01*
X175975364Y-82350642D01*
X175968824Y-82351106D01*
X175962184Y-82351260D01*
X175958574Y-82351221D01*
X175954999Y-82351103D01*
X175951460Y-82350906D01*
X175947957Y-82350631D01*
X175944489Y-82350277D01*
X175941057Y-82349845D01*
X175937661Y-82349333D01*
X175930974Y-82348075D01*
X175924430Y-82346502D01*
X175918028Y-82344615D01*
X175911768Y-82342413D01*
X175905651Y-82339897D01*
X175899675Y-82337066D01*
X175893842Y-82333920D01*
X175888151Y-82330460D01*
X175882603Y-82326685D01*
X175877197Y-82322596D01*
X175874547Y-82320433D01*
X175871933Y-82318192D01*
X175869354Y-82315872D01*
X175866811Y-82313474D01*
X175864303Y-82310997D01*
X175861847Y-82308431D01*
X175859469Y-82305831D01*
X175857169Y-82303196D01*
X175854947Y-82300526D01*
X175852803Y-82297822D01*
X175850736Y-82295083D01*
X175846838Y-82289503D01*
X175843251Y-82283783D01*
X175839976Y-82277926D01*
X175837013Y-82271930D01*
X175834362Y-82265797D01*
X175832023Y-82259524D01*
X175829996Y-82253114D01*
X175828280Y-82246565D01*
X175826877Y-82239879D01*
X175826292Y-82236483D01*
X175825785Y-82233053D01*
X175825357Y-82229589D01*
X175825006Y-82226090D01*
X175824733Y-82222557D01*
X175824538Y-82218988D01*
X175824421Y-82215386D01*
X175824382Y-82211749D01*
X175824420Y-82208070D01*
X175824536Y-82204429D01*
X175824728Y-82200824D01*
X175824998Y-82197258D01*
X175825344Y-82193728D01*
X175825767Y-82190235D01*
X175826268Y-82186780D01*
X175826845Y-82183362D01*
X175827499Y-82179982D01*
X175828230Y-82176638D01*
X175829924Y-82170063D01*
X175831925Y-82163636D01*
X175834234Y-82157359D01*
X175836851Y-82151230D01*
X175839776Y-82145251D01*
X175843009Y-82139420D01*
X175846549Y-82133738D01*
X175850398Y-82128205D01*
X175854554Y-82122822D01*
X175856748Y-82120185D01*
X175859018Y-82117587D01*
X175861366Y-82115025D01*
X175863790Y-82112501D01*
X175866256Y-82110023D01*
X175868757Y-82107625D01*
X175871295Y-82105305D01*
X175876481Y-82100901D01*
X175881811Y-82096812D01*
X175887288Y-82093037D01*
X175892910Y-82089577D01*
X175898677Y-82086432D01*
X175904590Y-82083601D01*
X175910649Y-82081084D01*
X175916853Y-82078882D01*
X175923203Y-82076995D01*
X175929699Y-82075422D01*
X175936340Y-82074164D01*
X175943127Y-82073220D01*
X175946575Y-82072866D01*
X175950059Y-82072591D01*
X175953580Y-82072394D01*
X175957137Y-82072276D01*
X175960730Y-82072237D01*
X175964314Y-82072276D01*
G37*
G36*
X175587076Y-81757790D02*
G01*
X175561772Y-81757790D01*
X175557109Y-81757759D01*
X175552545Y-81757667D01*
X175548080Y-81757514D01*
X175543713Y-81757299D01*
X175539446Y-81757022D01*
X175535277Y-81756684D01*
X175531207Y-81756285D01*
X175527236Y-81755824D01*
X175523364Y-81755302D01*
X175519591Y-81754718D01*
X175515916Y-81754073D01*
X175512340Y-81753366D01*
X175508863Y-81752598D01*
X175505485Y-81751769D01*
X175500604Y-81750409D01*
X175499026Y-81749925D01*
X175494373Y-81748285D01*
X175489805Y-81746473D01*
X175485322Y-81744490D01*
X175480926Y-81742336D01*
X175476615Y-81740010D01*
X175472390Y-81737513D01*
X175468250Y-81734845D01*
X175464196Y-81732006D01*
X175460228Y-81728995D01*
X175456345Y-81725813D01*
X175453804Y-81723596D01*
X175451254Y-81721245D01*
X175448784Y-81718849D01*
X175444087Y-81713927D01*
X175439714Y-81708829D01*
X175435666Y-81703555D01*
X175431941Y-81698106D01*
X175428540Y-81692481D01*
X175425463Y-81686680D01*
X175422709Y-81680704D01*
X175420280Y-81674552D01*
X175418175Y-81668225D01*
X175416393Y-81661721D01*
X175414935Y-81655042D01*
X175414328Y-81651637D01*
X175413802Y-81648188D01*
X175413356Y-81644695D01*
X175412992Y-81641158D01*
X175412709Y-81637577D01*
X175412506Y-81633952D01*
X175412385Y-81630283D01*
X175412344Y-81626571D01*
X175412384Y-81622816D01*
X175412504Y-81619106D01*
X175412704Y-81615441D01*
X175412984Y-81611820D01*
X175413344Y-81608245D01*
X175413784Y-81604715D01*
X175414304Y-81601229D01*
X175414903Y-81597789D01*
X175415583Y-81594393D01*
X175416343Y-81591043D01*
X175418102Y-81584476D01*
X175420182Y-81578089D01*
X175422581Y-81571882D01*
X175425300Y-81565854D01*
X175428339Y-81560006D01*
X175431698Y-81554337D01*
X175435377Y-81548849D01*
X175439376Y-81543540D01*
X175443695Y-81538410D01*
X175448333Y-81533460D01*
X175450772Y-81531053D01*
X175453292Y-81528690D01*
X175458023Y-81524632D01*
X175463027Y-81520836D01*
X175468305Y-81517302D01*
X175473856Y-81514030D01*
X175479680Y-81511019D01*
X175485777Y-81508270D01*
X175492147Y-81505783D01*
X175495435Y-81504638D01*
X175498791Y-81503558D01*
X175502215Y-81502543D01*
X175505708Y-81501594D01*
X175509268Y-81500711D01*
X175512897Y-81499893D01*
X175516595Y-81499140D01*
X175520360Y-81498453D01*
X175524194Y-81497831D01*
X175528096Y-81497275D01*
X175532067Y-81496784D01*
X175536105Y-81496358D01*
X175540213Y-81495998D01*
X175544388Y-81495704D01*
X175548631Y-81495475D01*
X175552943Y-81495311D01*
X175557324Y-81495213D01*
X175561772Y-81495180D01*
X175587076Y-81495180D01*
X175587076Y-81757790D01*
G37*
G36*
X176333894Y-82587221D02*
G01*
X174969510Y-82587221D01*
X174969510Y-82028469D01*
X175150760Y-82028469D01*
X175150760Y-82083179D01*
X175232826Y-82083179D01*
X175232826Y-82400500D01*
X175287878Y-82400500D01*
X175287878Y-82083179D01*
X175375073Y-82083179D01*
X175375073Y-82028469D01*
X175424996Y-82028469D01*
X175424996Y-82267143D01*
X175425032Y-82270783D01*
X175425138Y-82274382D01*
X175425316Y-82277942D01*
X175425565Y-82281462D01*
X175425885Y-82284941D01*
X175426276Y-82288381D01*
X175426739Y-82291780D01*
X175427877Y-82298458D01*
X175429299Y-82304977D01*
X175431006Y-82311335D01*
X175432998Y-82317532D01*
X175435274Y-82323570D01*
X175437834Y-82329447D01*
X175440679Y-82335164D01*
X175443809Y-82340720D01*
X175447223Y-82346116D01*
X175450922Y-82351352D01*
X175454905Y-82356428D01*
X175459172Y-82361343D01*
X175461413Y-82363741D01*
X175463985Y-82366339D01*
X175466594Y-82368855D01*
X175469240Y-82371288D01*
X175471922Y-82373639D01*
X175474641Y-82375907D01*
X175477397Y-82378092D01*
X175480190Y-82380196D01*
X175483019Y-82382216D01*
X175485885Y-82384155D01*
X175488788Y-82386010D01*
X175491727Y-82387784D01*
X175494704Y-82389475D01*
X175500766Y-82392609D01*
X175506976Y-82395413D01*
X175513333Y-82397888D01*
X175516566Y-82399001D01*
X175519836Y-82400032D01*
X175523143Y-82400981D01*
X175526487Y-82401847D01*
X175529867Y-82402630D01*
X175533284Y-82403331D01*
X175536738Y-82403950D01*
X175540228Y-82404486D01*
X175543756Y-82404940D01*
X175547320Y-82405311D01*
X175550920Y-82405599D01*
X175554558Y-82405806D01*
X175558232Y-82405929D01*
X175561943Y-82405971D01*
X175565648Y-82405929D01*
X175569317Y-82405806D01*
X175572949Y-82405599D01*
X175576544Y-82405311D01*
X175580101Y-82404940D01*
X175583622Y-82404486D01*
X175587107Y-82403950D01*
X175590554Y-82403331D01*
X175593964Y-82402630D01*
X175597337Y-82401847D01*
X175600674Y-82400981D01*
X175603974Y-82400032D01*
X175607236Y-82399001D01*
X175613651Y-82396692D01*
X175619918Y-82394052D01*
X175626038Y-82391083D01*
X175632010Y-82387784D01*
X175634940Y-82386010D01*
X175637834Y-82384155D01*
X175640691Y-82382216D01*
X175643511Y-82380196D01*
X175646294Y-82378092D01*
X175649040Y-82375907D01*
X175651749Y-82373639D01*
X175654421Y-82371288D01*
X175657057Y-82368855D01*
X175659655Y-82366339D01*
X175662217Y-82363741D01*
X175666616Y-82358906D01*
X175670732Y-82353910D01*
X175674564Y-82348754D01*
X175678112Y-82343438D01*
X175681376Y-82337962D01*
X175684356Y-82332325D01*
X175687053Y-82326528D01*
X175689465Y-82320571D01*
X175691594Y-82314454D01*
X175693439Y-82308176D01*
X175695000Y-82301738D01*
X175696277Y-82295139D01*
X175697271Y-82288381D01*
X175697661Y-82284941D01*
X175697980Y-82281462D01*
X175698229Y-82277942D01*
X175698406Y-82274382D01*
X175698513Y-82270783D01*
X175698548Y-82267143D01*
X175698548Y-82212347D01*
X175769330Y-82212347D01*
X175769385Y-82217372D01*
X175769551Y-82222349D01*
X175769827Y-82227278D01*
X175770214Y-82232160D01*
X175770711Y-82236993D01*
X175771319Y-82241778D01*
X175772038Y-82246516D01*
X175772867Y-82251205D01*
X175773806Y-82255847D01*
X175774856Y-82260441D01*
X175776017Y-82264986D01*
X175777288Y-82269484D01*
X175778669Y-82273934D01*
X175780161Y-82278336D01*
X175781764Y-82282691D01*
X175783477Y-82286997D01*
X175785301Y-82291255D01*
X175787235Y-82295465D01*
X175789280Y-82299628D01*
X175791435Y-82303743D01*
X175793701Y-82307809D01*
X175796078Y-82311828D01*
X175798565Y-82315799D01*
X175801162Y-82319722D01*
X175803870Y-82323596D01*
X175806689Y-82327424D01*
X175809618Y-82331203D01*
X175812657Y-82334934D01*
X175815807Y-82338617D01*
X175819068Y-82342252D01*
X175822439Y-82345840D01*
X175825921Y-82349379D01*
X175829486Y-82352861D01*
X175833097Y-82356232D01*
X175836755Y-82359493D01*
X175840458Y-82362643D01*
X175844208Y-82365683D01*
X175848004Y-82368612D01*
X175851846Y-82371430D01*
X175855734Y-82374138D01*
X175859668Y-82376736D01*
X175863648Y-82379222D01*
X175867674Y-82381599D01*
X175871746Y-82383865D01*
X175875864Y-82386020D01*
X175880029Y-82388065D01*
X175884239Y-82389999D01*
X175888496Y-82391823D01*
X175892798Y-82393536D01*
X175897147Y-82395139D01*
X175901542Y-82396631D01*
X175905983Y-82398012D01*
X175910470Y-82399284D01*
X175915003Y-82400444D01*
X175919582Y-82401494D01*
X175924207Y-82402434D01*
X175928878Y-82403263D01*
X175933596Y-82403981D01*
X175938359Y-82404589D01*
X175943169Y-82405086D01*
X175948024Y-82405473D01*
X175952926Y-82405749D01*
X175957874Y-82405915D01*
X175962868Y-82405971D01*
X175967293Y-82405922D01*
X175971691Y-82405775D01*
X175976060Y-82405530D01*
X175980400Y-82405186D01*
X175984712Y-82404745D01*
X175988996Y-82404206D01*
X175993251Y-82403569D01*
X175997478Y-82402834D01*
X176001677Y-82402001D01*
X176005847Y-82401070D01*
X176009989Y-82400041D01*
X176014103Y-82398914D01*
X176018188Y-82397689D01*
X176022244Y-82396366D01*
X176026273Y-82394945D01*
X176030273Y-82393426D01*
X176034244Y-82391808D01*
X176038187Y-82390093D01*
X176042102Y-82388280D01*
X176045988Y-82386369D01*
X176049846Y-82384360D01*
X176053676Y-82382253D01*
X176057477Y-82380048D01*
X176061250Y-82377744D01*
X176064995Y-82375343D01*
X176068711Y-82372844D01*
X176072398Y-82370247D01*
X176076058Y-82367552D01*
X176079689Y-82364759D01*
X176083291Y-82361867D01*
X176086865Y-82358878D01*
X176090411Y-82355791D01*
X176094240Y-82352279D01*
X176097947Y-82348701D01*
X176101533Y-82345055D01*
X176104997Y-82341343D01*
X176108340Y-82337563D01*
X176111561Y-82333717D01*
X176114660Y-82329803D01*
X176117638Y-82325823D01*
X176120495Y-82321776D01*
X176123229Y-82317662D01*
X176125843Y-82313480D01*
X176128335Y-82309232D01*
X176130705Y-82304917D01*
X176132953Y-82300535D01*
X176135080Y-82296086D01*
X176137086Y-82291570D01*
X176138970Y-82286987D01*
X176140733Y-82282338D01*
X176142373Y-82277621D01*
X176143893Y-82272837D01*
X176145291Y-82267986D01*
X176146567Y-82263069D01*
X176147722Y-82258084D01*
X176148755Y-82253033D01*
X176149666Y-82247914D01*
X176150456Y-82242729D01*
X176151125Y-82237476D01*
X176151672Y-82232157D01*
X176152097Y-82226771D01*
X176152401Y-82221317D01*
X176152584Y-82215797D01*
X176152644Y-82210210D01*
X176152589Y-82205290D01*
X176152423Y-82200413D01*
X176152145Y-82195580D01*
X176151757Y-82190790D01*
X176151259Y-82186044D01*
X176150649Y-82181342D01*
X176149928Y-82176683D01*
X176149097Y-82172068D01*
X176148154Y-82167496D01*
X176147101Y-82162968D01*
X176145937Y-82158483D01*
X176144662Y-82154042D01*
X176143276Y-82149645D01*
X176141780Y-82145291D01*
X176140172Y-82140981D01*
X176138454Y-82136714D01*
X176136625Y-82132491D01*
X176134684Y-82128312D01*
X176132633Y-82124176D01*
X176130472Y-82120083D01*
X176128199Y-82116035D01*
X176125815Y-82112029D01*
X176123321Y-82108068D01*
X176120716Y-82104150D01*
X176118000Y-82100275D01*
X176115172Y-82096444D01*
X176112235Y-82092657D01*
X176109186Y-82088913D01*
X176106026Y-82085213D01*
X176102756Y-82081557D01*
X176099374Y-82077944D01*
X176095882Y-82074374D01*
X176092328Y-82070877D01*
X176088730Y-82067490D01*
X176085087Y-82064215D01*
X176081399Y-82061051D01*
X176077667Y-82057997D01*
X176073890Y-82055055D01*
X176070069Y-82052224D01*
X176066203Y-82049503D01*
X176062292Y-82046894D01*
X176058337Y-82044396D01*
X176054338Y-82042009D01*
X176050293Y-82039733D01*
X176046205Y-82037568D01*
X176042071Y-82035514D01*
X176037893Y-82033571D01*
X176033671Y-82031739D01*
X176029403Y-82030018D01*
X176025092Y-82028408D01*
X176020735Y-82026909D01*
X176016334Y-82025521D01*
X176011889Y-82024244D01*
X176007399Y-82023078D01*
X176002864Y-82022023D01*
X175998285Y-82021080D01*
X175993661Y-82020247D01*
X175988993Y-82019525D01*
X175984280Y-82018915D01*
X175979522Y-82018415D01*
X175974720Y-82018026D01*
X175969874Y-82017749D01*
X175964982Y-82017582D01*
X175960047Y-82017527D01*
X175955169Y-82017583D01*
X175950335Y-82017750D01*
X175945545Y-82018030D01*
X175940799Y-82018422D01*
X175936097Y-82018925D01*
X175931438Y-82019540D01*
X175926823Y-82020267D01*
X175922252Y-82021106D01*
X175917724Y-82022057D01*
X175913240Y-82023120D01*
X175908800Y-82024295D01*
X175904404Y-82025581D01*
X175900051Y-82026979D01*
X175895743Y-82028489D01*
X175891477Y-82030112D01*
X175887256Y-82031845D01*
X175883079Y-82033691D01*
X175878945Y-82035649D01*
X175874855Y-82037718D01*
X175870808Y-82039900D01*
X175866806Y-82042193D01*
X175862847Y-82044598D01*
X175858932Y-82047115D01*
X175855060Y-82049744D01*
X175851233Y-82052485D01*
X175847449Y-82055337D01*
X175843709Y-82058302D01*
X175840012Y-82061378D01*
X175836360Y-82064566D01*
X175832751Y-82067866D01*
X175829186Y-82071278D01*
X175825664Y-82074802D01*
X175822198Y-82078404D01*
X175818842Y-82082051D01*
X175815597Y-82085743D01*
X175812461Y-82089480D01*
X175809435Y-82093261D01*
X175806519Y-82097088D01*
X175803713Y-82100960D01*
X175801018Y-82104876D01*
X175798432Y-82108838D01*
X175795956Y-82112844D01*
X175793591Y-82116895D01*
X175791335Y-82120992D01*
X175789190Y-82125133D01*
X175787154Y-82129319D01*
X175785229Y-82133550D01*
X175783413Y-82137825D01*
X175781708Y-82142146D01*
X175780112Y-82146512D01*
X175778627Y-82150922D01*
X175777252Y-82155378D01*
X175775986Y-82159878D01*
X175774831Y-82164424D01*
X175773786Y-82169014D01*
X175772850Y-82173649D01*
X175772025Y-82178329D01*
X175771310Y-82183054D01*
X175770705Y-82187824D01*
X175770210Y-82192639D01*
X175769825Y-82197498D01*
X175769550Y-82202403D01*
X175769385Y-82207353D01*
X175769337Y-82211749D01*
X175769330Y-82212347D01*
X175698548Y-82212347D01*
X175698548Y-82028469D01*
X175643496Y-82028469D01*
X175643496Y-82250131D01*
X175643434Y-82255962D01*
X175643250Y-82261593D01*
X175642943Y-82267024D01*
X175642513Y-82272256D01*
X175641960Y-82277288D01*
X175641284Y-82282120D01*
X175640485Y-82286753D01*
X175639563Y-82291186D01*
X175638519Y-82295419D01*
X175637351Y-82299452D01*
X175636061Y-82303286D01*
X175634648Y-82306920D01*
X175633112Y-82310355D01*
X175631453Y-82313589D01*
X175629671Y-82316624D01*
X175627766Y-82319460D01*
X175624774Y-82323311D01*
X175621633Y-82326913D01*
X175618342Y-82330267D01*
X175614901Y-82333372D01*
X175611311Y-82336229D01*
X175607571Y-82338838D01*
X175603681Y-82341198D01*
X175599642Y-82343310D01*
X175595453Y-82345173D01*
X175591115Y-82346788D01*
X175586627Y-82348155D01*
X175581989Y-82349273D01*
X175577202Y-82350142D01*
X175572265Y-82350763D01*
X175567179Y-82351136D01*
X175561943Y-82351260D01*
X175556676Y-82351136D01*
X175551559Y-82350763D01*
X175546594Y-82350142D01*
X175541779Y-82349273D01*
X175537116Y-82348155D01*
X175532603Y-82346788D01*
X175528241Y-82345173D01*
X175524030Y-82343310D01*
X175519971Y-82341198D01*
X175516062Y-82338838D01*
X175512304Y-82336229D01*
X175508697Y-82333372D01*
X175505240Y-82330267D01*
X175501935Y-82326913D01*
X175498781Y-82323311D01*
X175495778Y-82319460D01*
X175492967Y-82315248D01*
X175491246Y-82312177D01*
X175489649Y-82308896D01*
X175488174Y-82305405D01*
X175486822Y-82301703D01*
X175485594Y-82297790D01*
X175484488Y-82293668D01*
X175483504Y-82289335D01*
X175482644Y-82284791D01*
X175481907Y-82280038D01*
X175481293Y-82275073D01*
X175480801Y-82269899D01*
X175480432Y-82264514D01*
X175480187Y-82258919D01*
X175480064Y-82253113D01*
X175480048Y-82250131D01*
X175480048Y-82028469D01*
X175424996Y-82028469D01*
X175375073Y-82028469D01*
X175150760Y-82028469D01*
X174969510Y-82028469D01*
X174969510Y-81626485D01*
X175357292Y-81626485D01*
X175357293Y-81626571D01*
X175357350Y-81631817D01*
X175357524Y-81637085D01*
X175357814Y-81642289D01*
X175358220Y-81647429D01*
X175358742Y-81652505D01*
X175359381Y-81657516D01*
X175360135Y-81662464D01*
X175361005Y-81667347D01*
X175361991Y-81672166D01*
X175363094Y-81676921D01*
X175364312Y-81681612D01*
X175365647Y-81686239D01*
X175367097Y-81690802D01*
X175368664Y-81695301D01*
X175370346Y-81699735D01*
X175372145Y-81704106D01*
X175374060Y-81708412D01*
X175376090Y-81712654D01*
X175378237Y-81716832D01*
X175380500Y-81720946D01*
X175382879Y-81724996D01*
X175385373Y-81728982D01*
X175387984Y-81732903D01*
X175390711Y-81736761D01*
X175393554Y-81740554D01*
X175396513Y-81744283D01*
X175399588Y-81747949D01*
X175402779Y-81751550D01*
X175406086Y-81755087D01*
X175409510Y-81758559D01*
X175413049Y-81761968D01*
X175416704Y-81765313D01*
X175420445Y-81768552D01*
X175424208Y-81771667D01*
X175427994Y-81774656D01*
X175431803Y-81777521D01*
X175435634Y-81780261D01*
X175439488Y-81782876D01*
X175443365Y-81785366D01*
X175447265Y-81787731D01*
X175451187Y-81789972D01*
X175455132Y-81792087D01*
X175459100Y-81794077D01*
X175463090Y-81795943D01*
X175467103Y-81797684D01*
X175471139Y-81799300D01*
X175475198Y-81800791D01*
X175479279Y-81802157D01*
X175483194Y-81803409D01*
X175487308Y-81804581D01*
X175491622Y-81805672D01*
X175496136Y-81806682D01*
X175500849Y-81807611D01*
X175505762Y-81808460D01*
X175510875Y-81809228D01*
X175516187Y-81809915D01*
X175521699Y-81810521D01*
X175527411Y-81811046D01*
X175533323Y-81811490D01*
X175539434Y-81811854D01*
X175545745Y-81812137D01*
X175552255Y-81812339D01*
X175558965Y-81812460D01*
X175562395Y-81812490D01*
X175565875Y-81812501D01*
X175642128Y-81812501D01*
X175642128Y-81440470D01*
X175713935Y-81440470D01*
X175713935Y-81495180D01*
X175864047Y-81495180D01*
X175864047Y-81582717D01*
X175719406Y-81582717D01*
X175719406Y-81637427D01*
X175864047Y-81637427D01*
X175864047Y-81757790D01*
X175713935Y-81757790D01*
X175713935Y-81812501D01*
X175919099Y-81812501D01*
X175972100Y-81812501D01*
X176136231Y-81812501D01*
X176136231Y-81440470D01*
X176081179Y-81440470D01*
X176081179Y-81757790D01*
X175972100Y-81757790D01*
X175972100Y-81812501D01*
X175919099Y-81812501D01*
X175919099Y-81440470D01*
X175713935Y-81440470D01*
X175642128Y-81440470D01*
X175564849Y-81440470D01*
X175561399Y-81440481D01*
X175554636Y-81440567D01*
X175548055Y-81440739D01*
X175541656Y-81440997D01*
X175535440Y-81441342D01*
X175529406Y-81441773D01*
X175523554Y-81442290D01*
X175517885Y-81442893D01*
X175512398Y-81443582D01*
X175507093Y-81444357D01*
X175501971Y-81445219D01*
X175497031Y-81446167D01*
X175492273Y-81447200D01*
X175487697Y-81448320D01*
X175483304Y-81449527D01*
X175479093Y-81450819D01*
X175477056Y-81451497D01*
X175472764Y-81452924D01*
X175468521Y-81454468D01*
X175464328Y-81456130D01*
X175460184Y-81457909D01*
X175456089Y-81459805D01*
X175452044Y-81461820D01*
X175448048Y-81463951D01*
X175444102Y-81466201D01*
X175440205Y-81468568D01*
X175436358Y-81471052D01*
X175432559Y-81473654D01*
X175428811Y-81476373D01*
X175425112Y-81479211D01*
X175421462Y-81482165D01*
X175417861Y-81485237D01*
X175414310Y-81488427D01*
X175410802Y-81491740D01*
X175407406Y-81495117D01*
X175404121Y-81498559D01*
X175400947Y-81502066D01*
X175397884Y-81505637D01*
X175394933Y-81509273D01*
X175392093Y-81512973D01*
X175389365Y-81516738D01*
X175386748Y-81520568D01*
X175384242Y-81524462D01*
X175381848Y-81528421D01*
X175379565Y-81532445D01*
X175377393Y-81536533D01*
X175375333Y-81540686D01*
X175373384Y-81544903D01*
X175371547Y-81549185D01*
X175369820Y-81553532D01*
X175368206Y-81557943D01*
X175366702Y-81562419D01*
X175365310Y-81566960D01*
X175364029Y-81571565D01*
X175362860Y-81576234D01*
X175361802Y-81580969D01*
X175360856Y-81585768D01*
X175360020Y-81590631D01*
X175359296Y-81595559D01*
X175358684Y-81600552D01*
X175358183Y-81605609D01*
X175357793Y-81610731D01*
X175357515Y-81615918D01*
X175357348Y-81621169D01*
X175357292Y-81626485D01*
X174969510Y-81626485D01*
X174969510Y-81259220D01*
X176333894Y-81259220D01*
X176333894Y-82587221D01*
G37*
D12*
G36*
X178994745Y-78653542D02*
G01*
X178841556Y-78653542D01*
X178841556Y-78665937D01*
X178841594Y-78671178D01*
X178841709Y-78676344D01*
X178841901Y-78681434D01*
X178842170Y-78686448D01*
X178842516Y-78691388D01*
X178842938Y-78696251D01*
X178843437Y-78701039D01*
X178844013Y-78705752D01*
X178844666Y-78710389D01*
X178845396Y-78714951D01*
X178846202Y-78719437D01*
X178847085Y-78723848D01*
X178848046Y-78728183D01*
X178849082Y-78732443D01*
X178850196Y-78736628D01*
X178851386Y-78740737D01*
X178852635Y-78744483D01*
X178853986Y-78748201D01*
X178855440Y-78751889D01*
X178856996Y-78755547D01*
X178858656Y-78759176D01*
X178860418Y-78762776D01*
X178862284Y-78766346D01*
X178864252Y-78769887D01*
X178866323Y-78773399D01*
X178868497Y-78776881D01*
X178870774Y-78780334D01*
X178873153Y-78783757D01*
X178875635Y-78787151D01*
X178878221Y-78790516D01*
X178880909Y-78793851D01*
X178883700Y-78797157D01*
X178886943Y-78800775D01*
X178890242Y-78804279D01*
X178893595Y-78807668D01*
X178897002Y-78810941D01*
X178900464Y-78814100D01*
X178903981Y-78817144D01*
X178907552Y-78820074D01*
X178911178Y-78822888D01*
X178914858Y-78825587D01*
X178918593Y-78828172D01*
X178922383Y-78830642D01*
X178926227Y-78832996D01*
X178930126Y-78835236D01*
X178934079Y-78837362D01*
X178938088Y-78839372D01*
X178942150Y-78841267D01*
X178946267Y-78843048D01*
X178950439Y-78844713D01*
X178954666Y-78846264D01*
X178958947Y-78847700D01*
X178963282Y-78849021D01*
X178967672Y-78850227D01*
X178972117Y-78851318D01*
X178976617Y-78852295D01*
X178981171Y-78853156D01*
X178985779Y-78853903D01*
X178990442Y-78854535D01*
X178995160Y-78855052D01*
X178999933Y-78855454D01*
X179004760Y-78855741D01*
X179009641Y-78855913D01*
X179014577Y-78855971D01*
X179019401Y-78855915D01*
X179024182Y-78855749D01*
X179028919Y-78855472D01*
X179033612Y-78855084D01*
X179038262Y-78854585D01*
X179042869Y-78853975D01*
X179047431Y-78853254D01*
X179051950Y-78852423D01*
X179056426Y-78851481D01*
X179060858Y-78850427D01*
X179065246Y-78849263D01*
X179069591Y-78847988D01*
X179073892Y-78846603D01*
X179078150Y-78845106D01*
X179082364Y-78843498D01*
X179086534Y-78841780D01*
X179090661Y-78839951D01*
X179094745Y-78838011D01*
X179098784Y-78835960D01*
X179102780Y-78833798D01*
X179106733Y-78831525D01*
X179110642Y-78829142D01*
X179114508Y-78826647D01*
X179118329Y-78824042D01*
X179122108Y-78821326D01*
X179125842Y-78818499D01*
X179129534Y-78815561D01*
X179133181Y-78812512D01*
X179136785Y-78809352D01*
X179140345Y-78806082D01*
X179143862Y-78802701D01*
X179147336Y-78799209D01*
X179150738Y-78795628D01*
X179154033Y-78792003D01*
X179157220Y-78788334D01*
X179160299Y-78784620D01*
X179163269Y-78780862D01*
X179166132Y-78777059D01*
X179168886Y-78773212D01*
X179171533Y-78769321D01*
X179174072Y-78765385D01*
X179176502Y-78761405D01*
X179178825Y-78757380D01*
X179181039Y-78753311D01*
X179183146Y-78749198D01*
X179185144Y-78745040D01*
X179187035Y-78740837D01*
X179188817Y-78736591D01*
X179190491Y-78732300D01*
X179192058Y-78727964D01*
X179193516Y-78723584D01*
X179194867Y-78719160D01*
X179196109Y-78714691D01*
X179197243Y-78710178D01*
X179198269Y-78705620D01*
X179199188Y-78701018D01*
X179199998Y-78696372D01*
X179200700Y-78691681D01*
X179201294Y-78686946D01*
X179201780Y-78682166D01*
X179202158Y-78677342D01*
X179202428Y-78672474D01*
X179202590Y-78667561D01*
X179202644Y-78662603D01*
X179202589Y-78657536D01*
X179202425Y-78652517D01*
X179202150Y-78647546D01*
X179201765Y-78642624D01*
X179201271Y-78637750D01*
X179200667Y-78632925D01*
X179199953Y-78628148D01*
X179199129Y-78623419D01*
X179198195Y-78618739D01*
X179197151Y-78614107D01*
X179195998Y-78609524D01*
X179194734Y-78604989D01*
X179193361Y-78600503D01*
X179191878Y-78596065D01*
X179190285Y-78591675D01*
X179188582Y-78587334D01*
X179186769Y-78583041D01*
X179184847Y-78578797D01*
X179182814Y-78574601D01*
X179180672Y-78570453D01*
X179178420Y-78566354D01*
X179176058Y-78562304D01*
X179173586Y-78558301D01*
X179171004Y-78554347D01*
X179168313Y-78550442D01*
X179165511Y-78546585D01*
X179162600Y-78542776D01*
X179159579Y-78539016D01*
X179156448Y-78535304D01*
X179153207Y-78531641D01*
X179149856Y-78528026D01*
X179146395Y-78524460D01*
X179142856Y-78520957D01*
X179139269Y-78517565D01*
X179135635Y-78514285D01*
X179131954Y-78511116D01*
X179128225Y-78508058D01*
X179124448Y-78505111D01*
X179120624Y-78502276D01*
X179116753Y-78499552D01*
X179112835Y-78496938D01*
X179108869Y-78494436D01*
X179104855Y-78492046D01*
X179100794Y-78489766D01*
X179096686Y-78487598D01*
X179092530Y-78485541D01*
X179088327Y-78483595D01*
X179084077Y-78481760D01*
X179079779Y-78480036D01*
X179075433Y-78478424D01*
X179071040Y-78476923D01*
X179066600Y-78475533D01*
X179062113Y-78474254D01*
X179057578Y-78473087D01*
X179052995Y-78472030D01*
X179048365Y-78471085D01*
X179043688Y-78470251D01*
X179038963Y-78469528D01*
X179034191Y-78468917D01*
X179029372Y-78468416D01*
X179024505Y-78468027D01*
X179019590Y-78467749D01*
X179014628Y-78467582D01*
X179009619Y-78467527D01*
X179004224Y-78467598D01*
X178998875Y-78467811D01*
X178993571Y-78468167D01*
X178988312Y-78468665D01*
X178983099Y-78469305D01*
X178977931Y-78470087D01*
X178972809Y-78471012D01*
X178967732Y-78472079D01*
X178962700Y-78473288D01*
X178957714Y-78474639D01*
X178952773Y-78476133D01*
X178947878Y-78477769D01*
X178943028Y-78479547D01*
X178938223Y-78481467D01*
X178933464Y-78483530D01*
X178928750Y-78485735D01*
X178924267Y-78488089D01*
X178919793Y-78490621D01*
X178915329Y-78493330D01*
X178910873Y-78496218D01*
X178906427Y-78499282D01*
X178901991Y-78502525D01*
X178897564Y-78505945D01*
X178893146Y-78509543D01*
X178888737Y-78513318D01*
X178884338Y-78517271D01*
X178879948Y-78521402D01*
X178875568Y-78525710D01*
X178871197Y-78530196D01*
X178866835Y-78534860D01*
X178862483Y-78539701D01*
X178858140Y-78544720D01*
X178897976Y-78582675D01*
X178900848Y-78578957D01*
X178903759Y-78575356D01*
X178906709Y-78571874D01*
X178909698Y-78568510D01*
X178912725Y-78565264D01*
X178915791Y-78562136D01*
X178918896Y-78559125D01*
X178922040Y-78556233D01*
X178925222Y-78553459D01*
X178928443Y-78550803D01*
X178931703Y-78548266D01*
X178935001Y-78545846D01*
X178938339Y-78543544D01*
X178941715Y-78541360D01*
X178945129Y-78539294D01*
X178948583Y-78537347D01*
X178952075Y-78535517D01*
X178955606Y-78533805D01*
X178959176Y-78532212D01*
X178962784Y-78530736D01*
X178966431Y-78529379D01*
X178970117Y-78528139D01*
X178973842Y-78527018D01*
X178977605Y-78526014D01*
X178981407Y-78525129D01*
X178985248Y-78524362D01*
X178989127Y-78523713D01*
X178993046Y-78523181D01*
X178997003Y-78522768D01*
X179000999Y-78522473D01*
X179005033Y-78522296D01*
X179009106Y-78522237D01*
X179012764Y-78522277D01*
X179016384Y-78522395D01*
X179019967Y-78522593D01*
X179023513Y-78522870D01*
X179027022Y-78523226D01*
X179030494Y-78523662D01*
X179033929Y-78524176D01*
X179037327Y-78524770D01*
X179040688Y-78525442D01*
X179047298Y-78527025D01*
X179053760Y-78528924D01*
X179060074Y-78531140D01*
X179066240Y-78533673D01*
X179072257Y-78536522D01*
X179078126Y-78539688D01*
X179083847Y-78543170D01*
X179089420Y-78546968D01*
X179094844Y-78551084D01*
X179097500Y-78553260D01*
X179100120Y-78555516D01*
X179102702Y-78557850D01*
X179105248Y-78560264D01*
X179107756Y-78562757D01*
X179110207Y-78565261D01*
X179112580Y-78567804D01*
X179114875Y-78570387D01*
X179117093Y-78573009D01*
X179121294Y-78578370D01*
X179125184Y-78583888D01*
X179128763Y-78589563D01*
X179132031Y-78595395D01*
X179134988Y-78601384D01*
X179137633Y-78607530D01*
X179139967Y-78613833D01*
X179141990Y-78620292D01*
X179143702Y-78626909D01*
X179144441Y-78630276D01*
X179145102Y-78633683D01*
X179145686Y-78637129D01*
X179146191Y-78640613D01*
X179146619Y-78644138D01*
X179146970Y-78647701D01*
X179147242Y-78651304D01*
X179147436Y-78654946D01*
X179147553Y-78658627D01*
X179147592Y-78662347D01*
X179147549Y-78666194D01*
X179147419Y-78669998D01*
X179147202Y-78673759D01*
X179146899Y-78677477D01*
X179146509Y-78681152D01*
X179146032Y-78684784D01*
X179145469Y-78688373D01*
X179144819Y-78691919D01*
X179144082Y-78695423D01*
X179143259Y-78698884D01*
X179142349Y-78702301D01*
X179141353Y-78705676D01*
X179140270Y-78709008D01*
X179139100Y-78712297D01*
X179137843Y-78715543D01*
X179136500Y-78718746D01*
X179135070Y-78721906D01*
X179133554Y-78725023D01*
X179131951Y-78728098D01*
X179130261Y-78731129D01*
X179128485Y-78734118D01*
X179126622Y-78737063D01*
X179124672Y-78739966D01*
X179122636Y-78742826D01*
X179120513Y-78745643D01*
X179118303Y-78748417D01*
X179116007Y-78751148D01*
X179113624Y-78753836D01*
X179111154Y-78756481D01*
X179108598Y-78759084D01*
X179105955Y-78761643D01*
X179103225Y-78764160D01*
X179100622Y-78766442D01*
X179098005Y-78768652D01*
X179092731Y-78772855D01*
X179087402Y-78776768D01*
X179082020Y-78780391D01*
X179076583Y-78783724D01*
X179071092Y-78786768D01*
X179065547Y-78789521D01*
X179059948Y-78791985D01*
X179054295Y-78794159D01*
X179048588Y-78796043D01*
X179042827Y-78797637D01*
X179037012Y-78798941D01*
X179031142Y-78799956D01*
X179025219Y-78800680D01*
X179019241Y-78801115D01*
X179013210Y-78801260D01*
X179008081Y-78801154D01*
X179003019Y-78800834D01*
X178998024Y-78800301D01*
X178993094Y-78799556D01*
X178988230Y-78798597D01*
X178983433Y-78797425D01*
X178978701Y-78796041D01*
X178974036Y-78794443D01*
X178969437Y-78792632D01*
X178964904Y-78790608D01*
X178960437Y-78788371D01*
X178956036Y-78785921D01*
X178951701Y-78783258D01*
X178947433Y-78780382D01*
X178943230Y-78777293D01*
X178939094Y-78773990D01*
X178935094Y-78770518D01*
X178931320Y-78766961D01*
X178927774Y-78763318D01*
X178924455Y-78759592D01*
X178921363Y-78755780D01*
X178918498Y-78751883D01*
X178915860Y-78747902D01*
X178913449Y-78743836D01*
X178911265Y-78739685D01*
X178909308Y-78735449D01*
X178907578Y-78731128D01*
X178906075Y-78726723D01*
X178904800Y-78722232D01*
X178903751Y-78717657D01*
X178902930Y-78712997D01*
X178902336Y-78708252D01*
X178994745Y-78708252D01*
X178994745Y-78653542D01*
G37*
G36*
X178773510Y-78850500D02*
G01*
X178773510Y-78453251D01*
X178505429Y-78736975D01*
X178505429Y-78478469D01*
X178450376Y-78478469D01*
X178450376Y-78873068D01*
X178718457Y-78590027D01*
X178718457Y-78850500D01*
X178773510Y-78850500D01*
G37*
G36*
X178360104Y-78850500D02*
G01*
X178283852Y-78850500D01*
X178280372Y-78850489D01*
X178276942Y-78850459D01*
X178270231Y-78850338D01*
X178263721Y-78850136D01*
X178257410Y-78849853D01*
X178251299Y-78849489D01*
X178245387Y-78849045D01*
X178239676Y-78848520D01*
X178234163Y-78847914D01*
X178228851Y-78847227D01*
X178223738Y-78846459D01*
X178218825Y-78845610D01*
X178214112Y-78844681D01*
X178209598Y-78843671D01*
X178205284Y-78842580D01*
X178201170Y-78841408D01*
X178197255Y-78840156D01*
X178193174Y-78838790D01*
X178189115Y-78837299D01*
X178185080Y-78835683D01*
X178181067Y-78833942D01*
X178177076Y-78832076D01*
X178173108Y-78830086D01*
X178169163Y-78827971D01*
X178165241Y-78825730D01*
X178161342Y-78823365D01*
X178157465Y-78820875D01*
X178153610Y-78818260D01*
X178149779Y-78815520D01*
X178145970Y-78812655D01*
X178142184Y-78809666D01*
X178138421Y-78806551D01*
X178134680Y-78803312D01*
X178131025Y-78799967D01*
X178127486Y-78796558D01*
X178124063Y-78793086D01*
X178120756Y-78789549D01*
X178117564Y-78785948D01*
X178114489Y-78782282D01*
X178111530Y-78778553D01*
X178108687Y-78774760D01*
X178105961Y-78770902D01*
X178103350Y-78766981D01*
X178100855Y-78762995D01*
X178098476Y-78758945D01*
X178096213Y-78754831D01*
X178094067Y-78750653D01*
X178092036Y-78746411D01*
X178090121Y-78742105D01*
X178088323Y-78737734D01*
X178086640Y-78733300D01*
X178085073Y-78728801D01*
X178083623Y-78724238D01*
X178082289Y-78719611D01*
X178081070Y-78714920D01*
X178079968Y-78710165D01*
X178078981Y-78705346D01*
X178078111Y-78700463D01*
X178077357Y-78695515D01*
X178076719Y-78690504D01*
X178076196Y-78685428D01*
X178075790Y-78680288D01*
X178075500Y-78675084D01*
X178075326Y-78669816D01*
X178075269Y-78664570D01*
X178130321Y-78664570D01*
X178130361Y-78668282D01*
X178130482Y-78671951D01*
X178130685Y-78675576D01*
X178130968Y-78679157D01*
X178131333Y-78682694D01*
X178131778Y-78686187D01*
X178132304Y-78689636D01*
X178132912Y-78693041D01*
X178134369Y-78699720D01*
X178136151Y-78706224D01*
X178138256Y-78712551D01*
X178140686Y-78718703D01*
X178143439Y-78724679D01*
X178146516Y-78730480D01*
X178149917Y-78736105D01*
X178153642Y-78741554D01*
X178157691Y-78746828D01*
X178162063Y-78751926D01*
X178166760Y-78756848D01*
X178169230Y-78759244D01*
X178171781Y-78761595D01*
X178174322Y-78763812D01*
X178178204Y-78766994D01*
X178182172Y-78770005D01*
X178186226Y-78772844D01*
X178190366Y-78775512D01*
X178194591Y-78778009D01*
X178198902Y-78780335D01*
X178203299Y-78782489D01*
X178207781Y-78784472D01*
X178212349Y-78786284D01*
X178217002Y-78787924D01*
X178218580Y-78788408D01*
X178223462Y-78789768D01*
X178226840Y-78790597D01*
X178230317Y-78791365D01*
X178233892Y-78792072D01*
X178237567Y-78792717D01*
X178241340Y-78793301D01*
X178245212Y-78793823D01*
X178249183Y-78794284D01*
X178253253Y-78794683D01*
X178257422Y-78795021D01*
X178261690Y-78795298D01*
X178266056Y-78795513D01*
X178270521Y-78795666D01*
X178275085Y-78795758D01*
X178279748Y-78795789D01*
X178305052Y-78795789D01*
X178305052Y-78533179D01*
X178279748Y-78533179D01*
X178275300Y-78533212D01*
X178270920Y-78533310D01*
X178266608Y-78533474D01*
X178262364Y-78533703D01*
X178258189Y-78533997D01*
X178254082Y-78534357D01*
X178250043Y-78534783D01*
X178246073Y-78535274D01*
X178242170Y-78535830D01*
X178238336Y-78536452D01*
X178234571Y-78537139D01*
X178230874Y-78537892D01*
X178227245Y-78538710D01*
X178223684Y-78539593D01*
X178220191Y-78540542D01*
X178216767Y-78541557D01*
X178213411Y-78542637D01*
X178210124Y-78543782D01*
X178203753Y-78546269D01*
X178197656Y-78549018D01*
X178191832Y-78552029D01*
X178186281Y-78555301D01*
X178181004Y-78558835D01*
X178175999Y-78562631D01*
X178171268Y-78566689D01*
X178168749Y-78569052D01*
X178166309Y-78571459D01*
X178161671Y-78576409D01*
X178157352Y-78581539D01*
X178153353Y-78586848D01*
X178149675Y-78592336D01*
X178146316Y-78598005D01*
X178143276Y-78603853D01*
X178140557Y-78609881D01*
X178138158Y-78616088D01*
X178136079Y-78622475D01*
X178134319Y-78629042D01*
X178133560Y-78632392D01*
X178132880Y-78635788D01*
X178132280Y-78639228D01*
X178131760Y-78642714D01*
X178131320Y-78646244D01*
X178130960Y-78649819D01*
X178130680Y-78653440D01*
X178130480Y-78657105D01*
X178130360Y-78660815D01*
X178130321Y-78664570D01*
X178075269Y-78664570D01*
X178075268Y-78664484D01*
X178075324Y-78659168D01*
X178075491Y-78653917D01*
X178075769Y-78648730D01*
X178076159Y-78643608D01*
X178076660Y-78638551D01*
X178077273Y-78633558D01*
X178077997Y-78628630D01*
X178078832Y-78623767D01*
X178079778Y-78618968D01*
X178080836Y-78614233D01*
X178082006Y-78609564D01*
X178083286Y-78604959D01*
X178084678Y-78600418D01*
X178086182Y-78595942D01*
X178087797Y-78591531D01*
X178089523Y-78587184D01*
X178091360Y-78582902D01*
X178093309Y-78578685D01*
X178095369Y-78574532D01*
X178097541Y-78570444D01*
X178099824Y-78566420D01*
X178102218Y-78562461D01*
X178104724Y-78558567D01*
X178107341Y-78554737D01*
X178110069Y-78550972D01*
X178112909Y-78547272D01*
X178115860Y-78543636D01*
X178118923Y-78540065D01*
X178122097Y-78536558D01*
X178125382Y-78533116D01*
X178128779Y-78529739D01*
X178132287Y-78526426D01*
X178135838Y-78523236D01*
X178139438Y-78520164D01*
X178143088Y-78517210D01*
X178146787Y-78514372D01*
X178150536Y-78511653D01*
X178154334Y-78509051D01*
X178158181Y-78506567D01*
X178162078Y-78504200D01*
X178166025Y-78501950D01*
X178170020Y-78499819D01*
X178174065Y-78497804D01*
X178178160Y-78495908D01*
X178182304Y-78494129D01*
X178186498Y-78492467D01*
X178190740Y-78490923D01*
X178195033Y-78489496D01*
X178197070Y-78488818D01*
X178201280Y-78487526D01*
X178205674Y-78486319D01*
X178210249Y-78485199D01*
X178215007Y-78484166D01*
X178219947Y-78483218D01*
X178225069Y-78482356D01*
X178230374Y-78481581D01*
X178235861Y-78480892D01*
X178241531Y-78480289D01*
X178247382Y-78479772D01*
X178253416Y-78479341D01*
X178259633Y-78478996D01*
X178266031Y-78478738D01*
X178272612Y-78478566D01*
X178279376Y-78478480D01*
X178282826Y-78478469D01*
X178360104Y-78478469D01*
X178360104Y-78850500D01*
G37*
G36*
X177897117Y-78708936D02*
G01*
X177787697Y-78708936D01*
X177787697Y-78757492D01*
X177897117Y-78757492D01*
X177897117Y-78708936D01*
G37*
D10*
G36*
X175639839Y-79705789D02*
G01*
X175614535Y-79705789D01*
X175609872Y-79705758D01*
X175605308Y-79705666D01*
X175600843Y-79705513D01*
X175596477Y-79705298D01*
X175592209Y-79705021D01*
X175588040Y-79704683D01*
X175583971Y-79704284D01*
X175580000Y-79703823D01*
X175576127Y-79703301D01*
X175572354Y-79702717D01*
X175568679Y-79702072D01*
X175565104Y-79701365D01*
X175561627Y-79700597D01*
X175558249Y-79699768D01*
X175553367Y-79698408D01*
X175551789Y-79697924D01*
X175547136Y-79696284D01*
X175542568Y-79694472D01*
X175538086Y-79692489D01*
X175533689Y-79690335D01*
X175529378Y-79688009D01*
X175525153Y-79685512D01*
X175521014Y-79682844D01*
X175516960Y-79680005D01*
X175512991Y-79676994D01*
X175509109Y-79673812D01*
X175506568Y-79671595D01*
X175504017Y-79669244D01*
X175501547Y-79666848D01*
X175496851Y-79661926D01*
X175492478Y-79656828D01*
X175488429Y-79651554D01*
X175484704Y-79646105D01*
X175481303Y-79640480D01*
X175478226Y-79634679D01*
X175475473Y-79628703D01*
X175473043Y-79622551D01*
X175470938Y-79616224D01*
X175469157Y-79609720D01*
X175467699Y-79603041D01*
X175467092Y-79599636D01*
X175466565Y-79596187D01*
X175466120Y-79592694D01*
X175465755Y-79589157D01*
X175465472Y-79585576D01*
X175465270Y-79581951D01*
X175465148Y-79578282D01*
X175465108Y-79574570D01*
X175465148Y-79570815D01*
X175465268Y-79567105D01*
X175465468Y-79563440D01*
X175465747Y-79559819D01*
X175466107Y-79556244D01*
X175466547Y-79552714D01*
X175467067Y-79549228D01*
X175467667Y-79545788D01*
X175468347Y-79542392D01*
X175469106Y-79539042D01*
X175470866Y-79532475D01*
X175472945Y-79526088D01*
X175475344Y-79519881D01*
X175478064Y-79513853D01*
X175481103Y-79508005D01*
X175484462Y-79502336D01*
X175488141Y-79496848D01*
X175492139Y-79491539D01*
X175496458Y-79486409D01*
X175501097Y-79481459D01*
X175503536Y-79479052D01*
X175506055Y-79476689D01*
X175510786Y-79472631D01*
X175515791Y-79468835D01*
X175521069Y-79465301D01*
X175526619Y-79462029D01*
X175532443Y-79459018D01*
X175538541Y-79456269D01*
X175544911Y-79453782D01*
X175548198Y-79452637D01*
X175551554Y-79451557D01*
X175554979Y-79450542D01*
X175558471Y-79449593D01*
X175562032Y-79448710D01*
X175565661Y-79447892D01*
X175569358Y-79447139D01*
X175573124Y-79446452D01*
X175576958Y-79445830D01*
X175580860Y-79445274D01*
X175584830Y-79444783D01*
X175588869Y-79444357D01*
X175592976Y-79443997D01*
X175597151Y-79443703D01*
X175601395Y-79443474D01*
X175605707Y-79443310D01*
X175610087Y-79443212D01*
X175614535Y-79443179D01*
X175639839Y-79443179D01*
X175639839Y-79705789D01*
G37*
G36*
X175284221Y-79705789D02*
G01*
X175258918Y-79705789D01*
X175254255Y-79705758D01*
X175249691Y-79705666D01*
X175245226Y-79705513D01*
X175240859Y-79705298D01*
X175236592Y-79705021D01*
X175232423Y-79704683D01*
X175228353Y-79704284D01*
X175224382Y-79703823D01*
X175220510Y-79703301D01*
X175216736Y-79702717D01*
X175213062Y-79702072D01*
X175209486Y-79701365D01*
X175206009Y-79700597D01*
X175202631Y-79699768D01*
X175197750Y-79698408D01*
X175196172Y-79697924D01*
X175191518Y-79696284D01*
X175186951Y-79694472D01*
X175182468Y-79692489D01*
X175178072Y-79690335D01*
X175173761Y-79688009D01*
X175169536Y-79685512D01*
X175165396Y-79682844D01*
X175161342Y-79680005D01*
X175157374Y-79676994D01*
X175153491Y-79673812D01*
X175150950Y-79671595D01*
X175148400Y-79669244D01*
X175145930Y-79666848D01*
X175141233Y-79661926D01*
X175136860Y-79656828D01*
X175132811Y-79651554D01*
X175129087Y-79646105D01*
X175125685Y-79640480D01*
X175122608Y-79634679D01*
X175119855Y-79628703D01*
X175117426Y-79622551D01*
X175115320Y-79616224D01*
X175113539Y-79609720D01*
X175112081Y-79603041D01*
X175111474Y-79599636D01*
X175110948Y-79596187D01*
X175110502Y-79592694D01*
X175110138Y-79589157D01*
X175109854Y-79585576D01*
X175109652Y-79581951D01*
X175109531Y-79578282D01*
X175109490Y-79574570D01*
X175109530Y-79570815D01*
X175109650Y-79567105D01*
X175109850Y-79563440D01*
X175110130Y-79559819D01*
X175110490Y-79556244D01*
X175110930Y-79552714D01*
X175111449Y-79549228D01*
X175112049Y-79545788D01*
X175112729Y-79542392D01*
X175113489Y-79539042D01*
X175115248Y-79532475D01*
X175117328Y-79526088D01*
X175119727Y-79519881D01*
X175122446Y-79513853D01*
X175125485Y-79508005D01*
X175128844Y-79502336D01*
X175132523Y-79496848D01*
X175136522Y-79491539D01*
X175140840Y-79486409D01*
X175145479Y-79481459D01*
X175147918Y-79479052D01*
X175150437Y-79476689D01*
X175155169Y-79472631D01*
X175160173Y-79468835D01*
X175165451Y-79465301D01*
X175171002Y-79462029D01*
X175176826Y-79459018D01*
X175182923Y-79456269D01*
X175189293Y-79453782D01*
X175192581Y-79452637D01*
X175195937Y-79451557D01*
X175199361Y-79450542D01*
X175202853Y-79449593D01*
X175206414Y-79448710D01*
X175210043Y-79447892D01*
X175213740Y-79447139D01*
X175217506Y-79446452D01*
X175221340Y-79445830D01*
X175225242Y-79445274D01*
X175229213Y-79444783D01*
X175233251Y-79444357D01*
X175237358Y-79443997D01*
X175241534Y-79443703D01*
X175245777Y-79443474D01*
X175250089Y-79443310D01*
X175254469Y-79443212D01*
X175258918Y-79443179D01*
X175284221Y-79443179D01*
X175284221Y-79705789D01*
G37*
G36*
X176223119Y-79942598D02*
G01*
X174899438Y-79942598D01*
X174899438Y-79574484D01*
X175054438Y-79574484D01*
X175054439Y-79574570D01*
X175054496Y-79579816D01*
X175054670Y-79585084D01*
X175054960Y-79590288D01*
X175055366Y-79595428D01*
X175055888Y-79600504D01*
X175056526Y-79605515D01*
X175057281Y-79610463D01*
X175058151Y-79615346D01*
X175059137Y-79620165D01*
X175060240Y-79624920D01*
X175061458Y-79629611D01*
X175062793Y-79634238D01*
X175064243Y-79638801D01*
X175065810Y-79643300D01*
X175067492Y-79647734D01*
X175069291Y-79652105D01*
X175071205Y-79656411D01*
X175073236Y-79660653D01*
X175075383Y-79664831D01*
X175077646Y-79668945D01*
X175080024Y-79672995D01*
X175082519Y-79676981D01*
X175085130Y-79680902D01*
X175087857Y-79684760D01*
X175090700Y-79688553D01*
X175093659Y-79692282D01*
X175096734Y-79695948D01*
X175099925Y-79699549D01*
X175103232Y-79703086D01*
X175106655Y-79706558D01*
X175110195Y-79709967D01*
X175113850Y-79713312D01*
X175117590Y-79716551D01*
X175121354Y-79719666D01*
X175125140Y-79722655D01*
X175128949Y-79725520D01*
X175132780Y-79728260D01*
X175136634Y-79730875D01*
X175140511Y-79733365D01*
X175144411Y-79735730D01*
X175148333Y-79737971D01*
X175152278Y-79740086D01*
X175156246Y-79742076D01*
X175160236Y-79743942D01*
X175164249Y-79745683D01*
X175168285Y-79747299D01*
X175172344Y-79748790D01*
X175176425Y-79750156D01*
X175180339Y-79751408D01*
X175184454Y-79752580D01*
X175188768Y-79753671D01*
X175193281Y-79754681D01*
X175197995Y-79755610D01*
X175202908Y-79756459D01*
X175208021Y-79757227D01*
X175213333Y-79757914D01*
X175218845Y-79758520D01*
X175224557Y-79759045D01*
X175230468Y-79759489D01*
X175236580Y-79759853D01*
X175242890Y-79760136D01*
X175249401Y-79760338D01*
X175256111Y-79760459D01*
X175259541Y-79760489D01*
X175263021Y-79760500D01*
X175339274Y-79760500D01*
X175339274Y-79574484D01*
X175410055Y-79574484D01*
X175410056Y-79574570D01*
X175410113Y-79579816D01*
X175410287Y-79585084D01*
X175410578Y-79590288D01*
X175410984Y-79595428D01*
X175411506Y-79600504D01*
X175412144Y-79605515D01*
X175412898Y-79610463D01*
X175413769Y-79615346D01*
X175414755Y-79620165D01*
X175415857Y-79624920D01*
X175417076Y-79629611D01*
X175418410Y-79634238D01*
X175419861Y-79638801D01*
X175421427Y-79643300D01*
X175423110Y-79647734D01*
X175424908Y-79652105D01*
X175426823Y-79656411D01*
X175428854Y-79660653D01*
X175431000Y-79664831D01*
X175433263Y-79668945D01*
X175435642Y-79672995D01*
X175438137Y-79676981D01*
X175440748Y-79680902D01*
X175443475Y-79684760D01*
X175446318Y-79688553D01*
X175449277Y-79692282D01*
X175452352Y-79695948D01*
X175455543Y-79699549D01*
X175458850Y-79703086D01*
X175462273Y-79706558D01*
X175465812Y-79709967D01*
X175469467Y-79713312D01*
X175473208Y-79716551D01*
X175476971Y-79719666D01*
X175480757Y-79722655D01*
X175484566Y-79725520D01*
X175488398Y-79728260D01*
X175492252Y-79730875D01*
X175496129Y-79733365D01*
X175500028Y-79735730D01*
X175503951Y-79737971D01*
X175507896Y-79740086D01*
X175511863Y-79742076D01*
X175515854Y-79743942D01*
X175519867Y-79745683D01*
X175523903Y-79747299D01*
X175527961Y-79748790D01*
X175532042Y-79750156D01*
X175535957Y-79751408D01*
X175540071Y-79752580D01*
X175544385Y-79753671D01*
X175548899Y-79754681D01*
X175553612Y-79755610D01*
X175558525Y-79756459D01*
X175563638Y-79757227D01*
X175568951Y-79757914D01*
X175574463Y-79758520D01*
X175580174Y-79759045D01*
X175586086Y-79759489D01*
X175592197Y-79759853D01*
X175598508Y-79760136D01*
X175605019Y-79760338D01*
X175611729Y-79760459D01*
X175615159Y-79760489D01*
X175618639Y-79760500D01*
X175694891Y-79760500D01*
X175694891Y-79388469D01*
X175740284Y-79388469D01*
X175906125Y-79787598D01*
X176068119Y-79388469D01*
X176007083Y-79388469D01*
X175904928Y-79645779D01*
X175801320Y-79388469D01*
X175740284Y-79388469D01*
X175694891Y-79388469D01*
X175617613Y-79388469D01*
X175614163Y-79388480D01*
X175607400Y-79388566D01*
X175600819Y-79388738D01*
X175594420Y-79388996D01*
X175588203Y-79389341D01*
X175582169Y-79389772D01*
X175576318Y-79390289D01*
X175570648Y-79390892D01*
X175565161Y-79391581D01*
X175559857Y-79392356D01*
X175554734Y-79393218D01*
X175549794Y-79394166D01*
X175545036Y-79395199D01*
X175540461Y-79396319D01*
X175536068Y-79397526D01*
X175531857Y-79398818D01*
X175529820Y-79399496D01*
X175525528Y-79400923D01*
X175521285Y-79402467D01*
X175517091Y-79404129D01*
X175512947Y-79405908D01*
X175508853Y-79407804D01*
X175504807Y-79409819D01*
X175500812Y-79411950D01*
X175496865Y-79414200D01*
X175492968Y-79416567D01*
X175489121Y-79419051D01*
X175485323Y-79421653D01*
X175481574Y-79424372D01*
X175477875Y-79427210D01*
X175474225Y-79430164D01*
X175470625Y-79433236D01*
X175467074Y-79436426D01*
X175463566Y-79439739D01*
X175460169Y-79443116D01*
X175456884Y-79446558D01*
X175453710Y-79450065D01*
X175450648Y-79453636D01*
X175447696Y-79457272D01*
X175444857Y-79460972D01*
X175442128Y-79464737D01*
X175439511Y-79468567D01*
X175437005Y-79472461D01*
X175434611Y-79476420D01*
X175432328Y-79480444D01*
X175430157Y-79484532D01*
X175428096Y-79488685D01*
X175426147Y-79492902D01*
X175424310Y-79497184D01*
X175422584Y-79501531D01*
X175420969Y-79505942D01*
X175419466Y-79510418D01*
X175418074Y-79514959D01*
X175416793Y-79519564D01*
X175415624Y-79524233D01*
X175414566Y-79528968D01*
X175413619Y-79533767D01*
X175412784Y-79538630D01*
X175412060Y-79543558D01*
X175411447Y-79548551D01*
X175410946Y-79553608D01*
X175410556Y-79558730D01*
X175410278Y-79563917D01*
X175410111Y-79569168D01*
X175410055Y-79574484D01*
X175339274Y-79574484D01*
X175339274Y-79388469D01*
X175261995Y-79388469D01*
X175258545Y-79388480D01*
X175251782Y-79388566D01*
X175245201Y-79388738D01*
X175238802Y-79388996D01*
X175232586Y-79389341D01*
X175226552Y-79389772D01*
X175220700Y-79390289D01*
X175215031Y-79390892D01*
X175209544Y-79391581D01*
X175204239Y-79392356D01*
X175199117Y-79393218D01*
X175194176Y-79394166D01*
X175189419Y-79395199D01*
X175184843Y-79396319D01*
X175180450Y-79397526D01*
X175176239Y-79398818D01*
X175174202Y-79399496D01*
X175169910Y-79400923D01*
X175165667Y-79402467D01*
X175161474Y-79404129D01*
X175157330Y-79405908D01*
X175153235Y-79407804D01*
X175149190Y-79409819D01*
X175145194Y-79411950D01*
X175141248Y-79414200D01*
X175137351Y-79416567D01*
X175133503Y-79419051D01*
X175129705Y-79421653D01*
X175125957Y-79424372D01*
X175122257Y-79427210D01*
X175118608Y-79430164D01*
X175115007Y-79433236D01*
X175111456Y-79436426D01*
X175107948Y-79439739D01*
X175104552Y-79443116D01*
X175101266Y-79446558D01*
X175098093Y-79450065D01*
X175095030Y-79453636D01*
X175092079Y-79457272D01*
X175089239Y-79460972D01*
X175086511Y-79464737D01*
X175083894Y-79468567D01*
X175081388Y-79472461D01*
X175078994Y-79476420D01*
X175076711Y-79480444D01*
X175074539Y-79484532D01*
X175072479Y-79488685D01*
X175070530Y-79492902D01*
X175068692Y-79497184D01*
X175066966Y-79501531D01*
X175065351Y-79505942D01*
X175063848Y-79510418D01*
X175062456Y-79514959D01*
X175061175Y-79519564D01*
X175060006Y-79524233D01*
X175058948Y-79528968D01*
X175058001Y-79533767D01*
X175057166Y-79538630D01*
X175056442Y-79543558D01*
X175055830Y-79548551D01*
X175055329Y-79553608D01*
X175054939Y-79558730D01*
X175054660Y-79563917D01*
X175054493Y-79569168D01*
X175054438Y-79574484D01*
X174899438Y-79574484D01*
X174899438Y-79233469D01*
X176223119Y-79233469D01*
X176223119Y-79942598D01*
G37*
D13*
G36*
X184441179Y-78488469D02*
G01*
X184441179Y-78805789D01*
X184332100Y-78805789D01*
X184332100Y-78860500D01*
X184496231Y-78860500D01*
X184496231Y-78488469D01*
X184441179Y-78488469D01*
G37*
G36*
X184073935Y-78543179D02*
G01*
X184224047Y-78543179D01*
X184224047Y-78630716D01*
X184079406Y-78630716D01*
X184079406Y-78685426D01*
X184224047Y-78685426D01*
X184224047Y-78805789D01*
X184073935Y-78805789D01*
X184073935Y-78860500D01*
X184279099Y-78860500D01*
X184279099Y-78488469D01*
X184073935Y-78488469D01*
X184073935Y-78543179D01*
G37*
G36*
X184002128Y-78860500D02*
G01*
X183925875Y-78860500D01*
X183922395Y-78860489D01*
X183918965Y-78860459D01*
X183912255Y-78860338D01*
X183905745Y-78860136D01*
X183899434Y-78859853D01*
X183893323Y-78859489D01*
X183887411Y-78859045D01*
X183881699Y-78858520D01*
X183876187Y-78857914D01*
X183870875Y-78857227D01*
X183865762Y-78856459D01*
X183860849Y-78855610D01*
X183856136Y-78854681D01*
X183851622Y-78853671D01*
X183847308Y-78852580D01*
X183843194Y-78851408D01*
X183839279Y-78850156D01*
X183835198Y-78848790D01*
X183831139Y-78847299D01*
X183827103Y-78845683D01*
X183823090Y-78843942D01*
X183819100Y-78842076D01*
X183815132Y-78840086D01*
X183811187Y-78837971D01*
X183807265Y-78835730D01*
X183803365Y-78833365D01*
X183799488Y-78830875D01*
X183795634Y-78828260D01*
X183791803Y-78825520D01*
X183787994Y-78822655D01*
X183784208Y-78819666D01*
X183780445Y-78816551D01*
X183776704Y-78813312D01*
X183773049Y-78809967D01*
X183769510Y-78806558D01*
X183766086Y-78803086D01*
X183762779Y-78799549D01*
X183759588Y-78795948D01*
X183756513Y-78792282D01*
X183753554Y-78788553D01*
X183750711Y-78784760D01*
X183747984Y-78780902D01*
X183745373Y-78776981D01*
X183742879Y-78772995D01*
X183740500Y-78768945D01*
X183738237Y-78764831D01*
X183736090Y-78760653D01*
X183734060Y-78756411D01*
X183732145Y-78752105D01*
X183730346Y-78747734D01*
X183728664Y-78743300D01*
X183727097Y-78738801D01*
X183725647Y-78734238D01*
X183724312Y-78729611D01*
X183723094Y-78724920D01*
X183721991Y-78720165D01*
X183721005Y-78715346D01*
X183720135Y-78710463D01*
X183719381Y-78705515D01*
X183718742Y-78700504D01*
X183718220Y-78695428D01*
X183717814Y-78690288D01*
X183717524Y-78685084D01*
X183717350Y-78679816D01*
X183717293Y-78674570D01*
X183772344Y-78674570D01*
X183772385Y-78678282D01*
X183772506Y-78681951D01*
X183772709Y-78685576D01*
X183772992Y-78689157D01*
X183773356Y-78692694D01*
X183773802Y-78696187D01*
X183774328Y-78699636D01*
X183774935Y-78703041D01*
X183776393Y-78709720D01*
X183778175Y-78716224D01*
X183780280Y-78722551D01*
X183782709Y-78728703D01*
X183785463Y-78734679D01*
X183788540Y-78740480D01*
X183791941Y-78746105D01*
X183795666Y-78751554D01*
X183799714Y-78756828D01*
X183804087Y-78761926D01*
X183808784Y-78766848D01*
X183811254Y-78769244D01*
X183813804Y-78771595D01*
X183816345Y-78773812D01*
X183820228Y-78776994D01*
X183824196Y-78780005D01*
X183828250Y-78782844D01*
X183832390Y-78785512D01*
X183836615Y-78788009D01*
X183840926Y-78790335D01*
X183845322Y-78792489D01*
X183849805Y-78794472D01*
X183854373Y-78796284D01*
X183859026Y-78797924D01*
X183860604Y-78798408D01*
X183865485Y-78799768D01*
X183868863Y-78800597D01*
X183872340Y-78801365D01*
X183875916Y-78802072D01*
X183879591Y-78802717D01*
X183883364Y-78803301D01*
X183887236Y-78803823D01*
X183891207Y-78804284D01*
X183895277Y-78804683D01*
X183899446Y-78805021D01*
X183903713Y-78805298D01*
X183908080Y-78805513D01*
X183912545Y-78805666D01*
X183917109Y-78805758D01*
X183921772Y-78805789D01*
X183947076Y-78805789D01*
X183947076Y-78543179D01*
X183921772Y-78543179D01*
X183917324Y-78543212D01*
X183912943Y-78543310D01*
X183908631Y-78543474D01*
X183904388Y-78543703D01*
X183900213Y-78543997D01*
X183896105Y-78544357D01*
X183892067Y-78544783D01*
X183888096Y-78545274D01*
X183884194Y-78545830D01*
X183880360Y-78546452D01*
X183876595Y-78547139D01*
X183872897Y-78547892D01*
X183869268Y-78548710D01*
X183865708Y-78549593D01*
X183862215Y-78550542D01*
X183858791Y-78551557D01*
X183855435Y-78552637D01*
X183852147Y-78553782D01*
X183845777Y-78556269D01*
X183839680Y-78559018D01*
X183833856Y-78562029D01*
X183828305Y-78565301D01*
X183823027Y-78568835D01*
X183818023Y-78572631D01*
X183813292Y-78576689D01*
X183810772Y-78579052D01*
X183808333Y-78581459D01*
X183803695Y-78586409D01*
X183799376Y-78591539D01*
X183795377Y-78596848D01*
X183791698Y-78602336D01*
X183788339Y-78608005D01*
X183785300Y-78613853D01*
X183782581Y-78619881D01*
X183780182Y-78626088D01*
X183778102Y-78632475D01*
X183776343Y-78639042D01*
X183775583Y-78642392D01*
X183774903Y-78645788D01*
X183774304Y-78649228D01*
X183773784Y-78652714D01*
X183773344Y-78656244D01*
X183772984Y-78659819D01*
X183772704Y-78663440D01*
X183772504Y-78667105D01*
X183772384Y-78670815D01*
X183772344Y-78674570D01*
X183717293Y-78674570D01*
X183717292Y-78674484D01*
X183717348Y-78669168D01*
X183717515Y-78663917D01*
X183717793Y-78658730D01*
X183718183Y-78653608D01*
X183718684Y-78648551D01*
X183719296Y-78643558D01*
X183720020Y-78638630D01*
X183720856Y-78633767D01*
X183721802Y-78628968D01*
X183722860Y-78624233D01*
X183724029Y-78619564D01*
X183725310Y-78614959D01*
X183726702Y-78610418D01*
X183728206Y-78605942D01*
X183729820Y-78601531D01*
X183731547Y-78597184D01*
X183733384Y-78592902D01*
X183735333Y-78588685D01*
X183737393Y-78584532D01*
X183739565Y-78580444D01*
X183741848Y-78576420D01*
X183744242Y-78572461D01*
X183746748Y-78568567D01*
X183749365Y-78564737D01*
X183752093Y-78560972D01*
X183754933Y-78557272D01*
X183757884Y-78553636D01*
X183760947Y-78550065D01*
X183764121Y-78546558D01*
X183767406Y-78543116D01*
X183770802Y-78539739D01*
X183774310Y-78536426D01*
X183777861Y-78533236D01*
X183781462Y-78530164D01*
X183785112Y-78527210D01*
X183788811Y-78524372D01*
X183792559Y-78521653D01*
X183796358Y-78519051D01*
X183800205Y-78516567D01*
X183804102Y-78514200D01*
X183808048Y-78511950D01*
X183812044Y-78509819D01*
X183816089Y-78507804D01*
X183820184Y-78505908D01*
X183824328Y-78504129D01*
X183828521Y-78502467D01*
X183832764Y-78500923D01*
X183837056Y-78499496D01*
X183839093Y-78498818D01*
X183843304Y-78497526D01*
X183847697Y-78496319D01*
X183852273Y-78495199D01*
X183857031Y-78494166D01*
X183861971Y-78493218D01*
X183867093Y-78492356D01*
X183872398Y-78491581D01*
X183877885Y-78490892D01*
X183883554Y-78490289D01*
X183889406Y-78489772D01*
X183895440Y-78489341D01*
X183901656Y-78488996D01*
X183908055Y-78488738D01*
X183914636Y-78488566D01*
X183921399Y-78488480D01*
X183924849Y-78488469D01*
X184002128Y-78488469D01*
X184002128Y-78860500D01*
G37*
G36*
X183440321Y-78488469D02*
G01*
X183440321Y-78860500D01*
X183495373Y-78860500D01*
X183495373Y-78488469D01*
X183440321Y-78488469D01*
G37*
G36*
X183351074Y-78860500D02*
G01*
X183351074Y-78463251D01*
X183082993Y-78746975D01*
X183082993Y-78488469D01*
X183027941Y-78488469D01*
X183027941Y-78883068D01*
X183296022Y-78600027D01*
X183296022Y-78860500D01*
X183351074Y-78860500D01*
G37*
D11*
G36*
X190865969Y-82078361D02*
G01*
X190737192Y-82078361D01*
X190649082Y-81884921D01*
X190310195Y-81884921D01*
X190227030Y-82078361D01*
X190096421Y-82078361D01*
X190234455Y-81767684D01*
X190358921Y-81767684D01*
X190599256Y-81767684D01*
X190476158Y-81497124D01*
X190358921Y-81767684D01*
X190234455Y-81767684D01*
X190474143Y-81228213D01*
X190865969Y-82078361D01*
G37*
G36*
X190025347Y-82072500D02*
G01*
X189858834Y-81217222D01*
X189586992Y-81835462D01*
X189305624Y-81217222D01*
X189155964Y-82072500D01*
X189278330Y-82072500D01*
X189354717Y-81592196D01*
X189589190Y-82109136D01*
X189816702Y-81591830D01*
X189901882Y-82072500D01*
X190025347Y-82072500D01*
G37*
G36*
X188622856Y-81251962D02*
G01*
X188633338Y-81252319D01*
X188643724Y-81252914D01*
X188654014Y-81253747D01*
X188664208Y-81254818D01*
X188674308Y-81256126D01*
X188684311Y-81257673D01*
X188694219Y-81259457D01*
X188704032Y-81261479D01*
X188713749Y-81263740D01*
X188723371Y-81266238D01*
X188732897Y-81268974D01*
X188742327Y-81271948D01*
X188751662Y-81275160D01*
X188760901Y-81278610D01*
X188770045Y-81282298D01*
X188779094Y-81286223D01*
X188788047Y-81290387D01*
X188796904Y-81294788D01*
X188805666Y-81299428D01*
X188814332Y-81304305D01*
X188822903Y-81309421D01*
X188831378Y-81314774D01*
X188839758Y-81320365D01*
X188848042Y-81326194D01*
X188856230Y-81332261D01*
X188864323Y-81338566D01*
X188872321Y-81345109D01*
X188880223Y-81351890D01*
X188888030Y-81358908D01*
X188895741Y-81366165D01*
X188903356Y-81373660D01*
X188910839Y-81381308D01*
X188918085Y-81389051D01*
X188925093Y-81396886D01*
X188931864Y-81404815D01*
X188938397Y-81412837D01*
X188944692Y-81420953D01*
X188950750Y-81429162D01*
X188956571Y-81437464D01*
X188962153Y-81445860D01*
X188967498Y-81454349D01*
X188972606Y-81462932D01*
X188977476Y-81471608D01*
X188982109Y-81480377D01*
X188986504Y-81489240D01*
X188990661Y-81498196D01*
X188994581Y-81507245D01*
X188998263Y-81516388D01*
X189001708Y-81525624D01*
X189004915Y-81534954D01*
X189007884Y-81544377D01*
X189010616Y-81553893D01*
X189013111Y-81563503D01*
X189015368Y-81573206D01*
X189017387Y-81583002D01*
X189019169Y-81592892D01*
X189020713Y-81602876D01*
X189022019Y-81612952D01*
X189023089Y-81623122D01*
X189023920Y-81633386D01*
X189024514Y-81643742D01*
X189024870Y-81654193D01*
X189024989Y-81664736D01*
X189024859Y-81676709D01*
X189024468Y-81688538D01*
X189023817Y-81700223D01*
X189022905Y-81711765D01*
X189021733Y-81723164D01*
X189020301Y-81734419D01*
X189018608Y-81745531D01*
X189016654Y-81756499D01*
X189014440Y-81767324D01*
X189011966Y-81778005D01*
X189009231Y-81788543D01*
X189006236Y-81798937D01*
X189002980Y-81809188D01*
X188999464Y-81819295D01*
X188995687Y-81829259D01*
X188991650Y-81839080D01*
X188987352Y-81848757D01*
X188982794Y-81858290D01*
X188977976Y-81867680D01*
X188972897Y-81876927D01*
X188967557Y-81886030D01*
X188961957Y-81894990D01*
X188956097Y-81903806D01*
X188949976Y-81912478D01*
X188943595Y-81921008D01*
X188936953Y-81929393D01*
X188930051Y-81937636D01*
X188922888Y-81945735D01*
X188915465Y-81953690D01*
X188907781Y-81961502D01*
X188899837Y-81969170D01*
X188891632Y-81976695D01*
X188884034Y-81983311D01*
X188876375Y-81989716D01*
X188868656Y-81995912D01*
X188860875Y-82001897D01*
X188853034Y-82007673D01*
X188845131Y-82013238D01*
X188837168Y-82018593D01*
X188829144Y-82023739D01*
X188821060Y-82028674D01*
X188812914Y-82033399D01*
X188804708Y-82037915D01*
X188796441Y-82042220D01*
X188788113Y-82046315D01*
X188779724Y-82050201D01*
X188771274Y-82053876D01*
X188762764Y-82057341D01*
X188754193Y-82060596D01*
X188745560Y-82063642D01*
X188736868Y-82066477D01*
X188728114Y-82069102D01*
X188719299Y-82071517D01*
X188710424Y-82073722D01*
X188701488Y-82075718D01*
X188692491Y-82077503D01*
X188683433Y-82079078D01*
X188674314Y-82080443D01*
X188665135Y-82081598D01*
X188655894Y-82082543D01*
X188646593Y-82083278D01*
X188637231Y-82083803D01*
X188627808Y-82084118D01*
X188618325Y-82084223D01*
X188607624Y-82084105D01*
X188597021Y-82083749D01*
X188586518Y-82083157D01*
X188576113Y-82082328D01*
X188565807Y-82081263D01*
X188555599Y-82079960D01*
X188545490Y-82078420D01*
X188535481Y-82076644D01*
X188525569Y-82074631D01*
X188515757Y-82072381D01*
X188506043Y-82069894D01*
X188496428Y-82067170D01*
X188486912Y-82064209D01*
X188477495Y-82061012D01*
X188468176Y-82057578D01*
X188458956Y-82053907D01*
X188449835Y-82049999D01*
X188440813Y-82045854D01*
X188431889Y-82041472D01*
X188423064Y-82036853D01*
X188414338Y-82031998D01*
X188405710Y-82026906D01*
X188397182Y-82021577D01*
X188388752Y-82016011D01*
X188380420Y-82010208D01*
X188372188Y-82004168D01*
X188364054Y-81997892D01*
X188356019Y-81991378D01*
X188348083Y-81984628D01*
X188340246Y-81977641D01*
X188332507Y-81970417D01*
X188324867Y-81962957D01*
X188317406Y-81955372D01*
X188310182Y-81947684D01*
X188303195Y-81939894D01*
X188296445Y-81932002D01*
X188289932Y-81924006D01*
X188283655Y-81915908D01*
X188277616Y-81907707D01*
X188271813Y-81899404D01*
X188266247Y-81890998D01*
X188260918Y-81882489D01*
X188255825Y-81873877D01*
X188250970Y-81865163D01*
X188246352Y-81856346D01*
X188241970Y-81847427D01*
X188237825Y-81838404D01*
X188233917Y-81829279D01*
X188230246Y-81820052D01*
X188226812Y-81810721D01*
X188223614Y-81801289D01*
X188220653Y-81791753D01*
X188217930Y-81782114D01*
X188215443Y-81772373D01*
X188213193Y-81762530D01*
X188211179Y-81752583D01*
X188209403Y-81742534D01*
X188207864Y-81732383D01*
X188206561Y-81722128D01*
X188205495Y-81711771D01*
X188204666Y-81701311D01*
X188204074Y-81690749D01*
X188203719Y-81680083D01*
X188203600Y-81669316D01*
X188203614Y-81668033D01*
X188321570Y-81668033D01*
X188321653Y-81675827D01*
X188321904Y-81683547D01*
X188322322Y-81691193D01*
X188322906Y-81698765D01*
X188323658Y-81706263D01*
X188324577Y-81713686D01*
X188325663Y-81721036D01*
X188326916Y-81728312D01*
X188329924Y-81742641D01*
X188333600Y-81756673D01*
X188337944Y-81770410D01*
X188342956Y-81783850D01*
X188348637Y-81796994D01*
X188354986Y-81809842D01*
X188362004Y-81822394D01*
X188369689Y-81834649D01*
X188378043Y-81846608D01*
X188382471Y-81852476D01*
X188387066Y-81858271D01*
X188391828Y-81863991D01*
X188396757Y-81869637D01*
X188401853Y-81875210D01*
X188407116Y-81880708D01*
X188412489Y-81886016D01*
X188417938Y-81891156D01*
X188423464Y-81896127D01*
X188429066Y-81900929D01*
X188434744Y-81905564D01*
X188446329Y-81914326D01*
X188458219Y-81922415D01*
X188470413Y-81929829D01*
X188482912Y-81936570D01*
X188495717Y-81942636D01*
X188508826Y-81948029D01*
X188522239Y-81952747D01*
X188535958Y-81956792D01*
X188549981Y-81960162D01*
X188564310Y-81962858D01*
X188571588Y-81963953D01*
X188578943Y-81964880D01*
X188586374Y-81965638D01*
X188593881Y-81966228D01*
X188601464Y-81966650D01*
X188609124Y-81966902D01*
X188616859Y-81966987D01*
X188631087Y-81966655D01*
X188645104Y-81965661D01*
X188658908Y-81964005D01*
X188672501Y-81961686D01*
X188685882Y-81958704D01*
X188699051Y-81955060D01*
X188712008Y-81950753D01*
X188724754Y-81945783D01*
X188737287Y-81940151D01*
X188749609Y-81933856D01*
X188761719Y-81926899D01*
X188773617Y-81919279D01*
X188785304Y-81910997D01*
X188796778Y-81902051D01*
X188802436Y-81897330D01*
X188808041Y-81892444D01*
X188813593Y-81887391D01*
X188819092Y-81882173D01*
X188824502Y-81876827D01*
X188829740Y-81871390D01*
X188834806Y-81865862D01*
X188839700Y-81860243D01*
X188844423Y-81854533D01*
X188848974Y-81848733D01*
X188857561Y-81836859D01*
X188865460Y-81824621D01*
X188872673Y-81812020D01*
X188879199Y-81799056D01*
X188885038Y-81785728D01*
X188890190Y-81772036D01*
X188892508Y-81765054D01*
X188894655Y-81757981D01*
X188896630Y-81750818D01*
X188898433Y-81743563D01*
X188900065Y-81736218D01*
X188901524Y-81728781D01*
X188902812Y-81721254D01*
X188903929Y-81713636D01*
X188904873Y-81705927D01*
X188905646Y-81698127D01*
X188906247Y-81690236D01*
X188906676Y-81682254D01*
X188906934Y-81674182D01*
X188907020Y-81666018D01*
X188906937Y-81658226D01*
X188906688Y-81650512D01*
X188906273Y-81642876D01*
X188905692Y-81635318D01*
X188904945Y-81627838D01*
X188904032Y-81620436D01*
X188902953Y-81613112D01*
X188901707Y-81605866D01*
X188898719Y-81591608D01*
X188895067Y-81577662D01*
X188890751Y-81564027D01*
X188885771Y-81550705D01*
X188880126Y-81537695D01*
X188873818Y-81524997D01*
X188866846Y-81512610D01*
X188859209Y-81500536D01*
X188850909Y-81488774D01*
X188841944Y-81477324D01*
X188837213Y-81471715D01*
X188832316Y-81466185D01*
X188827253Y-81460733D01*
X188822023Y-81455359D01*
X188816685Y-81450051D01*
X188811271Y-81444911D01*
X188805781Y-81439940D01*
X188800216Y-81435137D01*
X188788859Y-81426038D01*
X188777201Y-81417612D01*
X188765240Y-81409860D01*
X188752978Y-81402783D01*
X188740413Y-81396379D01*
X188727547Y-81390650D01*
X188714379Y-81385594D01*
X188700908Y-81381213D01*
X188687136Y-81377506D01*
X188673062Y-81374473D01*
X188658686Y-81372113D01*
X188651384Y-81371187D01*
X188644007Y-81370428D01*
X188636555Y-81369838D01*
X188629027Y-81369417D01*
X188621424Y-81369164D01*
X188613745Y-81369080D01*
X188606045Y-81369164D01*
X188598422Y-81369417D01*
X188590878Y-81369838D01*
X188583411Y-81370428D01*
X188576023Y-81371187D01*
X188561480Y-81373209D01*
X188547249Y-81375905D01*
X188533330Y-81379275D01*
X188519723Y-81383319D01*
X188506428Y-81388038D01*
X188493445Y-81393430D01*
X188480774Y-81399497D01*
X188468415Y-81406237D01*
X188456368Y-81413652D01*
X188444633Y-81421740D01*
X188433209Y-81430503D01*
X188422098Y-81439940D01*
X188416660Y-81444911D01*
X188411299Y-81450051D01*
X188406017Y-81455359D01*
X188400821Y-81460768D01*
X188395791Y-81466258D01*
X188390925Y-81471826D01*
X188386224Y-81477475D01*
X188377318Y-81489012D01*
X188369071Y-81500868D01*
X188361484Y-81513043D01*
X188354557Y-81525538D01*
X188348289Y-81538351D01*
X188342681Y-81551484D01*
X188337733Y-81564935D01*
X188333445Y-81578706D01*
X188329816Y-81592796D01*
X188328250Y-81599961D01*
X188326848Y-81607205D01*
X188325611Y-81614530D01*
X188324538Y-81621934D01*
X188323631Y-81629418D01*
X188322889Y-81636981D01*
X188322312Y-81644624D01*
X188321900Y-81652348D01*
X188321652Y-81660151D01*
X188321570Y-81668033D01*
X188203614Y-81668033D01*
X188203718Y-81658613D01*
X188204072Y-81648007D01*
X188204661Y-81637497D01*
X188205487Y-81627084D01*
X188206548Y-81616766D01*
X188207844Y-81606545D01*
X188209377Y-81596420D01*
X188211145Y-81586391D01*
X188213149Y-81576459D01*
X188215389Y-81566623D01*
X188217865Y-81556883D01*
X188220576Y-81547239D01*
X188223523Y-81537692D01*
X188226706Y-81528240D01*
X188230125Y-81518885D01*
X188233780Y-81509627D01*
X188237670Y-81500464D01*
X188241796Y-81491398D01*
X188246158Y-81482428D01*
X188250755Y-81473554D01*
X188255589Y-81464776D01*
X188260658Y-81456095D01*
X188265963Y-81447510D01*
X188271504Y-81439021D01*
X188277280Y-81430629D01*
X188283292Y-81422332D01*
X188289540Y-81414132D01*
X188296024Y-81406029D01*
X188302744Y-81398021D01*
X188309699Y-81390110D01*
X188316890Y-81382294D01*
X188324317Y-81374576D01*
X188331863Y-81367025D01*
X188339503Y-81359713D01*
X188347236Y-81352642D01*
X188355063Y-81345810D01*
X188362984Y-81339218D01*
X188370999Y-81332866D01*
X188379107Y-81326753D01*
X188387309Y-81320880D01*
X188395605Y-81315247D01*
X188403994Y-81309854D01*
X188412478Y-81304700D01*
X188421055Y-81299786D01*
X188429725Y-81295111D01*
X188438490Y-81290677D01*
X188447348Y-81286482D01*
X188456300Y-81282527D01*
X188465346Y-81278811D01*
X188474485Y-81275335D01*
X188483718Y-81272099D01*
X188493045Y-81269103D01*
X188502466Y-81266346D01*
X188511980Y-81263829D01*
X188521588Y-81261552D01*
X188531290Y-81259514D01*
X188541086Y-81257716D01*
X188550975Y-81256158D01*
X188560958Y-81254840D01*
X188571035Y-81253761D01*
X188581206Y-81252922D01*
X188591470Y-81252323D01*
X188601828Y-81251963D01*
X188612280Y-81251844D01*
X188622856Y-81251962D01*
G37*
G36*
X187612288Y-81392527D02*
G01*
X187933956Y-81392527D01*
X187933956Y-81580106D01*
X187624012Y-81580106D01*
X187624012Y-81697342D01*
X187933956Y-81697342D01*
X187933956Y-81955263D01*
X187612288Y-81955263D01*
X187612288Y-82072500D01*
X188051926Y-82072500D01*
X188051926Y-81275291D01*
X187612288Y-81275291D01*
X187612288Y-81392527D01*
G37*
G36*
X187458415Y-82072500D02*
G01*
X187277615Y-82072500D01*
X187272581Y-82072485D01*
X187262672Y-82072367D01*
X187252974Y-82072133D01*
X187243489Y-82071781D01*
X187234216Y-82071311D01*
X187225154Y-82070725D01*
X187216304Y-82070020D01*
X187207666Y-82069199D01*
X187199239Y-82068260D01*
X187191025Y-82067204D01*
X187183022Y-82066031D01*
X187175231Y-82064740D01*
X187167652Y-82063331D01*
X187160284Y-82061806D01*
X187153129Y-82060163D01*
X187142793Y-82057479D01*
X187136694Y-82055459D01*
X187127688Y-82052071D01*
X187118853Y-82048251D01*
X187110188Y-82043999D01*
X187101695Y-82039316D01*
X187093372Y-82034202D01*
X187085219Y-82028656D01*
X187077237Y-82022679D01*
X187069426Y-82016270D01*
X187061785Y-82009429D01*
X187054316Y-82002158D01*
X187046374Y-81993984D01*
X187038945Y-81985585D01*
X187032029Y-81976960D01*
X187025625Y-81968109D01*
X187019733Y-81959031D01*
X187014353Y-81949727D01*
X187009486Y-81940198D01*
X187005131Y-81930442D01*
X187001289Y-81920460D01*
X186997958Y-81910252D01*
X186995141Y-81899817D01*
X186992835Y-81889157D01*
X186991042Y-81878271D01*
X186989761Y-81867158D01*
X186988993Y-81855819D01*
X186988736Y-81844255D01*
X186988827Y-81838759D01*
X187106706Y-81838759D01*
X187106863Y-81845147D01*
X187107690Y-81854468D01*
X187109224Y-81863477D01*
X187111468Y-81872174D01*
X187114419Y-81880558D01*
X187118079Y-81888630D01*
X187122448Y-81896390D01*
X187127525Y-81903837D01*
X187133310Y-81910972D01*
X187139804Y-81917795D01*
X187147006Y-81924305D01*
X187151937Y-81928054D01*
X187159964Y-81933224D01*
X187168747Y-81937849D01*
X187178288Y-81941931D01*
X187188585Y-81945468D01*
X187195870Y-81947523D01*
X187203491Y-81949337D01*
X187211449Y-81950909D01*
X187219743Y-81952240D01*
X187228373Y-81953328D01*
X187237340Y-81954175D01*
X187246643Y-81954779D01*
X187256282Y-81955142D01*
X187266257Y-81955263D01*
X187340446Y-81955263D01*
X187340446Y-81720790D01*
X187279813Y-81720790D01*
X187273825Y-81720823D01*
X187262196Y-81721086D01*
X187251028Y-81721613D01*
X187240320Y-81722403D01*
X187230074Y-81723456D01*
X187220288Y-81724773D01*
X187210962Y-81726353D01*
X187202098Y-81728196D01*
X187193695Y-81730302D01*
X187185752Y-81732672D01*
X187178270Y-81735306D01*
X187171249Y-81738202D01*
X187161582Y-81743041D01*
X187152951Y-81748472D01*
X187145357Y-81754495D01*
X187140677Y-81758817D01*
X187134222Y-81765536D01*
X187128447Y-81772539D01*
X187123351Y-81779825D01*
X187118935Y-81787394D01*
X187115198Y-81795246D01*
X187112141Y-81803382D01*
X187109763Y-81811801D01*
X187108065Y-81820504D01*
X187107045Y-81829490D01*
X187106706Y-81838759D01*
X186988827Y-81838759D01*
X186988882Y-81835437D01*
X186989317Y-81826755D01*
X186990044Y-81818207D01*
X186991061Y-81809793D01*
X186992368Y-81801514D01*
X186993966Y-81793370D01*
X186995854Y-81785360D01*
X186998033Y-81777485D01*
X187000502Y-81769744D01*
X187003262Y-81762137D01*
X187006313Y-81754666D01*
X187009654Y-81747328D01*
X187013285Y-81740126D01*
X187017207Y-81733057D01*
X187021419Y-81726124D01*
X187025922Y-81719324D01*
X187030607Y-81712674D01*
X187035502Y-81706278D01*
X187040608Y-81700137D01*
X187045924Y-81694251D01*
X187051450Y-81688620D01*
X187057186Y-81683243D01*
X187063133Y-81678121D01*
X187069291Y-81673254D01*
X187075658Y-81668642D01*
X187082237Y-81664284D01*
X187089025Y-81660181D01*
X187096024Y-81656333D01*
X187103233Y-81652739D01*
X187110653Y-81649400D01*
X187118283Y-81646316D01*
X187126123Y-81643487D01*
X187118004Y-81635943D01*
X187110409Y-81628194D01*
X187103338Y-81620241D01*
X187096791Y-81612083D01*
X187090767Y-81603720D01*
X187085268Y-81595153D01*
X187080292Y-81586381D01*
X187075840Y-81577404D01*
X187071911Y-81568223D01*
X187068507Y-81558837D01*
X187065626Y-81549246D01*
X187063269Y-81539451D01*
X187061435Y-81529451D01*
X187060126Y-81519247D01*
X187059340Y-81508837D01*
X187059078Y-81498224D01*
X187059100Y-81496575D01*
X187177048Y-81496575D01*
X187177167Y-81503881D01*
X187177795Y-81514415D01*
X187178960Y-81524441D01*
X187180662Y-81533959D01*
X187182903Y-81542967D01*
X187185681Y-81551467D01*
X187188997Y-81559458D01*
X187192851Y-81566940D01*
X187197243Y-81573914D01*
X187202172Y-81580378D01*
X187207639Y-81586334D01*
X187211577Y-81590016D01*
X187218000Y-81595094D01*
X187225041Y-81599638D01*
X187232701Y-81603647D01*
X187240978Y-81607121D01*
X187249874Y-81610061D01*
X187259388Y-81612466D01*
X187269520Y-81614337D01*
X187280271Y-81615673D01*
X187287781Y-81616267D01*
X187295566Y-81616624D01*
X187303627Y-81616742D01*
X187340446Y-81616742D01*
X187340446Y-81379338D01*
X187299230Y-81379338D01*
X187291877Y-81379455D01*
X187281266Y-81380067D01*
X187271157Y-81381204D01*
X187261551Y-81382867D01*
X187252447Y-81385053D01*
X187243845Y-81387765D01*
X187235746Y-81391002D01*
X187228149Y-81394763D01*
X187221054Y-81399050D01*
X187214462Y-81403861D01*
X187208372Y-81409197D01*
X187204579Y-81413037D01*
X187199348Y-81419203D01*
X187194667Y-81425855D01*
X187190538Y-81432993D01*
X187186959Y-81440618D01*
X187183930Y-81448728D01*
X187181453Y-81457325D01*
X187179525Y-81466408D01*
X187178149Y-81475978D01*
X187177323Y-81486033D01*
X187177048Y-81496575D01*
X187059100Y-81496575D01*
X187059156Y-81492365D01*
X187059566Y-81483591D01*
X187060326Y-81474833D01*
X187061438Y-81466092D01*
X187062900Y-81457366D01*
X187064714Y-81448656D01*
X187066878Y-81439963D01*
X187069393Y-81431286D01*
X187072260Y-81422624D01*
X187075477Y-81413979D01*
X187079045Y-81405350D01*
X187081527Y-81399730D01*
X187085457Y-81391520D01*
X187089635Y-81383574D01*
X187094061Y-81375893D01*
X187098735Y-81368475D01*
X187103657Y-81361321D01*
X187108827Y-81354431D01*
X187114244Y-81347806D01*
X187119910Y-81341444D01*
X187125823Y-81335346D01*
X187131985Y-81329513D01*
X187136142Y-81325893D01*
X187142598Y-81320717D01*
X187149318Y-81315843D01*
X187156303Y-81311271D01*
X187163551Y-81307003D01*
X187171063Y-81303037D01*
X187178839Y-81299374D01*
X187186880Y-81296013D01*
X187195184Y-81292955D01*
X187203753Y-81290200D01*
X187212585Y-81287747D01*
X187215570Y-81286981D01*
X187224904Y-81284828D01*
X187234804Y-81282894D01*
X187245272Y-81281178D01*
X187252564Y-81280157D01*
X187260109Y-81279232D01*
X187267906Y-81278405D01*
X187275955Y-81277675D01*
X187284255Y-81277043D01*
X187292807Y-81276507D01*
X187301612Y-81276069D01*
X187310668Y-81275729D01*
X187319976Y-81275485D01*
X187329535Y-81275340D01*
X187339347Y-81275291D01*
X187458415Y-81275291D01*
X187458415Y-82072500D01*
G37*
G36*
X186939277Y-82078361D02*
G01*
X186810500Y-82078361D01*
X186722390Y-81884921D01*
X186383503Y-81884921D01*
X186300338Y-82078361D01*
X186169729Y-82078361D01*
X186307763Y-81767684D01*
X186432229Y-81767684D01*
X186672564Y-81767684D01*
X186549466Y-81497124D01*
X186432229Y-81767684D01*
X186307763Y-81767684D01*
X186547451Y-81228213D01*
X186939277Y-82078361D01*
G37*
G36*
X190658241Y-82853295D02*
G01*
X190350129Y-82535291D01*
X190190760Y-82535291D01*
X190548515Y-82896160D01*
X190188562Y-83332500D01*
X190348663Y-83332500D01*
X190633695Y-82977859D01*
X190658241Y-83002588D01*
X190658241Y-83332500D01*
X190776210Y-83332500D01*
X190776210Y-82535291D01*
X190658241Y-82535291D01*
X190658241Y-82853295D01*
G37*
G36*
X189986329Y-82828382D02*
G01*
X189986329Y-83332500D01*
X190104298Y-83332500D01*
X190104298Y-82828382D01*
X189986329Y-82828382D01*
G37*
G36*
X190116022Y-82622486D02*
G01*
X190115673Y-82614924D01*
X190114625Y-82607625D01*
X190112334Y-82598872D01*
X190108951Y-82590530D01*
X190104477Y-82582600D01*
X190100112Y-82576552D01*
X190095049Y-82570768D01*
X190093674Y-82569363D01*
X190087906Y-82564125D01*
X190081870Y-82559585D01*
X190075564Y-82555744D01*
X190067304Y-82551925D01*
X190058624Y-82549197D01*
X190051376Y-82547800D01*
X190043860Y-82547102D01*
X190040001Y-82547015D01*
X190032225Y-82547364D01*
X190024740Y-82548411D01*
X190017547Y-82550157D01*
X190008967Y-82553322D01*
X190002431Y-82556639D01*
X189996187Y-82560655D01*
X189990235Y-82565369D01*
X189985963Y-82569363D01*
X189980725Y-82574970D01*
X189976185Y-82580892D01*
X189971493Y-82588737D01*
X189967892Y-82597074D01*
X189965797Y-82604098D01*
X189964400Y-82611437D01*
X189963702Y-82619090D01*
X189963614Y-82623035D01*
X189963963Y-82630852D01*
X189965011Y-82638365D01*
X189966757Y-82645575D01*
X189969922Y-82654161D01*
X189974177Y-82662273D01*
X189978368Y-82668421D01*
X189983256Y-82674265D01*
X189985963Y-82677074D01*
X189991567Y-82682312D01*
X189997480Y-82686851D01*
X190005306Y-82691543D01*
X190013616Y-82695144D01*
X190022408Y-82697654D01*
X190029790Y-82698876D01*
X190037481Y-82699400D01*
X190039452Y-82699422D01*
X190047231Y-82699076D01*
X190054725Y-82698037D01*
X190061932Y-82696305D01*
X190068852Y-82693881D01*
X190075487Y-82690764D01*
X190081835Y-82686954D01*
X190087898Y-82682452D01*
X190093674Y-82677257D01*
X190098911Y-82671513D01*
X190103451Y-82665453D01*
X190107292Y-82659079D01*
X190110435Y-82652390D01*
X190112879Y-82645386D01*
X190114625Y-82638067D01*
X190115673Y-82630434D01*
X190116022Y-82622486D01*
G37*
G36*
X189843447Y-82828382D02*
G01*
X189725478Y-82828382D01*
X189725478Y-82875826D01*
X189717816Y-82868662D01*
X189710036Y-82861959D01*
X189702137Y-82855719D01*
X189694119Y-82849941D01*
X189685982Y-82844625D01*
X189677727Y-82839771D01*
X189669353Y-82835380D01*
X189660860Y-82831451D01*
X189652248Y-82827984D01*
X189643518Y-82824979D01*
X189634669Y-82822437D01*
X189625700Y-82820357D01*
X189616614Y-82818739D01*
X189607408Y-82817583D01*
X189598084Y-82816890D01*
X189588640Y-82816659D01*
X189577824Y-82816874D01*
X189567311Y-82817520D01*
X189557102Y-82818597D01*
X189547196Y-82820105D01*
X189537593Y-82822043D01*
X189528293Y-82824412D01*
X189519297Y-82827212D01*
X189510605Y-82830443D01*
X189502216Y-82834105D01*
X189494130Y-82838197D01*
X189486348Y-82842720D01*
X189478869Y-82847674D01*
X189471693Y-82853058D01*
X189464821Y-82858874D01*
X189458252Y-82865120D01*
X189451987Y-82871796D01*
X189446862Y-82877890D01*
X189442069Y-82884447D01*
X189437606Y-82891468D01*
X189433474Y-82898953D01*
X189429672Y-82906902D01*
X189426201Y-82915314D01*
X189423060Y-82924189D01*
X189420250Y-82933529D01*
X189417771Y-82943332D01*
X189415622Y-82953599D01*
X189413804Y-82964329D01*
X189412316Y-82975523D01*
X189411159Y-82987181D01*
X189410333Y-82999303D01*
X189409837Y-83011888D01*
X189409672Y-83024937D01*
X189409672Y-83332500D01*
X189527641Y-83332500D01*
X189527641Y-83052048D01*
X189527721Y-83042953D01*
X189527961Y-83034216D01*
X189528362Y-83025837D01*
X189528923Y-83017815D01*
X189529644Y-83010152D01*
X189530526Y-83002846D01*
X189532149Y-82992558D01*
X189534132Y-82983075D01*
X189536476Y-82974397D01*
X189539181Y-82966524D01*
X189542247Y-82959457D01*
X189546895Y-82951285D01*
X189548157Y-82949466D01*
X189553618Y-82942725D01*
X189560110Y-82936883D01*
X189567632Y-82931940D01*
X189576184Y-82927896D01*
X189583275Y-82925453D01*
X189590945Y-82923515D01*
X189599194Y-82922082D01*
X189608023Y-82921155D01*
X189617432Y-82920734D01*
X189620697Y-82920706D01*
X189631153Y-82921041D01*
X189641020Y-82922046D01*
X189650297Y-82923720D01*
X189658985Y-82926064D01*
X189667084Y-82929078D01*
X189674594Y-82932762D01*
X189681514Y-82937115D01*
X189687845Y-82942138D01*
X189693587Y-82947831D01*
X189698739Y-82954194D01*
X189701847Y-82958808D01*
X189706070Y-82966343D01*
X189709878Y-82974867D01*
X189713270Y-82984380D01*
X189716247Y-82994881D01*
X189718001Y-83002430D01*
X189719570Y-83010420D01*
X189720954Y-83018848D01*
X189722154Y-83027716D01*
X189723170Y-83037023D01*
X189724001Y-83046770D01*
X189724647Y-83056956D01*
X189725108Y-83067581D01*
X189725385Y-83078646D01*
X189725478Y-83090150D01*
X189725478Y-83332500D01*
X189843447Y-83332500D01*
X189843447Y-82828382D01*
G37*
G36*
X189071926Y-82816974D02*
G01*
X189084829Y-82817921D01*
X189097405Y-82819499D01*
X189109654Y-82821708D01*
X189121574Y-82824548D01*
X189133167Y-82828019D01*
X189144432Y-82832121D01*
X189155369Y-82836854D01*
X189165978Y-82842219D01*
X189176260Y-82848215D01*
X189186214Y-82854841D01*
X189195841Y-82862099D01*
X189205139Y-82869988D01*
X189214110Y-82878508D01*
X189222753Y-82887660D01*
X189231069Y-82897442D01*
X189238411Y-82907095D01*
X189245280Y-82917002D01*
X189251675Y-82927165D01*
X189257596Y-82937582D01*
X189263044Y-82948254D01*
X189268017Y-82959180D01*
X189272517Y-82970361D01*
X189276544Y-82981797D01*
X189280097Y-82993488D01*
X189283176Y-83005434D01*
X189285781Y-83017634D01*
X189287913Y-83030089D01*
X189289571Y-83042798D01*
X189290755Y-83055763D01*
X189291465Y-83068982D01*
X189291702Y-83082456D01*
X189291447Y-83096301D01*
X189290683Y-83109856D01*
X189289410Y-83123120D01*
X189287626Y-83136094D01*
X189285334Y-83148777D01*
X189282532Y-83161170D01*
X189279220Y-83173272D01*
X189275399Y-83185084D01*
X189271068Y-83196605D01*
X189266228Y-83207835D01*
X189260879Y-83218776D01*
X189255020Y-83229425D01*
X189248652Y-83239784D01*
X189241774Y-83249853D01*
X189234386Y-83259631D01*
X189226489Y-83269118D01*
X189218263Y-83278036D01*
X189209748Y-83286378D01*
X189200946Y-83294144D01*
X189191857Y-83301336D01*
X189182479Y-83307952D01*
X189172814Y-83313992D01*
X189162861Y-83319458D01*
X189152621Y-83324348D01*
X189142093Y-83328663D01*
X189131278Y-83332402D01*
X189120174Y-83335566D01*
X189108783Y-83338155D01*
X189097105Y-83340169D01*
X189085139Y-83341607D01*
X189072885Y-83342470D01*
X189060343Y-83342758D01*
X189049274Y-83342481D01*
X189038367Y-83341650D01*
X189027624Y-83340265D01*
X189017044Y-83338327D01*
X189006626Y-83335835D01*
X188996373Y-83332789D01*
X188986282Y-83329189D01*
X188976354Y-83325035D01*
X188966590Y-83320327D01*
X188956988Y-83315066D01*
X188947550Y-83309250D01*
X188938275Y-83302881D01*
X188929163Y-83295958D01*
X188920215Y-83288481D01*
X188911429Y-83280451D01*
X188902807Y-83271866D01*
X188902807Y-83342025D01*
X188902929Y-83351627D01*
X188903297Y-83360924D01*
X188903911Y-83369917D01*
X188904770Y-83378604D01*
X188905874Y-83386987D01*
X188907224Y-83395065D01*
X188908820Y-83402838D01*
X188910660Y-83410306D01*
X188915078Y-83424328D01*
X188920478Y-83437131D01*
X188926859Y-83448714D01*
X188934222Y-83459078D01*
X188942567Y-83468223D01*
X188951894Y-83476149D01*
X188962202Y-83482855D01*
X188973492Y-83488342D01*
X188985764Y-83492609D01*
X188999017Y-83495658D01*
X189013252Y-83497486D01*
X189020738Y-83497944D01*
X189028469Y-83498096D01*
X189032697Y-83498050D01*
X189040960Y-83497684D01*
X189048968Y-83496951D01*
X189056722Y-83495852D01*
X189064221Y-83494387D01*
X189071465Y-83492555D01*
X189081854Y-83489120D01*
X189091670Y-83484861D01*
X189100912Y-83479778D01*
X189109582Y-83473870D01*
X189117678Y-83467138D01*
X189125201Y-83459582D01*
X189132151Y-83451202D01*
X189134017Y-83448661D01*
X189138390Y-83441713D01*
X189142343Y-83433917D01*
X189145202Y-83427067D01*
X189147793Y-83419674D01*
X189150114Y-83411737D01*
X189152166Y-83403256D01*
X189153949Y-83394232D01*
X189269720Y-83394232D01*
X189268219Y-83406361D01*
X189266280Y-83418154D01*
X189263903Y-83429613D01*
X189261088Y-83440737D01*
X189257835Y-83451526D01*
X189254144Y-83461981D01*
X189250015Y-83472100D01*
X189245449Y-83481885D01*
X189240444Y-83491334D01*
X189235002Y-83500449D01*
X189229121Y-83509229D01*
X189222803Y-83517674D01*
X189216047Y-83525784D01*
X189208852Y-83533559D01*
X189201220Y-83540999D01*
X189193150Y-83548105D01*
X189184976Y-83554649D01*
X189176526Y-83560770D01*
X189167802Y-83566470D01*
X189158804Y-83571747D01*
X189149530Y-83576602D01*
X189139982Y-83581035D01*
X189130158Y-83585045D01*
X189120061Y-83588634D01*
X189109688Y-83591800D01*
X189099040Y-83594544D01*
X189088118Y-83596866D01*
X189076921Y-83598766D01*
X189065449Y-83600244D01*
X189053703Y-83601299D01*
X189041682Y-83601933D01*
X189029385Y-83602144D01*
X189014859Y-83601839D01*
X189000726Y-83600927D01*
X188986987Y-83599407D01*
X188973641Y-83597278D01*
X188960689Y-83594541D01*
X188948130Y-83591196D01*
X188935965Y-83587242D01*
X188924193Y-83582681D01*
X188912815Y-83577511D01*
X188901831Y-83571733D01*
X188891240Y-83565346D01*
X188881042Y-83558352D01*
X188871238Y-83550749D01*
X188861828Y-83542538D01*
X188852811Y-83533719D01*
X188844188Y-83524291D01*
X188839816Y-83519190D01*
X188833603Y-83511299D01*
X188827805Y-83503122D01*
X188822423Y-83494658D01*
X188817456Y-83485908D01*
X188812904Y-83476871D01*
X188808768Y-83467548D01*
X188805048Y-83457938D01*
X188801742Y-83448041D01*
X188798852Y-83437858D01*
X188796378Y-83427388D01*
X188794869Y-83419531D01*
X188793501Y-83411211D01*
X188792470Y-83403923D01*
X188791537Y-83396313D01*
X188790702Y-83388381D01*
X188789966Y-83380127D01*
X188789541Y-83375004D01*
X188788925Y-83366136D01*
X188788515Y-83358746D01*
X188788180Y-83351092D01*
X188787920Y-83343176D01*
X188787734Y-83334995D01*
X188787622Y-83326552D01*
X188787585Y-83317845D01*
X188787585Y-83080258D01*
X188898227Y-83080258D01*
X188898364Y-83088612D01*
X188898774Y-83096776D01*
X188899457Y-83104749D01*
X188900414Y-83112532D01*
X188901644Y-83120125D01*
X188903147Y-83127527D01*
X188904924Y-83134739D01*
X188908101Y-83145201D01*
X188911894Y-83155234D01*
X188916302Y-83164838D01*
X188921324Y-83174015D01*
X188926962Y-83182763D01*
X188933215Y-83191083D01*
X188938106Y-83196850D01*
X188943210Y-83202246D01*
X188951262Y-83209641D01*
X188959791Y-83216199D01*
X188968796Y-83221920D01*
X188978278Y-83226803D01*
X188988236Y-83230850D01*
X188998671Y-83234059D01*
X189005892Y-83235734D01*
X189013325Y-83237036D01*
X189020970Y-83237966D01*
X189028827Y-83238524D01*
X189036896Y-83238710D01*
X189040967Y-83238664D01*
X189048942Y-83238296D01*
X189056696Y-83237561D01*
X189064228Y-83236457D01*
X189071538Y-83234986D01*
X189082087Y-83232090D01*
X189092138Y-83228366D01*
X189101689Y-83223815D01*
X189110741Y-83218436D01*
X189119293Y-83212229D01*
X189127347Y-83205195D01*
X189134902Y-83197333D01*
X189139661Y-83191632D01*
X189145750Y-83183312D01*
X189151240Y-83174564D01*
X189156131Y-83165388D01*
X189160424Y-83155783D01*
X189164117Y-83145750D01*
X189167211Y-83135289D01*
X189168942Y-83128077D01*
X189170406Y-83120674D01*
X189171603Y-83113082D01*
X189172535Y-83105299D01*
X189173201Y-83097325D01*
X189173600Y-83089161D01*
X189173733Y-83080807D01*
X189173600Y-83072320D01*
X189173201Y-83064032D01*
X189172535Y-83055942D01*
X189171603Y-83048052D01*
X189170406Y-83040360D01*
X189168942Y-83032868D01*
X189167211Y-83025574D01*
X189164117Y-83015007D01*
X189160424Y-83004887D01*
X189156131Y-82995214D01*
X189151240Y-82985990D01*
X189145750Y-82977213D01*
X189139661Y-82968883D01*
X189134837Y-82963049D01*
X189129801Y-82957591D01*
X189121846Y-82950111D01*
X189113411Y-82943477D01*
X189104496Y-82937690D01*
X189095102Y-82932750D01*
X189085228Y-82928657D01*
X189074874Y-82925411D01*
X189067705Y-82923717D01*
X189060322Y-82922400D01*
X189052727Y-82921459D01*
X189044918Y-82920894D01*
X189036896Y-82920706D01*
X189029356Y-82920879D01*
X189018366Y-82921784D01*
X189007758Y-82923465D01*
X188997534Y-82925923D01*
X188987694Y-82929156D01*
X188978236Y-82933165D01*
X188969161Y-82937951D01*
X188960470Y-82943512D01*
X188952162Y-82949850D01*
X188944237Y-82956963D01*
X188936695Y-82964853D01*
X188934329Y-82967572D01*
X188927679Y-82976073D01*
X188921706Y-82985089D01*
X188916409Y-82994620D01*
X188913254Y-83001260D01*
X188910399Y-83008130D01*
X188907844Y-83015228D01*
X188905590Y-83022555D01*
X188903637Y-83030112D01*
X188901984Y-83037897D01*
X188900631Y-83045911D01*
X188899579Y-83054154D01*
X188898828Y-83062626D01*
X188898377Y-83071328D01*
X188898227Y-83080258D01*
X188787585Y-83080258D01*
X188787585Y-82830580D01*
X188902807Y-82830580D01*
X188902807Y-82887184D01*
X188910693Y-82878644D01*
X188918826Y-82870654D01*
X188927208Y-82863216D01*
X188935837Y-82856329D01*
X188944713Y-82849993D01*
X188953837Y-82844207D01*
X188963209Y-82838973D01*
X188972828Y-82834290D01*
X188982695Y-82830158D01*
X188992809Y-82826576D01*
X189003171Y-82823546D01*
X189013781Y-82821066D01*
X189024638Y-82819138D01*
X189035742Y-82817761D01*
X189047095Y-82816934D01*
X189058695Y-82816659D01*
X189071926Y-82816974D01*
G37*
G36*
X188616859Y-83326638D02*
G01*
X188498890Y-83326638D01*
X188498890Y-83004237D01*
X188443019Y-83004237D01*
X188435273Y-83004175D01*
X188427626Y-83003990D01*
X188420080Y-83003680D01*
X188412634Y-83003247D01*
X188398042Y-83002009D01*
X188383852Y-83000276D01*
X188370061Y-82998048D01*
X188356672Y-82995324D01*
X188343683Y-82992106D01*
X188331095Y-82988392D01*
X188318908Y-82984183D01*
X188307121Y-82979479D01*
X188295735Y-82974280D01*
X188284750Y-82968585D01*
X188274166Y-82962396D01*
X188263982Y-82955711D01*
X188254199Y-82948531D01*
X188244816Y-82940856D01*
X188235921Y-82932757D01*
X188227600Y-82924307D01*
X188219853Y-82915504D01*
X188212679Y-82906349D01*
X188206080Y-82896842D01*
X188200054Y-82886983D01*
X188194602Y-82876772D01*
X188189724Y-82866209D01*
X188185420Y-82855294D01*
X188181690Y-82844027D01*
X188178534Y-82832408D01*
X188175951Y-82820437D01*
X188173943Y-82808113D01*
X188172508Y-82795438D01*
X188171647Y-82782411D01*
X188171360Y-82769031D01*
X188171391Y-82767566D01*
X188289330Y-82767566D01*
X188289491Y-82775725D01*
X188289974Y-82783626D01*
X188290780Y-82791267D01*
X188293359Y-82805773D01*
X188297227Y-82819242D01*
X188302385Y-82831676D01*
X188308832Y-82843073D01*
X188316569Y-82853435D01*
X188325595Y-82862760D01*
X188335910Y-82871049D01*
X188347515Y-82878302D01*
X188360409Y-82884518D01*
X188367340Y-82887238D01*
X188374593Y-82889699D01*
X188382169Y-82891901D01*
X188390066Y-82893843D01*
X188398286Y-82895527D01*
X188406829Y-82896952D01*
X188415694Y-82898117D01*
X188424881Y-82899024D01*
X188434391Y-82899672D01*
X188444222Y-82900060D01*
X188454377Y-82900190D01*
X188498890Y-82900190D01*
X188498890Y-82639338D01*
X188459506Y-82639338D01*
X188449036Y-82639464D01*
X188438899Y-82639839D01*
X188429093Y-82640465D01*
X188419621Y-82641342D01*
X188410480Y-82642469D01*
X188401672Y-82643846D01*
X188393197Y-82645474D01*
X188385054Y-82647353D01*
X188377243Y-82649481D01*
X188369764Y-82651861D01*
X188362618Y-82654490D01*
X188349323Y-82660501D01*
X188337358Y-82667513D01*
X188326722Y-82675528D01*
X188317415Y-82684544D01*
X188309438Y-82694561D01*
X188302791Y-82705581D01*
X188297473Y-82717602D01*
X188293484Y-82730625D01*
X188290825Y-82744650D01*
X188289994Y-82752038D01*
X188289496Y-82759677D01*
X188289330Y-82767566D01*
X188171391Y-82767566D01*
X188171628Y-82756526D01*
X188172431Y-82744290D01*
X188173769Y-82732323D01*
X188175642Y-82720625D01*
X188178051Y-82709197D01*
X188180995Y-82698037D01*
X188184474Y-82687146D01*
X188188488Y-82676524D01*
X188193037Y-82666172D01*
X188198122Y-82656088D01*
X188203742Y-82646273D01*
X188209897Y-82636728D01*
X188216588Y-82627451D01*
X188223813Y-82618444D01*
X188231574Y-82609706D01*
X188239870Y-82601236D01*
X188244796Y-82596546D01*
X188252368Y-82589867D01*
X188260158Y-82583617D01*
X188268167Y-82577794D01*
X188276395Y-82572400D01*
X188284842Y-82567434D01*
X188293508Y-82562897D01*
X188302393Y-82558788D01*
X188311497Y-82555107D01*
X188320820Y-82551854D01*
X188330362Y-82549030D01*
X188333593Y-82548184D01*
X188343858Y-82545810D01*
X188351179Y-82544361D01*
X188358882Y-82543019D01*
X188366967Y-82541785D01*
X188375434Y-82540658D01*
X188384283Y-82539638D01*
X188393514Y-82538726D01*
X188403128Y-82537921D01*
X188413123Y-82537223D01*
X188423501Y-82536633D01*
X188434261Y-82536150D01*
X188445403Y-82535774D01*
X188456927Y-82535506D01*
X188468833Y-82535345D01*
X188481121Y-82535291D01*
X188616859Y-82535291D01*
X188616859Y-83326638D01*
G37*
G36*
X187955205Y-82828382D02*
G01*
X187955205Y-83332500D01*
X188073175Y-83332500D01*
X188073175Y-82828382D01*
X187955205Y-82828382D01*
G37*
G36*
X188084898Y-82622486D02*
G01*
X188084549Y-82614924D01*
X188083502Y-82607625D01*
X188081210Y-82598872D01*
X188077827Y-82590530D01*
X188073353Y-82582600D01*
X188068988Y-82576552D01*
X188063925Y-82570768D01*
X188062550Y-82569363D01*
X188056783Y-82564125D01*
X188050746Y-82559585D01*
X188044441Y-82555744D01*
X188036181Y-82551925D01*
X188027500Y-82549197D01*
X188020253Y-82547800D01*
X188012737Y-82547102D01*
X188008878Y-82547015D01*
X188001101Y-82547364D01*
X187993616Y-82548411D01*
X187986424Y-82550157D01*
X187977843Y-82553322D01*
X187971307Y-82556639D01*
X187965063Y-82560655D01*
X187959111Y-82565369D01*
X187954839Y-82569363D01*
X187949601Y-82574970D01*
X187945062Y-82580892D01*
X187940369Y-82588737D01*
X187936768Y-82597074D01*
X187934673Y-82604098D01*
X187933276Y-82611437D01*
X187932578Y-82619090D01*
X187932491Y-82623035D01*
X187932840Y-82630852D01*
X187933888Y-82638365D01*
X187935633Y-82645575D01*
X187938798Y-82654161D01*
X187943054Y-82662273D01*
X187947244Y-82668421D01*
X187952133Y-82674265D01*
X187954839Y-82677074D01*
X187960443Y-82682312D01*
X187966357Y-82686851D01*
X187974183Y-82691543D01*
X187982492Y-82695144D01*
X187991285Y-82697654D01*
X187998666Y-82698876D01*
X188006357Y-82699400D01*
X188008328Y-82699422D01*
X188016108Y-82699076D01*
X188023601Y-82698037D01*
X188030808Y-82696305D01*
X188037729Y-82693881D01*
X188044364Y-82690764D01*
X188050712Y-82686954D01*
X188056774Y-82682452D01*
X188062550Y-82677257D01*
X188067788Y-82671513D01*
X188072327Y-82665453D01*
X188076169Y-82659079D01*
X188079311Y-82652390D01*
X188081756Y-82645386D01*
X188083502Y-82638067D01*
X188084549Y-82630434D01*
X188084898Y-82622486D01*
G37*
G36*
X187812323Y-82828382D02*
G01*
X187694354Y-82828382D01*
X187694354Y-82875826D01*
X187686693Y-82868662D01*
X187678912Y-82861959D01*
X187671013Y-82855719D01*
X187662996Y-82849941D01*
X187654859Y-82844625D01*
X187646604Y-82839771D01*
X187638229Y-82835380D01*
X187629737Y-82831451D01*
X187621125Y-82827984D01*
X187612394Y-82824979D01*
X187603545Y-82822437D01*
X187594577Y-82820357D01*
X187585490Y-82818739D01*
X187576285Y-82817583D01*
X187566960Y-82816890D01*
X187557517Y-82816659D01*
X187546701Y-82816874D01*
X187536188Y-82817520D01*
X187525978Y-82818597D01*
X187516072Y-82820105D01*
X187506469Y-82822043D01*
X187497170Y-82824412D01*
X187488174Y-82827212D01*
X187479481Y-82830443D01*
X187471092Y-82834105D01*
X187463006Y-82838197D01*
X187455224Y-82842720D01*
X187447745Y-82847674D01*
X187440569Y-82853058D01*
X187433697Y-82858874D01*
X187427128Y-82865120D01*
X187420863Y-82871796D01*
X187415739Y-82877890D01*
X187410945Y-82884447D01*
X187406483Y-82891468D01*
X187402350Y-82898953D01*
X187398548Y-82906902D01*
X187395077Y-82915314D01*
X187391937Y-82924189D01*
X187389127Y-82933529D01*
X187386647Y-82943332D01*
X187384499Y-82953599D01*
X187382680Y-82964329D01*
X187381193Y-82975523D01*
X187380036Y-82987181D01*
X187379209Y-82999303D01*
X187378713Y-83011888D01*
X187378548Y-83024937D01*
X187378548Y-83332500D01*
X187496517Y-83332500D01*
X187496517Y-83052048D01*
X187496597Y-83042953D01*
X187496838Y-83034216D01*
X187497239Y-83025837D01*
X187497800Y-83017815D01*
X187498521Y-83010152D01*
X187499402Y-83002846D01*
X187501025Y-82992558D01*
X187503009Y-82983075D01*
X187505353Y-82974397D01*
X187508058Y-82966524D01*
X187511123Y-82959457D01*
X187515771Y-82951285D01*
X187517034Y-82949466D01*
X187522495Y-82942725D01*
X187528986Y-82936883D01*
X187536508Y-82931940D01*
X187545061Y-82927896D01*
X187552151Y-82925453D01*
X187559821Y-82923515D01*
X187568071Y-82922082D01*
X187576900Y-82921155D01*
X187586309Y-82920734D01*
X187589574Y-82920706D01*
X187600030Y-82921041D01*
X187609896Y-82922046D01*
X187619174Y-82923720D01*
X187627862Y-82926064D01*
X187635961Y-82929078D01*
X187643470Y-82932762D01*
X187650390Y-82937115D01*
X187656722Y-82942138D01*
X187662463Y-82947831D01*
X187667616Y-82954194D01*
X187670724Y-82958808D01*
X187674947Y-82966343D01*
X187678754Y-82974867D01*
X187682146Y-82984380D01*
X187685123Y-82994881D01*
X187686877Y-83002430D01*
X187688446Y-83010420D01*
X187689831Y-83018848D01*
X187691031Y-83027716D01*
X187692046Y-83037023D01*
X187692877Y-83046770D01*
X187693523Y-83056956D01*
X187693985Y-83067581D01*
X187694262Y-83078646D01*
X187694354Y-83090150D01*
X187694354Y-83332500D01*
X187812323Y-83332500D01*
X187812323Y-82828382D01*
G37*
G36*
X186848785Y-82828382D02*
G01*
X186719642Y-83110300D01*
X186590865Y-82828382D01*
X186461172Y-82828382D01*
X186720558Y-83364740D01*
X186977929Y-82828382D01*
X186848785Y-82828382D01*
G37*
G36*
X186141616Y-82525432D02*
G01*
X186155372Y-82526630D01*
X186168865Y-82528626D01*
X186182094Y-82531421D01*
X186195060Y-82535015D01*
X186207762Y-82539407D01*
X186220201Y-82544597D01*
X186232377Y-82550587D01*
X186244290Y-82557374D01*
X186255939Y-82564961D01*
X186267325Y-82573346D01*
X186278448Y-82582529D01*
X186283910Y-82587420D01*
X186289307Y-82592511D01*
X186294638Y-82597801D01*
X186299903Y-82603291D01*
X186305102Y-82608981D01*
X186310236Y-82614871D01*
X186315303Y-82620960D01*
X186320305Y-82627248D01*
X186325771Y-82634376D01*
X186331063Y-82641653D01*
X186336182Y-82649080D01*
X186341127Y-82656658D01*
X186345899Y-82664385D01*
X186350498Y-82672262D01*
X186354922Y-82680289D01*
X186359174Y-82688465D01*
X186363252Y-82696792D01*
X186367156Y-82705269D01*
X186370887Y-82713895D01*
X186374444Y-82722672D01*
X186377827Y-82731598D01*
X186381038Y-82740675D01*
X186384074Y-82749901D01*
X186386937Y-82759277D01*
X186389627Y-82768803D01*
X186392143Y-82778479D01*
X186394486Y-82788305D01*
X186396655Y-82798280D01*
X186398650Y-82808406D01*
X186400472Y-82818681D01*
X186402120Y-82829107D01*
X186403595Y-82839682D01*
X186404897Y-82850408D01*
X186406025Y-82861283D01*
X186406979Y-82872308D01*
X186407760Y-82883483D01*
X186408367Y-82894808D01*
X186408801Y-82906283D01*
X186409061Y-82917907D01*
X186409148Y-82929682D01*
X186409061Y-82942065D01*
X186408801Y-82954280D01*
X186408367Y-82966326D01*
X186407760Y-82978202D01*
X186406979Y-82989910D01*
X186406025Y-83001449D01*
X186404897Y-83012819D01*
X186403595Y-83024021D01*
X186402120Y-83035053D01*
X186400472Y-83045917D01*
X186398650Y-83056611D01*
X186396655Y-83067137D01*
X186394486Y-83077494D01*
X186392143Y-83087682D01*
X186389627Y-83097702D01*
X186386937Y-83107552D01*
X186384074Y-83117233D01*
X186381038Y-83126746D01*
X186377827Y-83136090D01*
X186374444Y-83145264D01*
X186370887Y-83154270D01*
X186367156Y-83163108D01*
X186363252Y-83171776D01*
X186359174Y-83180275D01*
X186354922Y-83188606D01*
X186350498Y-83196767D01*
X186345899Y-83204760D01*
X186341127Y-83212584D01*
X186336182Y-83220239D01*
X186331063Y-83227725D01*
X186325771Y-83235042D01*
X186320305Y-83242191D01*
X186315236Y-83248468D01*
X186310105Y-83254546D01*
X186304911Y-83260425D01*
X186299654Y-83266105D01*
X186294335Y-83271585D01*
X186288953Y-83276866D01*
X186283508Y-83281947D01*
X186278001Y-83286830D01*
X186266799Y-83295997D01*
X186255347Y-83304367D01*
X186243644Y-83311939D01*
X186231690Y-83318715D01*
X186219487Y-83324694D01*
X186207032Y-83329875D01*
X186194328Y-83334259D01*
X186181373Y-83337846D01*
X186168167Y-83340636D01*
X186154711Y-83342629D01*
X186141005Y-83343825D01*
X186127048Y-83344223D01*
X186120050Y-83344124D01*
X186106249Y-83343326D01*
X186092705Y-83341732D01*
X186079418Y-83339341D01*
X186066389Y-83336152D01*
X186053618Y-83332167D01*
X186041104Y-83327384D01*
X186028848Y-83321804D01*
X186016850Y-83315427D01*
X186005109Y-83308253D01*
X185993626Y-83300281D01*
X185982400Y-83291513D01*
X185971432Y-83281947D01*
X185966045Y-83276866D01*
X185960722Y-83271585D01*
X185955463Y-83266105D01*
X185950269Y-83260425D01*
X185945139Y-83254546D01*
X185940074Y-83248468D01*
X185935073Y-83242191D01*
X185929618Y-83235047D01*
X185924337Y-83227746D01*
X185919228Y-83220286D01*
X185914293Y-83212667D01*
X185909531Y-83204890D01*
X185904942Y-83196954D01*
X185900526Y-83188860D01*
X185896284Y-83180607D01*
X185892215Y-83172196D01*
X185888318Y-83163626D01*
X185884595Y-83154898D01*
X185881045Y-83146011D01*
X185877669Y-83136966D01*
X185874465Y-83127763D01*
X185871435Y-83118401D01*
X185868578Y-83108880D01*
X185865894Y-83099201D01*
X185863383Y-83089363D01*
X185861045Y-83079367D01*
X185858880Y-83069212D01*
X185856889Y-83058899D01*
X185855071Y-83048428D01*
X185853426Y-83037798D01*
X185851954Y-83027009D01*
X185850655Y-83016062D01*
X185849530Y-83004956D01*
X185848577Y-82993692D01*
X185847798Y-82982270D01*
X185847192Y-82970688D01*
X185846759Y-82958949D01*
X185846499Y-82947051D01*
X185846413Y-82934994D01*
X185846414Y-82934811D01*
X185964382Y-82934811D01*
X185964427Y-82942999D01*
X185964564Y-82951098D01*
X185964791Y-82959109D01*
X185965109Y-82967031D01*
X185965518Y-82974865D01*
X185966018Y-82982611D01*
X185966608Y-82990268D01*
X185967290Y-82997837D01*
X185968062Y-83005318D01*
X185968926Y-83012710D01*
X185970925Y-83027229D01*
X185973288Y-83041395D01*
X185976014Y-83055208D01*
X185979104Y-83068666D01*
X185982557Y-83081772D01*
X185986374Y-83094524D01*
X185990554Y-83106922D01*
X185995098Y-83118967D01*
X186000005Y-83130659D01*
X186005276Y-83141997D01*
X186010910Y-83152981D01*
X186016798Y-83163540D01*
X186022877Y-83173417D01*
X186029146Y-83182614D01*
X186035605Y-83191129D01*
X186042255Y-83198963D01*
X186049095Y-83206115D01*
X186056125Y-83212587D01*
X186063346Y-83218377D01*
X186070757Y-83223486D01*
X186078358Y-83227914D01*
X186086150Y-83231661D01*
X186094132Y-83234726D01*
X186102304Y-83237110D01*
X186110667Y-83238813D01*
X186119220Y-83239835D01*
X186127964Y-83240176D01*
X186136771Y-83239835D01*
X186145380Y-83238813D01*
X186153790Y-83237110D01*
X186162001Y-83234726D01*
X186170013Y-83231661D01*
X186177826Y-83227914D01*
X186185441Y-83223486D01*
X186192856Y-83218377D01*
X186200072Y-83212587D01*
X186207090Y-83206115D01*
X186213908Y-83198963D01*
X186220528Y-83191129D01*
X186226948Y-83182614D01*
X186233170Y-83173417D01*
X186239193Y-83163540D01*
X186245017Y-83152981D01*
X186247857Y-83147407D01*
X186253267Y-83135991D01*
X186258316Y-83124218D01*
X186263004Y-83112090D01*
X186267332Y-83099605D01*
X186271299Y-83086763D01*
X186274905Y-83073566D01*
X186278151Y-83060012D01*
X186281036Y-83046101D01*
X186283560Y-83031834D01*
X186284687Y-83024567D01*
X186285724Y-83017211D01*
X186286671Y-83009766D01*
X186287527Y-83002232D01*
X186288294Y-82994609D01*
X186288970Y-82986896D01*
X186289556Y-82979095D01*
X186290052Y-82971204D01*
X186290458Y-82963224D01*
X186290773Y-82955156D01*
X186290999Y-82946998D01*
X186291134Y-82938751D01*
X186291179Y-82930415D01*
X186291133Y-82922408D01*
X186290997Y-82914485D01*
X186290770Y-82906646D01*
X186290452Y-82898890D01*
X186290043Y-82891218D01*
X186289543Y-82883630D01*
X186288952Y-82876126D01*
X186288271Y-82868705D01*
X186286635Y-82854115D01*
X186284636Y-82839860D01*
X186282273Y-82825939D01*
X186279547Y-82812354D01*
X186276457Y-82799103D01*
X186273004Y-82786187D01*
X186269187Y-82773607D01*
X186265007Y-82761360D01*
X186260463Y-82749449D01*
X186255556Y-82737873D01*
X186250285Y-82726632D01*
X186244651Y-82715725D01*
X186238764Y-82705233D01*
X186232689Y-82695418D01*
X186226428Y-82686279D01*
X186219978Y-82677818D01*
X186213341Y-82670033D01*
X186206517Y-82662926D01*
X186199505Y-82656495D01*
X186192306Y-82650741D01*
X186184920Y-82645665D01*
X186177345Y-82641265D01*
X186169584Y-82637542D01*
X186161635Y-82634495D01*
X186153498Y-82632126D01*
X186145174Y-82630434D01*
X186136663Y-82629419D01*
X186127964Y-82629080D01*
X186119220Y-82629419D01*
X186110667Y-82630434D01*
X186102304Y-82632126D01*
X186094132Y-82634495D01*
X186086150Y-82637542D01*
X186078358Y-82641265D01*
X186070757Y-82645665D01*
X186063346Y-82650741D01*
X186056125Y-82656495D01*
X186049095Y-82662926D01*
X186042255Y-82670033D01*
X186035605Y-82677818D01*
X186029146Y-82686279D01*
X186022877Y-82695418D01*
X186016798Y-82705233D01*
X186010910Y-82715725D01*
X186008048Y-82721207D01*
X186002595Y-82732436D01*
X185997506Y-82744017D01*
X185992781Y-82755949D01*
X185988418Y-82768234D01*
X185984420Y-82780870D01*
X185980785Y-82793859D01*
X185977513Y-82807200D01*
X185974605Y-82820893D01*
X185972061Y-82834938D01*
X185969880Y-82849335D01*
X185968926Y-82856665D01*
X185968062Y-82864084D01*
X185967290Y-82871590D01*
X185966608Y-82879185D01*
X185966018Y-82886867D01*
X185965518Y-82894638D01*
X185965109Y-82902497D01*
X185964791Y-82910443D01*
X185964564Y-82918478D01*
X185964427Y-82926600D01*
X185964382Y-82934811D01*
X185846414Y-82934811D01*
X185846499Y-82922893D01*
X185846759Y-82910952D01*
X185847192Y-82899171D01*
X185847798Y-82887550D01*
X185848577Y-82876090D01*
X185849530Y-82864790D01*
X185850655Y-82853650D01*
X185851954Y-82842670D01*
X185853426Y-82831851D01*
X185855071Y-82821192D01*
X185856889Y-82810694D01*
X185858880Y-82800355D01*
X185861045Y-82790177D01*
X185863383Y-82780160D01*
X185865894Y-82770302D01*
X185868578Y-82760605D01*
X185871435Y-82751068D01*
X185874465Y-82741691D01*
X185877669Y-82732475D01*
X185881045Y-82723419D01*
X185884595Y-82714523D01*
X185888318Y-82705788D01*
X185892215Y-82697212D01*
X185896284Y-82688797D01*
X185900526Y-82680543D01*
X185904942Y-82672448D01*
X185909531Y-82664514D01*
X185914293Y-82656741D01*
X185919228Y-82649127D01*
X185924337Y-82641674D01*
X185929618Y-82634381D01*
X185935073Y-82627248D01*
X185940074Y-82620960D01*
X185945141Y-82614871D01*
X185950274Y-82608981D01*
X185955472Y-82603291D01*
X185960735Y-82597801D01*
X185966064Y-82592511D01*
X185971459Y-82587420D01*
X185976918Y-82582529D01*
X185988035Y-82573346D01*
X185999413Y-82564961D01*
X186011053Y-82557374D01*
X186022954Y-82550587D01*
X186035118Y-82544597D01*
X186047544Y-82539407D01*
X186060231Y-82535015D01*
X186073181Y-82531421D01*
X186086392Y-82528626D01*
X186099865Y-82526630D01*
X186113600Y-82525432D01*
X186127597Y-82525033D01*
X186141616Y-82525432D01*
G37*
G36*
X185714521Y-83273332D02*
G01*
X185714016Y-83264647D01*
X185712500Y-83256337D01*
X185709973Y-83248404D01*
X185706436Y-83240845D01*
X185701887Y-83233663D01*
X185696328Y-83226856D01*
X185693822Y-83224239D01*
X185687104Y-83218276D01*
X185680001Y-83213323D01*
X185672514Y-83209381D01*
X185664642Y-83206450D01*
X185656385Y-83204530D01*
X185647744Y-83203620D01*
X185644180Y-83203539D01*
X185635336Y-83204045D01*
X185626895Y-83205561D01*
X185618857Y-83208088D01*
X185611221Y-83211625D01*
X185603988Y-83216173D01*
X185597157Y-83221732D01*
X185594537Y-83224239D01*
X185588574Y-83230909D01*
X185583621Y-83237981D01*
X185579680Y-83245456D01*
X185576748Y-83253333D01*
X185574828Y-83261613D01*
X185573918Y-83270296D01*
X185573838Y-83273881D01*
X185574343Y-83282830D01*
X185575859Y-83291359D01*
X185578386Y-83299467D01*
X185581923Y-83307155D01*
X185586472Y-83314422D01*
X185592031Y-83321269D01*
X185594537Y-83323890D01*
X185601062Y-83329748D01*
X185608043Y-83334613D01*
X185615481Y-83338485D01*
X185623374Y-83341364D01*
X185631724Y-83343250D01*
X185640529Y-83344144D01*
X185644180Y-83344223D01*
X185653278Y-83343731D01*
X185661911Y-83342255D01*
X185670079Y-83339796D01*
X185677782Y-83336352D01*
X185685020Y-83331925D01*
X185691793Y-83326513D01*
X185694371Y-83324073D01*
X185700176Y-83317473D01*
X185704997Y-83310381D01*
X185708835Y-83302797D01*
X185711688Y-83294721D01*
X185713557Y-83286153D01*
X185714443Y-83277093D01*
X185714521Y-83273332D01*
G37*
G36*
X185287341Y-82652527D02*
G01*
X185424178Y-82652527D01*
X185358599Y-82535291D01*
X185169371Y-82535291D01*
X185169371Y-83338361D01*
X185287341Y-83338361D01*
X185287341Y-82652527D01*
G37*
D14*
G36*
X188852777Y-78648073D02*
G01*
X188852777Y-78743939D01*
X188857140Y-78740377D01*
X188861512Y-78736929D01*
X188865894Y-78733594D01*
X188870286Y-78730372D01*
X188874687Y-78727263D01*
X188879098Y-78724267D01*
X188883518Y-78721384D01*
X188887948Y-78718614D01*
X188892387Y-78715957D01*
X188896836Y-78713413D01*
X188901294Y-78710982D01*
X188905762Y-78708665D01*
X188910240Y-78706460D01*
X188914727Y-78704369D01*
X188919223Y-78702390D01*
X188928245Y-78698772D01*
X188937305Y-78695607D01*
X188946403Y-78692893D01*
X188955539Y-78690632D01*
X188964714Y-78688823D01*
X188973926Y-78687466D01*
X188983177Y-78686562D01*
X188992466Y-78686110D01*
X188997124Y-78686053D01*
X189002236Y-78686110D01*
X189007297Y-78686282D01*
X189012307Y-78686567D01*
X189017267Y-78686967D01*
X189022176Y-78687481D01*
X189027035Y-78688110D01*
X189036600Y-78689709D01*
X189045963Y-78691766D01*
X189055124Y-78694279D01*
X189064083Y-78697250D01*
X189072840Y-78700677D01*
X189081394Y-78704562D01*
X189089746Y-78708903D01*
X189097896Y-78713702D01*
X189105843Y-78718957D01*
X189113588Y-78724670D01*
X189121131Y-78730839D01*
X189124827Y-78734095D01*
X189128472Y-78737466D01*
X189132066Y-78740951D01*
X189135610Y-78744549D01*
X189139096Y-78748223D01*
X189142472Y-78751947D01*
X189145737Y-78755721D01*
X189148891Y-78759546D01*
X189151934Y-78763420D01*
X189154867Y-78767346D01*
X189160401Y-78775347D01*
X189165492Y-78783550D01*
X189170140Y-78791953D01*
X189174345Y-78800559D01*
X189178108Y-78809365D01*
X189181429Y-78818373D01*
X189184306Y-78827582D01*
X189186741Y-78836993D01*
X189187792Y-78841774D01*
X189188733Y-78846605D01*
X189189563Y-78851486D01*
X189190282Y-78856418D01*
X189190891Y-78861400D01*
X189191389Y-78866432D01*
X189191776Y-78871515D01*
X189192053Y-78876648D01*
X189192219Y-78881831D01*
X189192274Y-78887065D01*
X189192219Y-78892238D01*
X189192053Y-78897360D01*
X189191776Y-78902431D01*
X189191389Y-78907452D01*
X189190891Y-78912422D01*
X189190282Y-78917342D01*
X189189563Y-78922211D01*
X189188733Y-78927029D01*
X189186741Y-78936515D01*
X189184306Y-78945798D01*
X189181429Y-78954879D01*
X189178108Y-78963757D01*
X189174345Y-78972434D01*
X189170140Y-78980908D01*
X189165492Y-78989180D01*
X189160401Y-78997249D01*
X189154867Y-79005116D01*
X189148891Y-79012781D01*
X189145737Y-79016538D01*
X189142472Y-79020244D01*
X189139096Y-79023900D01*
X189135610Y-79027505D01*
X189132044Y-79031021D01*
X189128427Y-79034426D01*
X189124761Y-79037719D01*
X189121045Y-79040900D01*
X189113464Y-79046928D01*
X189105683Y-79052509D01*
X189097702Y-79057644D01*
X189089523Y-79062332D01*
X189081143Y-79066574D01*
X189072565Y-79070369D01*
X189063787Y-79073718D01*
X189054810Y-79076620D01*
X189045633Y-79079076D01*
X189036257Y-79081086D01*
X189026681Y-79082648D01*
X189021819Y-79083262D01*
X189016906Y-79083765D01*
X189011944Y-79084155D01*
X189006932Y-79084434D01*
X189001870Y-79084602D01*
X188996758Y-79084658D01*
X188991510Y-79084604D01*
X188986361Y-79084442D01*
X188981309Y-79084172D01*
X188976356Y-79083795D01*
X188969111Y-79083027D01*
X188962087Y-79082016D01*
X188955283Y-79080763D01*
X188948701Y-79079267D01*
X188942340Y-79077529D01*
X188936201Y-79075548D01*
X188930282Y-79073324D01*
X188924584Y-79070858D01*
X188919399Y-79068604D01*
X188914149Y-79066118D01*
X188908833Y-79063400D01*
X188904533Y-79061058D01*
X188900191Y-79058567D01*
X188895807Y-79055927D01*
X188891381Y-79053138D01*
X188890268Y-79052418D01*
X188885782Y-79049441D01*
X188881239Y-79046311D01*
X188876638Y-79043029D01*
X188871980Y-79039595D01*
X188867265Y-79036007D01*
X188862493Y-79032267D01*
X188857664Y-79028375D01*
X188852777Y-79024330D01*
X188852777Y-79122271D01*
X188857073Y-79124765D01*
X188861383Y-79127181D01*
X188865706Y-79129517D01*
X188870042Y-79131774D01*
X188878754Y-79136050D01*
X188887520Y-79140009D01*
X188896340Y-79143652D01*
X188905213Y-79146978D01*
X188914139Y-79149987D01*
X188923119Y-79152679D01*
X188932152Y-79155055D01*
X188941239Y-79157114D01*
X188950379Y-79158856D01*
X188959572Y-79160281D01*
X188968819Y-79161390D01*
X188978119Y-79162182D01*
X188987473Y-79162657D01*
X188996880Y-79162815D01*
X189003954Y-79162737D01*
X189010962Y-79162503D01*
X189017905Y-79162112D01*
X189024783Y-79161565D01*
X189031596Y-79160862D01*
X189038344Y-79160003D01*
X189045026Y-79158988D01*
X189051644Y-79157816D01*
X189058196Y-79156488D01*
X189064684Y-79155004D01*
X189071106Y-79153363D01*
X189077463Y-79151567D01*
X189083755Y-79149614D01*
X189089982Y-79147505D01*
X189096144Y-79145239D01*
X189102240Y-79142818D01*
X189108272Y-79140240D01*
X189114238Y-79137506D01*
X189120140Y-79134616D01*
X189125976Y-79131569D01*
X189131747Y-79128367D01*
X189137453Y-79125008D01*
X189143094Y-79121493D01*
X189148669Y-79117821D01*
X189154180Y-79113994D01*
X189159626Y-79110010D01*
X189165006Y-79105870D01*
X189170321Y-79101573D01*
X189175571Y-79097121D01*
X189180756Y-79092512D01*
X189185876Y-79087747D01*
X189190931Y-79082826D01*
X189195852Y-79077748D01*
X189200617Y-79072605D01*
X189205226Y-79067397D01*
X189209679Y-79062124D01*
X189213975Y-79056786D01*
X189218115Y-79051383D01*
X189222099Y-79045914D01*
X189225927Y-79040381D01*
X189229598Y-79034782D01*
X189233113Y-79029119D01*
X189236472Y-79023390D01*
X189239675Y-79017596D01*
X189242721Y-79011737D01*
X189245611Y-79005812D01*
X189248345Y-78999823D01*
X189250923Y-78993769D01*
X189253345Y-78987649D01*
X189255610Y-78981464D01*
X189257719Y-78975215D01*
X189259672Y-78968900D01*
X189261469Y-78962520D01*
X189263109Y-78956075D01*
X189264593Y-78949564D01*
X189265921Y-78942989D01*
X189267093Y-78936349D01*
X189268109Y-78929643D01*
X189268968Y-78922872D01*
X189269671Y-78916036D01*
X189270218Y-78909136D01*
X189270608Y-78902170D01*
X189270843Y-78895138D01*
X189270921Y-78888042D01*
X189270855Y-78881675D01*
X189270659Y-78875352D01*
X189270332Y-78869073D01*
X189269875Y-78862837D01*
X189269287Y-78856645D01*
X189268568Y-78850497D01*
X189267718Y-78844392D01*
X189266738Y-78838331D01*
X189265627Y-78832314D01*
X189264385Y-78826340D01*
X189263013Y-78820410D01*
X189261510Y-78814523D01*
X189259876Y-78808680D01*
X189258111Y-78802881D01*
X189256216Y-78797125D01*
X189254190Y-78791413D01*
X189252033Y-78785745D01*
X189249746Y-78780121D01*
X189247328Y-78774540D01*
X189244779Y-78769002D01*
X189242100Y-78763509D01*
X189239289Y-78758059D01*
X189236348Y-78752652D01*
X189233277Y-78747289D01*
X189230074Y-78741970D01*
X189226741Y-78736695D01*
X189223278Y-78731463D01*
X189219683Y-78726275D01*
X189215958Y-78721131D01*
X189212102Y-78716030D01*
X189208115Y-78710973D01*
X189203998Y-78705959D01*
X189198799Y-78699926D01*
X189193505Y-78694084D01*
X189188117Y-78688434D01*
X189182634Y-78682975D01*
X189177057Y-78677708D01*
X189171386Y-78672633D01*
X189165620Y-78667749D01*
X189159760Y-78663056D01*
X189153805Y-78658555D01*
X189147755Y-78654246D01*
X189141612Y-78650128D01*
X189135373Y-78646202D01*
X189129041Y-78642467D01*
X189122614Y-78638923D01*
X189116092Y-78635572D01*
X189109476Y-78632411D01*
X189102766Y-78629443D01*
X189095961Y-78626665D01*
X189089061Y-78624080D01*
X189082067Y-78621686D01*
X189074979Y-78619483D01*
X189067796Y-78617472D01*
X189060519Y-78615652D01*
X189053148Y-78614024D01*
X189045682Y-78612588D01*
X189038121Y-78611343D01*
X189030466Y-78610290D01*
X189022716Y-78609428D01*
X189014873Y-78608757D01*
X189006934Y-78608279D01*
X188998901Y-78607991D01*
X188990774Y-78607896D01*
X188981863Y-78608052D01*
X188972990Y-78608523D01*
X188964155Y-78609308D01*
X188955359Y-78610407D01*
X188946600Y-78611819D01*
X188937880Y-78613546D01*
X188929198Y-78615586D01*
X188920554Y-78617940D01*
X188911949Y-78620608D01*
X188903381Y-78623590D01*
X188894852Y-78626886D01*
X188886360Y-78630496D01*
X188877907Y-78634419D01*
X188869492Y-78638657D01*
X188861115Y-78643208D01*
X188852777Y-78648073D01*
G37*
G36*
X188515812Y-78607975D02*
G01*
X188522800Y-78608213D01*
X188529723Y-78608609D01*
X188536584Y-78609164D01*
X188543380Y-78609878D01*
X188550113Y-78610751D01*
X188556782Y-78611782D01*
X188563387Y-78612971D01*
X188569929Y-78614319D01*
X188576407Y-78615826D01*
X188582821Y-78617492D01*
X188589172Y-78619316D01*
X188595459Y-78621298D01*
X188601682Y-78623440D01*
X188607842Y-78625740D01*
X188613938Y-78628198D01*
X188619970Y-78630815D01*
X188625939Y-78633591D01*
X188631844Y-78636525D01*
X188637685Y-78639618D01*
X188643462Y-78642870D01*
X188649176Y-78646280D01*
X188654826Y-78649849D01*
X188660413Y-78653577D01*
X188665936Y-78657463D01*
X188671395Y-78661507D01*
X188676790Y-78665711D01*
X188682122Y-78670073D01*
X188687390Y-78674593D01*
X188692594Y-78679272D01*
X188697735Y-78684110D01*
X188702812Y-78689106D01*
X188707801Y-78694205D01*
X188712631Y-78699367D01*
X188717303Y-78704591D01*
X188721817Y-78709876D01*
X188726172Y-78715225D01*
X188730369Y-78720635D01*
X188734408Y-78726108D01*
X188738288Y-78731643D01*
X188742010Y-78737240D01*
X188745573Y-78742899D01*
X188748978Y-78748621D01*
X188752225Y-78754405D01*
X188755313Y-78760251D01*
X188758243Y-78766160D01*
X188761015Y-78772130D01*
X188763628Y-78778163D01*
X188766083Y-78784259D01*
X188768380Y-78790416D01*
X188770518Y-78796636D01*
X188772497Y-78802918D01*
X188774319Y-78809262D01*
X188775982Y-78815668D01*
X188777486Y-78822137D01*
X188778832Y-78828668D01*
X188780020Y-78835261D01*
X188781050Y-78841917D01*
X188781921Y-78848635D01*
X188782633Y-78855415D01*
X188783188Y-78862257D01*
X188783584Y-78869161D01*
X188783821Y-78876128D01*
X188783900Y-78883157D01*
X188783814Y-78891139D01*
X188783553Y-78899025D01*
X188783119Y-78906815D01*
X188782511Y-78914510D01*
X188781730Y-78922109D01*
X188780775Y-78929612D01*
X188779646Y-78937020D01*
X188778344Y-78944332D01*
X188776868Y-78951549D01*
X188775218Y-78958670D01*
X188773395Y-78965695D01*
X188771398Y-78972625D01*
X188769228Y-78979458D01*
X188766884Y-78986197D01*
X188764366Y-78992839D01*
X188761674Y-78999386D01*
X188758809Y-79005838D01*
X188755771Y-79012193D01*
X188752558Y-79018453D01*
X188749172Y-79024618D01*
X188745612Y-79030686D01*
X188741879Y-79036660D01*
X188737972Y-79042537D01*
X188733892Y-79048319D01*
X188729637Y-79054005D01*
X188725210Y-79059595D01*
X188720608Y-79065090D01*
X188715833Y-79070490D01*
X188710884Y-79075793D01*
X188705762Y-79081001D01*
X188700466Y-79086113D01*
X188694996Y-79091130D01*
X188689931Y-79095540D01*
X188684825Y-79099811D01*
X188679678Y-79103941D01*
X188674491Y-79107931D01*
X188669263Y-79111782D01*
X188663995Y-79115492D01*
X188658687Y-79119062D01*
X188653337Y-79122492D01*
X188647948Y-79125783D01*
X188642517Y-79128933D01*
X188637046Y-79131943D01*
X188631535Y-79134813D01*
X188625983Y-79137543D01*
X188620390Y-79140134D01*
X188614757Y-79142584D01*
X188609084Y-79144894D01*
X188603369Y-79147064D01*
X188597615Y-79149094D01*
X188591819Y-79150984D01*
X188585984Y-79152735D01*
X188580107Y-79154345D01*
X188574190Y-79155815D01*
X188568233Y-79157145D01*
X188562235Y-79158335D01*
X188556196Y-79159385D01*
X188550117Y-79160295D01*
X188543997Y-79161065D01*
X188537837Y-79161695D01*
X188531636Y-79162185D01*
X188525395Y-79162535D01*
X188519113Y-79162745D01*
X188512791Y-79162815D01*
X188505657Y-79162736D01*
X188498589Y-79162499D01*
X188491586Y-79162105D01*
X188484649Y-79161552D01*
X188477779Y-79160842D01*
X188470974Y-79159973D01*
X188464235Y-79158947D01*
X188457561Y-79157762D01*
X188450954Y-79156420D01*
X188444412Y-79154920D01*
X188437937Y-79153262D01*
X188431527Y-79151447D01*
X188425183Y-79149473D01*
X188418904Y-79147341D01*
X188412692Y-79145052D01*
X188406545Y-79142604D01*
X188400464Y-79139999D01*
X188394449Y-79137236D01*
X188388500Y-79134314D01*
X188382617Y-79131235D01*
X188376800Y-79127999D01*
X188371048Y-79124604D01*
X188365362Y-79121051D01*
X188359742Y-79117340D01*
X188354188Y-79113472D01*
X188348700Y-79109445D01*
X188343277Y-79105261D01*
X188337921Y-79100919D01*
X188332630Y-79096419D01*
X188327405Y-79091761D01*
X188322246Y-79086945D01*
X188317152Y-79081971D01*
X188312179Y-79076914D01*
X188307363Y-79071789D01*
X188302705Y-79066596D01*
X188298204Y-79061334D01*
X188293862Y-79056004D01*
X188289678Y-79050605D01*
X188285651Y-79045138D01*
X188281783Y-79039602D01*
X188278072Y-79033998D01*
X188274520Y-79028326D01*
X188271125Y-79022585D01*
X188267888Y-79016775D01*
X188264809Y-79010897D01*
X188261888Y-79004951D01*
X188259124Y-78998936D01*
X188256519Y-78992853D01*
X188254072Y-78986701D01*
X188251782Y-78980481D01*
X188249650Y-78974192D01*
X188247677Y-78967835D01*
X188245861Y-78961409D01*
X188244203Y-78954915D01*
X188242703Y-78948353D01*
X188241361Y-78941722D01*
X188240176Y-78935023D01*
X188239150Y-78928255D01*
X188238282Y-78921419D01*
X188237571Y-78914514D01*
X188237018Y-78907541D01*
X188236624Y-78900499D01*
X188236387Y-78893389D01*
X188236308Y-78886210D01*
X188236317Y-78885355D01*
X188314954Y-78885355D01*
X188315010Y-78890551D01*
X188315177Y-78895698D01*
X188315455Y-78900795D01*
X188315845Y-78905843D01*
X188316346Y-78910842D01*
X188316959Y-78915791D01*
X188317683Y-78920691D01*
X188318519Y-78925541D01*
X188320524Y-78935094D01*
X188322974Y-78944449D01*
X188325870Y-78953606D01*
X188329212Y-78962567D01*
X188332999Y-78971329D01*
X188337232Y-78979895D01*
X188341910Y-78988262D01*
X188347034Y-78996432D01*
X188352603Y-79004405D01*
X188355555Y-79008317D01*
X188358618Y-79012180D01*
X188361793Y-79015994D01*
X188365079Y-79019758D01*
X188368476Y-79023473D01*
X188371985Y-79027138D01*
X188375567Y-79030677D01*
X188379200Y-79034104D01*
X188382884Y-79037418D01*
X188386618Y-79040619D01*
X188390404Y-79043709D01*
X188398127Y-79049551D01*
X188406054Y-79054943D01*
X188414183Y-79059886D01*
X188422516Y-79064380D01*
X188431052Y-79068424D01*
X188439791Y-79072019D01*
X188448734Y-79075165D01*
X188457880Y-79077861D01*
X188467229Y-79080108D01*
X188476781Y-79081905D01*
X188481633Y-79082635D01*
X188486536Y-79083253D01*
X188491490Y-79083759D01*
X188496495Y-79084152D01*
X188501550Y-79084433D01*
X188506657Y-79084601D01*
X188511814Y-79084658D01*
X188521299Y-79084437D01*
X188530643Y-79083774D01*
X188539846Y-79082670D01*
X188548908Y-79081124D01*
X188557829Y-79079136D01*
X188566608Y-79076706D01*
X188575246Y-79073835D01*
X188583743Y-79070522D01*
X188592099Y-79066767D01*
X188600314Y-79062571D01*
X188608387Y-79057933D01*
X188616319Y-79052853D01*
X188624110Y-79047331D01*
X188631760Y-79041367D01*
X188635532Y-79038220D01*
X188639269Y-79034962D01*
X188642970Y-79031594D01*
X188646636Y-79028115D01*
X188650242Y-79024551D01*
X188653734Y-79020926D01*
X188657112Y-79017241D01*
X188660375Y-79013495D01*
X188663523Y-79009689D01*
X188666557Y-79005822D01*
X188672281Y-78997906D01*
X188677548Y-78989747D01*
X188682356Y-78981347D01*
X188686707Y-78972704D01*
X188690600Y-78963818D01*
X188694034Y-78954691D01*
X188695580Y-78950036D01*
X188697011Y-78945321D01*
X188698328Y-78940545D01*
X188699530Y-78935709D01*
X188700617Y-78930812D01*
X188701591Y-78925854D01*
X188702449Y-78920836D01*
X188703193Y-78915757D01*
X188703823Y-78910618D01*
X188704338Y-78905418D01*
X188704739Y-78900157D01*
X188705025Y-78894836D01*
X188705197Y-78889454D01*
X188705254Y-78884012D01*
X188705199Y-78878817D01*
X188705033Y-78873675D01*
X188704756Y-78868584D01*
X188704369Y-78863545D01*
X188703871Y-78858559D01*
X188703262Y-78853624D01*
X188702543Y-78848741D01*
X188701713Y-78843910D01*
X188699721Y-78834405D01*
X188697286Y-78825108D01*
X188694408Y-78816018D01*
X188691088Y-78807137D01*
X188687325Y-78798463D01*
X188683120Y-78789998D01*
X188678471Y-78781740D01*
X188673381Y-78773691D01*
X188667847Y-78765849D01*
X188661871Y-78758216D01*
X188658716Y-78754477D01*
X188655452Y-78750790D01*
X188652076Y-78747155D01*
X188648590Y-78743572D01*
X188645031Y-78740034D01*
X188641421Y-78736607D01*
X188637762Y-78733293D01*
X188634052Y-78730091D01*
X188626481Y-78724025D01*
X188618708Y-78718408D01*
X188610735Y-78713240D01*
X188602560Y-78708522D01*
X188594183Y-78704253D01*
X188585606Y-78700433D01*
X188576827Y-78697063D01*
X188567847Y-78694142D01*
X188558665Y-78691670D01*
X188549282Y-78689648D01*
X188539698Y-78688075D01*
X188534831Y-78687458D01*
X188529913Y-78686952D01*
X188524944Y-78686559D01*
X188519926Y-78686278D01*
X188514857Y-78686109D01*
X188509738Y-78686053D01*
X188504604Y-78686109D01*
X188499523Y-78686278D01*
X188494493Y-78686559D01*
X188489515Y-78686952D01*
X188484590Y-78687458D01*
X188474894Y-78688806D01*
X188465407Y-78690603D01*
X188456128Y-78692850D01*
X188447056Y-78695546D01*
X188438193Y-78698692D01*
X188429538Y-78702287D01*
X188421090Y-78706331D01*
X188412851Y-78710825D01*
X188404820Y-78715768D01*
X188396996Y-78721160D01*
X188389381Y-78727002D01*
X188381973Y-78733293D01*
X188378348Y-78736607D01*
X188374774Y-78740034D01*
X188371252Y-78743572D01*
X188367788Y-78747179D01*
X188364435Y-78750838D01*
X188361191Y-78754551D01*
X188358057Y-78758317D01*
X188352120Y-78766008D01*
X188346622Y-78773912D01*
X188341564Y-78782029D01*
X188336946Y-78790358D01*
X188332767Y-78798901D01*
X188329029Y-78807656D01*
X188325730Y-78816623D01*
X188322871Y-78825804D01*
X188320452Y-78835197D01*
X188319407Y-78839974D01*
X188318473Y-78844803D01*
X188317648Y-78849686D01*
X188316933Y-78854622D01*
X188316329Y-78859612D01*
X188315834Y-78864654D01*
X188315449Y-78869749D01*
X188315174Y-78874898D01*
X188315009Y-78880100D01*
X188314954Y-78885355D01*
X188236317Y-78885355D01*
X188236387Y-78879075D01*
X188236622Y-78872005D01*
X188237015Y-78864998D01*
X188237565Y-78858056D01*
X188238273Y-78851177D01*
X188239137Y-78844363D01*
X188240159Y-78837613D01*
X188241338Y-78830927D01*
X188242674Y-78824306D01*
X188244167Y-78817748D01*
X188245818Y-78811255D01*
X188247625Y-78804826D01*
X188249590Y-78798461D01*
X188251712Y-78792160D01*
X188253991Y-78785923D01*
X188256427Y-78779751D01*
X188259021Y-78773643D01*
X188261772Y-78767598D01*
X188264680Y-78761618D01*
X188267745Y-78755703D01*
X188270967Y-78749851D01*
X188274346Y-78744063D01*
X188277883Y-78738340D01*
X188281577Y-78732681D01*
X188285428Y-78727086D01*
X188289436Y-78721555D01*
X188293601Y-78716088D01*
X188297924Y-78710686D01*
X188302404Y-78705347D01*
X188307041Y-78700073D01*
X188311835Y-78694863D01*
X188316786Y-78689717D01*
X188321817Y-78684683D01*
X188326910Y-78679809D01*
X188332065Y-78675095D01*
X188337283Y-78670540D01*
X188342564Y-78666145D01*
X188347907Y-78661910D01*
X188353312Y-78657835D01*
X188358780Y-78653920D01*
X188364311Y-78650165D01*
X188369904Y-78646569D01*
X188375560Y-78643133D01*
X188381278Y-78639857D01*
X188387058Y-78636741D01*
X188392901Y-78633784D01*
X188398806Y-78630988D01*
X188404774Y-78628351D01*
X188410805Y-78625874D01*
X188416898Y-78623557D01*
X188423053Y-78621399D01*
X188429271Y-78619402D01*
X188435552Y-78617564D01*
X188441895Y-78615886D01*
X188448300Y-78614368D01*
X188454768Y-78613009D01*
X188461298Y-78611811D01*
X188467891Y-78610772D01*
X188474547Y-78609893D01*
X188481264Y-78609174D01*
X188488045Y-78608615D01*
X188494888Y-78608215D01*
X188501793Y-78607975D01*
X188508761Y-78607896D01*
X188515812Y-78607975D01*
G37*
G36*
X188056545Y-78623527D02*
G01*
X188056545Y-79076842D01*
X187900718Y-79076842D01*
X187900718Y-79155000D01*
X188135191Y-79155000D01*
X188135191Y-78623527D01*
X188056545Y-78623527D01*
G37*
G36*
X187762477Y-78623527D02*
G01*
X187762477Y-78940188D01*
X187762389Y-78948517D01*
X187762126Y-78956562D01*
X187761687Y-78964321D01*
X187761072Y-78971794D01*
X187760282Y-78978983D01*
X187759317Y-78985886D01*
X187758176Y-78992504D01*
X187756859Y-78998837D01*
X187755367Y-79004884D01*
X187753699Y-79010646D01*
X187751856Y-79016123D01*
X187749837Y-79021315D01*
X187747643Y-79026221D01*
X187745273Y-79030842D01*
X187742727Y-79035178D01*
X187740006Y-79039228D01*
X187735732Y-79044730D01*
X187731244Y-79049876D01*
X187726543Y-79054667D01*
X187721627Y-79059104D01*
X187716498Y-79063185D01*
X187711155Y-79066912D01*
X187705599Y-79070283D01*
X187699829Y-79073300D01*
X187693845Y-79075962D01*
X187687647Y-79078269D01*
X187681236Y-79080221D01*
X187674610Y-79081818D01*
X187667772Y-79083060D01*
X187660719Y-79083948D01*
X187653453Y-79084480D01*
X187645973Y-79084658D01*
X187638448Y-79084480D01*
X187631139Y-79083948D01*
X187624046Y-79083060D01*
X187617168Y-79081818D01*
X187610505Y-79080221D01*
X187604059Y-79078269D01*
X187597828Y-79075962D01*
X187591812Y-79073300D01*
X187586012Y-79070283D01*
X187580428Y-79066912D01*
X187575060Y-79063185D01*
X187569907Y-79059104D01*
X187564969Y-79054667D01*
X187560248Y-79049876D01*
X187555741Y-79044730D01*
X187551451Y-79039228D01*
X187547435Y-79033212D01*
X187544978Y-79028825D01*
X187542695Y-79024137D01*
X187540589Y-79019150D01*
X187538658Y-79013861D01*
X187536902Y-79008272D01*
X187535322Y-79002383D01*
X187533918Y-78996193D01*
X187532689Y-78989702D01*
X187531636Y-78982911D01*
X187530758Y-78975819D01*
X187530056Y-78968427D01*
X187529529Y-78960734D01*
X187529178Y-78952741D01*
X187529003Y-78944447D01*
X187528981Y-78940188D01*
X187528981Y-78623527D01*
X187450334Y-78623527D01*
X187450334Y-78964490D01*
X187450385Y-78969690D01*
X187450538Y-78974832D01*
X187450792Y-78979917D01*
X187451147Y-78984945D01*
X187451605Y-78989916D01*
X187452163Y-78994830D01*
X187452824Y-78999686D01*
X187454450Y-79009227D01*
X187456482Y-79018538D01*
X187458920Y-79027621D01*
X187461765Y-79036475D01*
X187465017Y-79045100D01*
X187468675Y-79053496D01*
X187472739Y-79061662D01*
X187477210Y-79069600D01*
X187482087Y-79077309D01*
X187487371Y-79084789D01*
X187493061Y-79092040D01*
X187499158Y-79099062D01*
X187502358Y-79102487D01*
X187506033Y-79106199D01*
X187509760Y-79109793D01*
X187513539Y-79113269D01*
X187517371Y-79116627D01*
X187521256Y-79119867D01*
X187525193Y-79122989D01*
X187529182Y-79125994D01*
X187533224Y-79128881D01*
X187537319Y-79131650D01*
X187541466Y-79134301D01*
X187545665Y-79136834D01*
X187549917Y-79139250D01*
X187558578Y-79143727D01*
X187567449Y-79147733D01*
X187576530Y-79151268D01*
X187581149Y-79152859D01*
X187585821Y-79154332D01*
X187590545Y-79155687D01*
X187595321Y-79156924D01*
X187600150Y-79158043D01*
X187605032Y-79159045D01*
X187609966Y-79159928D01*
X187614952Y-79160694D01*
X187619991Y-79161342D01*
X187625083Y-79161873D01*
X187630226Y-79162285D01*
X187635423Y-79162580D01*
X187640672Y-79162756D01*
X187645973Y-79162815D01*
X187651267Y-79162756D01*
X187656507Y-79162580D01*
X187661696Y-79162285D01*
X187666831Y-79161873D01*
X187671914Y-79161342D01*
X187676944Y-79160694D01*
X187681921Y-79159928D01*
X187686845Y-79159045D01*
X187691717Y-79158043D01*
X187696536Y-79156924D01*
X187701303Y-79155687D01*
X187706017Y-79154332D01*
X187710678Y-79152859D01*
X187719842Y-79149560D01*
X187728795Y-79145789D01*
X187737537Y-79141547D01*
X187746068Y-79136834D01*
X187750255Y-79134301D01*
X187754389Y-79131650D01*
X187758470Y-79128881D01*
X187762498Y-79125994D01*
X187766474Y-79122989D01*
X187770397Y-79119867D01*
X187774267Y-79116627D01*
X187778085Y-79113269D01*
X187781850Y-79109793D01*
X187785562Y-79106199D01*
X187789221Y-79102487D01*
X187795506Y-79095580D01*
X187801386Y-79088443D01*
X187806860Y-79081078D01*
X187811928Y-79073483D01*
X187816591Y-79065660D01*
X187820849Y-79057608D01*
X187824701Y-79049326D01*
X187828148Y-79040816D01*
X187831189Y-79032077D01*
X187833824Y-79023108D01*
X187836055Y-79013911D01*
X187837879Y-79004485D01*
X187839298Y-78994830D01*
X187839856Y-78989916D01*
X187840312Y-78984945D01*
X187840667Y-78979917D01*
X187840920Y-78974832D01*
X187841072Y-78969690D01*
X187841123Y-78964490D01*
X187841123Y-78623527D01*
X187762477Y-78623527D01*
G37*
G36*
X187342013Y-79155000D02*
G01*
X187231004Y-78584815D01*
X187049776Y-78996974D01*
X186862198Y-78584815D01*
X186762424Y-79155000D01*
X186844002Y-79155000D01*
X186894926Y-78834797D01*
X187051242Y-79179424D01*
X187202916Y-78834553D01*
X187259703Y-79155000D01*
X187342013Y-79155000D01*
G37*
G36*
X186651660Y-79155000D02*
G01*
X186651660Y-78587501D01*
X186268688Y-78992822D01*
X186268688Y-78623527D01*
X186190041Y-78623527D01*
X186190041Y-79187240D01*
X186573014Y-78782896D01*
X186573014Y-79155000D01*
X186651660Y-79155000D01*
G37*
G36*
X185760052Y-78698876D02*
G01*
X185824654Y-78738077D01*
X185828074Y-78732363D01*
X185831463Y-78727035D01*
X185834823Y-78722093D01*
X185838152Y-78717538D01*
X185841452Y-78713369D01*
X185844721Y-78709586D01*
X185849034Y-78705144D01*
X185853292Y-78701389D01*
X185857498Y-78698321D01*
X185859581Y-78697044D01*
X185864076Y-78694468D01*
X185868893Y-78692236D01*
X185874029Y-78690347D01*
X185879487Y-78688801D01*
X185885264Y-78687599D01*
X185891363Y-78686740D01*
X185897782Y-78686225D01*
X185902807Y-78686064D01*
X185904521Y-78686053D01*
X185910717Y-78686221D01*
X185916712Y-78686723D01*
X185922504Y-78687560D01*
X185928095Y-78688732D01*
X185933484Y-78690239D01*
X185938671Y-78692081D01*
X185943656Y-78694258D01*
X185948439Y-78696769D01*
X185953021Y-78699616D01*
X185957401Y-78702797D01*
X185960209Y-78705104D01*
X185964181Y-78708671D01*
X185967762Y-78712409D01*
X185970953Y-78716318D01*
X185973753Y-78720400D01*
X185976162Y-78724653D01*
X185978767Y-78730591D01*
X185980264Y-78735245D01*
X185981371Y-78740071D01*
X185982088Y-78745068D01*
X185982413Y-78750238D01*
X185982435Y-78751999D01*
X185981929Y-78759191D01*
X185980413Y-78766112D01*
X185977885Y-78772763D01*
X185974346Y-78779144D01*
X185971425Y-78783248D01*
X185968055Y-78787231D01*
X185964236Y-78791094D01*
X185959967Y-78794837D01*
X185955248Y-78798459D01*
X185950080Y-78801962D01*
X185944463Y-78805344D01*
X185938397Y-78808606D01*
X185931881Y-78811748D01*
X185924916Y-78814769D01*
X185872037Y-78836507D01*
X185864127Y-78839834D01*
X185856488Y-78843250D01*
X185849118Y-78846756D01*
X185842018Y-78850352D01*
X185835188Y-78854038D01*
X185828629Y-78857813D01*
X185822339Y-78861678D01*
X185816319Y-78865633D01*
X185810570Y-78869677D01*
X185805090Y-78873811D01*
X185799880Y-78878035D01*
X185794940Y-78882348D01*
X185790271Y-78886751D01*
X185785871Y-78891244D01*
X185781741Y-78895826D01*
X185777882Y-78900498D01*
X185774258Y-78905282D01*
X185770869Y-78910199D01*
X185767714Y-78915250D01*
X185764792Y-78920435D01*
X185762104Y-78925753D01*
X185759649Y-78931204D01*
X185757429Y-78936790D01*
X185755442Y-78942508D01*
X185753689Y-78948361D01*
X185752169Y-78954346D01*
X185750884Y-78960466D01*
X185749832Y-78966719D01*
X185749014Y-78973105D01*
X185748429Y-78979626D01*
X185748079Y-78986279D01*
X185747962Y-78993066D01*
X185748150Y-79002156D01*
X185748716Y-79011045D01*
X185749658Y-79019734D01*
X185750977Y-79028222D01*
X185752673Y-79036510D01*
X185754745Y-79044598D01*
X185757195Y-79052485D01*
X185760021Y-79060172D01*
X185763225Y-79067659D01*
X185766805Y-79074945D01*
X185770762Y-79082031D01*
X185775096Y-79088917D01*
X185779806Y-79095602D01*
X185784894Y-79102087D01*
X185790358Y-79108371D01*
X185796200Y-79114455D01*
X185802382Y-79120311D01*
X185808746Y-79125790D01*
X185815292Y-79130890D01*
X185822021Y-79135613D01*
X185828932Y-79139958D01*
X185836025Y-79143925D01*
X185843300Y-79147514D01*
X185850758Y-79150725D01*
X185858397Y-79153559D01*
X185866219Y-79156015D01*
X185874223Y-79158093D01*
X185882410Y-79159793D01*
X185890779Y-79161115D01*
X185899329Y-79162060D01*
X185908063Y-79162626D01*
X185916978Y-79162815D01*
X185925419Y-79162652D01*
X185933674Y-79162163D01*
X185941745Y-79161347D01*
X185949630Y-79160205D01*
X185957330Y-79158737D01*
X185964846Y-79156942D01*
X185972176Y-79154821D01*
X185979321Y-79152374D01*
X185986281Y-79149600D01*
X185993056Y-79146501D01*
X185999645Y-79143075D01*
X186006050Y-79139322D01*
X186012270Y-79135243D01*
X186018304Y-79130839D01*
X186024154Y-79126107D01*
X186029818Y-79121050D01*
X186035170Y-79115712D01*
X186040265Y-79110108D01*
X186045104Y-79104240D01*
X186049686Y-79098106D01*
X186054011Y-79091707D01*
X186058080Y-79085043D01*
X186061892Y-79078114D01*
X186065447Y-79070919D01*
X186068746Y-79063459D01*
X186071788Y-79055734D01*
X186074573Y-79047743D01*
X186077102Y-79039488D01*
X186079374Y-79030967D01*
X186081390Y-79022181D01*
X186083148Y-79013130D01*
X186084651Y-79003813D01*
X186005638Y-78985983D01*
X186004918Y-78991702D01*
X186004132Y-78997194D01*
X186003281Y-79002460D01*
X186002364Y-79007500D01*
X186001380Y-79012313D01*
X185999782Y-79019110D01*
X185998036Y-79025398D01*
X185996142Y-79031177D01*
X185994099Y-79036448D01*
X185991908Y-79041209D01*
X185988757Y-79046767D01*
X185986221Y-79050341D01*
X185983047Y-79054497D01*
X185979695Y-79058384D01*
X185976163Y-79062004D01*
X185972452Y-79065355D01*
X185968561Y-79068438D01*
X185964491Y-79071253D01*
X185960241Y-79073800D01*
X185955812Y-79076079D01*
X185951204Y-79078089D01*
X185946417Y-79079832D01*
X185941450Y-79081306D01*
X185936304Y-79082513D01*
X185930978Y-79083451D01*
X185925473Y-79084121D01*
X185919789Y-79084524D01*
X185913925Y-79084658D01*
X185906985Y-79084436D01*
X185900271Y-79083773D01*
X185893782Y-79082668D01*
X185887518Y-79081120D01*
X185881480Y-79079130D01*
X185875667Y-79076698D01*
X185870080Y-79073823D01*
X185864718Y-79070507D01*
X185859581Y-79066748D01*
X185854670Y-79062547D01*
X185851521Y-79059501D01*
X185847069Y-79054666D01*
X185843054Y-79049594D01*
X185839478Y-79044287D01*
X185836340Y-79038744D01*
X185833639Y-79032964D01*
X185831376Y-79026949D01*
X185829552Y-79020697D01*
X185828165Y-79014209D01*
X185827216Y-79007485D01*
X185826705Y-79000524D01*
X185826608Y-78995753D01*
X185826758Y-78990027D01*
X185827209Y-78984482D01*
X185827960Y-78979117D01*
X185829012Y-78973932D01*
X185830365Y-78968927D01*
X185830882Y-78967299D01*
X185832653Y-78962518D01*
X185834758Y-78957882D01*
X185837198Y-78953393D01*
X185839973Y-78949049D01*
X185843082Y-78944852D01*
X185844193Y-78943485D01*
X185847771Y-78939461D01*
X185851727Y-78935540D01*
X185856060Y-78931721D01*
X185859960Y-78928618D01*
X185864122Y-78925587D01*
X185867641Y-78923213D01*
X185872240Y-78920260D01*
X185877108Y-78917355D01*
X185882244Y-78914498D01*
X185887648Y-78911688D01*
X185892164Y-78909474D01*
X185896853Y-78907291D01*
X185901713Y-78905139D01*
X185952637Y-78883768D01*
X185959309Y-78880841D01*
X185965769Y-78877831D01*
X185972017Y-78874737D01*
X185978054Y-78871559D01*
X185983878Y-78868299D01*
X185989491Y-78864954D01*
X185994892Y-78861527D01*
X186000081Y-78858015D01*
X186005059Y-78854421D01*
X186009824Y-78850743D01*
X186014378Y-78846981D01*
X186018720Y-78843136D01*
X186022850Y-78839207D01*
X186026769Y-78835195D01*
X186030475Y-78831099D01*
X186033970Y-78826920D01*
X186037253Y-78822658D01*
X186040324Y-78818312D01*
X186043184Y-78813882D01*
X186045831Y-78809369D01*
X186048267Y-78804773D01*
X186050491Y-78800093D01*
X186052503Y-78795329D01*
X186054303Y-78790482D01*
X186055892Y-78785552D01*
X186057269Y-78780538D01*
X186058434Y-78775441D01*
X186059387Y-78770260D01*
X186060128Y-78764995D01*
X186060658Y-78759648D01*
X186060975Y-78754216D01*
X186061081Y-78748702D01*
X186060903Y-78741298D01*
X186060369Y-78734047D01*
X186059480Y-78726949D01*
X186058234Y-78720003D01*
X186056633Y-78713210D01*
X186054675Y-78706570D01*
X186052362Y-78700082D01*
X186049693Y-78693747D01*
X186046668Y-78687564D01*
X186043288Y-78681535D01*
X186039551Y-78675658D01*
X186035459Y-78669933D01*
X186031010Y-78664361D01*
X186026206Y-78658942D01*
X186021046Y-78653676D01*
X186015530Y-78648562D01*
X186009765Y-78643638D01*
X186003827Y-78639031D01*
X185997717Y-78634742D01*
X185991434Y-78630770D01*
X185984978Y-78627117D01*
X185978350Y-78623781D01*
X185971548Y-78620763D01*
X185964575Y-78618062D01*
X185957428Y-78615679D01*
X185950109Y-78613614D01*
X185942617Y-78611867D01*
X185934953Y-78610437D01*
X185927115Y-78609325D01*
X185919105Y-78608531D01*
X185910923Y-78608054D01*
X185902568Y-78607896D01*
X185896905Y-78607984D01*
X185891320Y-78608251D01*
X185885814Y-78608695D01*
X185880385Y-78609317D01*
X185875035Y-78610117D01*
X185869762Y-78611094D01*
X185864568Y-78612249D01*
X185859451Y-78613582D01*
X185854412Y-78615092D01*
X185849452Y-78616780D01*
X185844569Y-78618646D01*
X185839765Y-78620690D01*
X185835038Y-78622911D01*
X185830389Y-78625310D01*
X185825819Y-78627886D01*
X185821326Y-78630641D01*
X185816912Y-78633573D01*
X185812575Y-78636682D01*
X185808316Y-78639970D01*
X185804136Y-78643435D01*
X185800033Y-78647078D01*
X185796008Y-78650898D01*
X185792062Y-78654896D01*
X185788193Y-78659072D01*
X185784403Y-78663426D01*
X185780690Y-78667957D01*
X185777055Y-78672666D01*
X185773499Y-78677552D01*
X185770020Y-78682617D01*
X185766619Y-78687859D01*
X185763297Y-78693279D01*
X185760052Y-78698876D01*
G37*
G36*
X175495000Y-84781172D02*
G01*
X175276158Y-84781172D01*
X175276158Y-84795704D01*
X175495000Y-84947868D01*
X175495000Y-85045931D01*
X175268464Y-84882655D01*
X175266931Y-84889154D01*
X175265169Y-84895493D01*
X175263179Y-84901671D01*
X175260961Y-84907690D01*
X175258516Y-84913548D01*
X175255842Y-84919245D01*
X175252940Y-84924783D01*
X175249810Y-84930160D01*
X175246452Y-84935377D01*
X175242866Y-84940433D01*
X175239053Y-84945330D01*
X175235011Y-84950066D01*
X175230741Y-84954642D01*
X175226243Y-84959057D01*
X175221517Y-84963312D01*
X175216563Y-84967407D01*
X175211432Y-84971296D01*
X175206177Y-84974935D01*
X175200796Y-84978322D01*
X175195291Y-84981459D01*
X175189660Y-84984344D01*
X175183905Y-84986979D01*
X175178024Y-84989363D01*
X175172019Y-84991495D01*
X175165888Y-84993377D01*
X175159633Y-84995008D01*
X175153253Y-84996388D01*
X175146747Y-84997518D01*
X175140117Y-84998396D01*
X175133362Y-84999023D01*
X175126481Y-84999400D01*
X175119476Y-84999525D01*
X175110550Y-84999324D01*
X175101845Y-84998720D01*
X175093361Y-84997713D01*
X175085099Y-84996304D01*
X175077058Y-84994492D01*
X175069238Y-84992278D01*
X175061640Y-84989661D01*
X175054263Y-84986641D01*
X175047108Y-84983219D01*
X175040174Y-84979394D01*
X175033461Y-84975167D01*
X175026969Y-84970536D01*
X175020699Y-84965504D01*
X175014650Y-84960068D01*
X175008823Y-84954230D01*
X175003217Y-84947990D01*
X174998410Y-84941916D01*
X174993914Y-84935386D01*
X174989728Y-84928402D01*
X174985852Y-84920963D01*
X174982287Y-84913068D01*
X174979031Y-84904719D01*
X174976085Y-84895914D01*
X174973449Y-84886654D01*
X174972248Y-84881854D01*
X174971124Y-84876939D01*
X174970077Y-84871911D01*
X174969108Y-84866769D01*
X174968217Y-84861514D01*
X174967403Y-84856144D01*
X174966667Y-84850661D01*
X174966008Y-84845064D01*
X174965426Y-84839354D01*
X174964922Y-84833529D01*
X174964496Y-84827591D01*
X174964147Y-84821539D01*
X174963876Y-84815373D01*
X174963682Y-84809093D01*
X174963566Y-84802700D01*
X174963527Y-84796193D01*
X174963527Y-84781172D01*
X175041685Y-84781172D01*
X175041685Y-84809748D01*
X175041763Y-84816585D01*
X175041997Y-84823205D01*
X175042387Y-84829609D01*
X175042933Y-84835794D01*
X175043635Y-84841763D01*
X175044493Y-84847515D01*
X175045507Y-84853050D01*
X175046676Y-84858368D01*
X175048002Y-84863469D01*
X175049484Y-84868352D01*
X175051122Y-84873019D01*
X175054866Y-84881701D01*
X175059234Y-84889515D01*
X175064225Y-84896460D01*
X175069841Y-84902538D01*
X175076081Y-84907747D01*
X175082944Y-84912088D01*
X175090432Y-84915561D01*
X175098544Y-84918166D01*
X175107279Y-84919902D01*
X175116638Y-84920770D01*
X175121552Y-84920879D01*
X175126796Y-84920767D01*
X175131874Y-84920433D01*
X175141530Y-84919095D01*
X175150521Y-84916865D01*
X175158845Y-84913742D01*
X175166503Y-84909728D01*
X175173496Y-84904822D01*
X175179822Y-84899023D01*
X175185483Y-84892333D01*
X175190477Y-84884750D01*
X175194806Y-84876276D01*
X175196721Y-84871704D01*
X175198469Y-84866909D01*
X175200050Y-84861891D01*
X175201465Y-84856651D01*
X175202714Y-84851187D01*
X175203796Y-84845500D01*
X175204712Y-84839590D01*
X175205461Y-84833457D01*
X175206044Y-84827101D01*
X175206460Y-84820522D01*
X175206710Y-84813720D01*
X175206793Y-84806695D01*
X175206793Y-84781172D01*
X175041685Y-84781172D01*
X174963527Y-84781172D01*
X174963527Y-84702526D01*
X175495000Y-84702526D01*
X175495000Y-84781172D01*
G37*
G36*
X175231139Y-85088516D02*
G01*
X175239025Y-85088777D01*
X175246815Y-85089211D01*
X175254510Y-85089818D01*
X175262109Y-85090600D01*
X175269612Y-85091555D01*
X175277020Y-85092684D01*
X175284332Y-85093986D01*
X175291549Y-85095462D01*
X175298670Y-85097111D01*
X175305695Y-85098935D01*
X175312625Y-85100932D01*
X175319458Y-85103102D01*
X175326197Y-85105446D01*
X175332839Y-85107964D01*
X175339386Y-85110655D01*
X175345838Y-85113521D01*
X175352193Y-85116559D01*
X175358453Y-85119772D01*
X175364618Y-85123158D01*
X175370686Y-85126717D01*
X175376660Y-85130451D01*
X175382537Y-85134358D01*
X175388319Y-85138438D01*
X175394005Y-85142692D01*
X175399595Y-85147120D01*
X175405090Y-85151722D01*
X175410490Y-85156497D01*
X175415793Y-85161446D01*
X175421001Y-85166568D01*
X175426113Y-85171864D01*
X175431130Y-85177334D01*
X175435540Y-85182399D01*
X175439811Y-85187505D01*
X175443941Y-85192652D01*
X175447931Y-85197839D01*
X175451782Y-85203066D01*
X175455492Y-85208334D01*
X175459062Y-85213643D01*
X175462492Y-85218992D01*
X175465783Y-85224382D01*
X175468933Y-85229813D01*
X175471943Y-85235283D01*
X175474813Y-85240795D01*
X175477543Y-85246347D01*
X175480134Y-85251939D01*
X175482584Y-85257573D01*
X175484894Y-85263246D01*
X175487064Y-85268960D01*
X175489094Y-85274715D01*
X175490984Y-85280510D01*
X175492735Y-85286346D01*
X175494345Y-85292223D01*
X175495815Y-85298140D01*
X175497145Y-85304097D01*
X175498335Y-85310095D01*
X175499385Y-85316134D01*
X175500295Y-85322213D01*
X175501065Y-85328332D01*
X175501695Y-85334493D01*
X175502185Y-85340693D01*
X175502535Y-85346935D01*
X175502745Y-85353217D01*
X175502815Y-85359539D01*
X175502736Y-85366673D01*
X175502499Y-85373741D01*
X175502105Y-85380744D01*
X175501552Y-85387680D01*
X175500842Y-85394551D01*
X175499973Y-85401356D01*
X175498947Y-85408095D01*
X175497762Y-85414768D01*
X175496420Y-85421376D01*
X175494920Y-85427917D01*
X175493262Y-85434393D01*
X175491447Y-85440803D01*
X175489473Y-85447147D01*
X175487341Y-85453425D01*
X175485052Y-85459638D01*
X175482604Y-85465785D01*
X175479999Y-85471865D01*
X175477236Y-85477880D01*
X175474314Y-85483829D01*
X175471235Y-85489713D01*
X175467999Y-85495530D01*
X175464604Y-85501282D01*
X175461051Y-85506968D01*
X175457340Y-85512588D01*
X175453472Y-85518142D01*
X175449445Y-85523630D01*
X175445261Y-85529053D01*
X175440919Y-85534409D01*
X175436419Y-85539700D01*
X175431761Y-85544925D01*
X175426945Y-85550084D01*
X175421971Y-85555177D01*
X175416914Y-85560151D01*
X175411789Y-85564967D01*
X175406596Y-85569625D01*
X175401334Y-85574125D01*
X175396004Y-85578468D01*
X175390605Y-85582652D01*
X175385138Y-85586678D01*
X175379602Y-85590547D01*
X175373998Y-85594257D01*
X175368326Y-85597810D01*
X175362585Y-85601205D01*
X175356775Y-85604442D01*
X175350897Y-85607521D01*
X175344951Y-85610442D01*
X175338936Y-85613205D01*
X175332853Y-85615811D01*
X175326701Y-85618258D01*
X175320481Y-85620548D01*
X175314192Y-85622679D01*
X175307835Y-85624653D01*
X175301409Y-85626469D01*
X175294915Y-85628127D01*
X175288353Y-85629627D01*
X175281722Y-85630969D01*
X175275023Y-85632153D01*
X175268255Y-85633180D01*
X175261419Y-85634048D01*
X175254514Y-85634759D01*
X175247541Y-85635311D01*
X175240499Y-85635706D01*
X175233389Y-85635943D01*
X175226210Y-85636022D01*
X175219075Y-85635943D01*
X175212005Y-85635707D01*
X175204998Y-85635315D01*
X175198056Y-85634764D01*
X175191177Y-85634057D01*
X175184363Y-85633193D01*
X175177613Y-85632171D01*
X175170927Y-85630992D01*
X175164306Y-85629656D01*
X175157748Y-85628163D01*
X175151255Y-85626512D01*
X175144826Y-85624705D01*
X175138461Y-85622740D01*
X175132160Y-85620618D01*
X175125923Y-85618339D01*
X175119751Y-85615902D01*
X175113643Y-85613309D01*
X175107598Y-85610558D01*
X175101618Y-85607650D01*
X175095703Y-85604585D01*
X175089851Y-85601363D01*
X175084063Y-85597983D01*
X175078340Y-85594447D01*
X175072681Y-85590753D01*
X175067086Y-85586902D01*
X175061555Y-85582894D01*
X175056088Y-85578728D01*
X175050686Y-85574406D01*
X175045347Y-85569926D01*
X175040073Y-85565289D01*
X175034863Y-85560495D01*
X175029717Y-85555544D01*
X175024683Y-85550513D01*
X175019809Y-85545420D01*
X175015095Y-85540265D01*
X175010540Y-85535046D01*
X175006145Y-85529766D01*
X175001910Y-85524423D01*
X174997835Y-85519017D01*
X174993920Y-85513549D01*
X174990165Y-85508019D01*
X174986569Y-85502426D01*
X174983133Y-85496770D01*
X174979857Y-85491052D01*
X174976741Y-85485272D01*
X174973784Y-85479429D01*
X174970988Y-85473523D01*
X174968351Y-85467555D01*
X174965874Y-85461525D01*
X174963557Y-85455432D01*
X174961399Y-85449276D01*
X174959402Y-85443059D01*
X174957564Y-85436778D01*
X174955886Y-85430435D01*
X174954368Y-85424030D01*
X174953009Y-85417562D01*
X174951811Y-85411031D01*
X174950772Y-85404439D01*
X174949893Y-85397783D01*
X174949174Y-85391065D01*
X174948615Y-85384285D01*
X174948215Y-85377442D01*
X174947975Y-85370537D01*
X174947896Y-85363569D01*
X174947907Y-85362592D01*
X175026053Y-85362592D01*
X175026109Y-85367726D01*
X175026278Y-85372807D01*
X175026559Y-85377837D01*
X175026952Y-85382815D01*
X175027458Y-85387740D01*
X175028806Y-85397435D01*
X175030603Y-85406923D01*
X175032850Y-85416202D01*
X175035546Y-85425273D01*
X175038692Y-85434137D01*
X175042287Y-85442792D01*
X175046331Y-85451239D01*
X175050825Y-85459479D01*
X175055768Y-85467510D01*
X175061160Y-85475334D01*
X175067002Y-85482949D01*
X175073293Y-85490356D01*
X175076607Y-85493982D01*
X175080034Y-85497556D01*
X175083572Y-85501078D01*
X175087179Y-85504541D01*
X175090838Y-85507895D01*
X175094551Y-85511139D01*
X175098317Y-85514272D01*
X175106008Y-85520210D01*
X175113912Y-85525708D01*
X175122029Y-85530766D01*
X175130358Y-85535384D01*
X175138901Y-85539563D01*
X175147656Y-85543301D01*
X175156623Y-85546600D01*
X175165804Y-85549459D01*
X175175197Y-85551878D01*
X175179974Y-85552922D01*
X175184803Y-85553857D01*
X175189686Y-85554682D01*
X175194622Y-85555396D01*
X175199612Y-85556001D01*
X175204654Y-85556496D01*
X175209749Y-85556881D01*
X175214898Y-85557156D01*
X175220100Y-85557321D01*
X175225355Y-85557376D01*
X175230551Y-85557320D01*
X175235698Y-85557153D01*
X175240795Y-85556874D01*
X175245843Y-85556485D01*
X175250842Y-85555983D01*
X175255791Y-85555371D01*
X175260691Y-85554647D01*
X175265541Y-85553811D01*
X175275094Y-85551806D01*
X175284449Y-85549356D01*
X175293606Y-85546460D01*
X175302567Y-85543118D01*
X175311329Y-85539331D01*
X175319895Y-85535098D01*
X175328262Y-85530420D01*
X175336432Y-85525296D01*
X175344405Y-85519726D01*
X175348317Y-85516775D01*
X175352180Y-85513712D01*
X175355994Y-85510537D01*
X175359758Y-85507251D01*
X175363473Y-85503854D01*
X175367138Y-85500345D01*
X175370677Y-85496763D01*
X175374104Y-85493130D01*
X175377418Y-85489446D01*
X175380619Y-85485711D01*
X175383709Y-85481926D01*
X175389551Y-85474203D01*
X175394943Y-85466276D01*
X175399886Y-85458147D01*
X175404380Y-85449814D01*
X175408424Y-85441278D01*
X175412019Y-85432538D01*
X175415165Y-85423596D01*
X175417861Y-85414450D01*
X175420108Y-85405101D01*
X175421905Y-85395549D01*
X175422635Y-85390697D01*
X175423253Y-85385793D01*
X175423759Y-85380840D01*
X175424152Y-85375835D01*
X175424433Y-85370779D01*
X175424601Y-85365673D01*
X175424658Y-85360516D01*
X175424437Y-85351030D01*
X175423774Y-85341686D01*
X175422670Y-85332483D01*
X175421124Y-85323422D01*
X175419136Y-85314501D01*
X175416706Y-85305722D01*
X175413835Y-85297083D01*
X175410522Y-85288586D01*
X175406767Y-85280231D01*
X175402571Y-85272016D01*
X175397933Y-85263943D01*
X175392853Y-85256010D01*
X175387331Y-85248220D01*
X175381367Y-85240570D01*
X175378220Y-85236798D01*
X175374962Y-85233061D01*
X175371594Y-85229360D01*
X175368115Y-85225694D01*
X175364551Y-85222087D01*
X175360926Y-85218596D01*
X175357241Y-85215218D01*
X175353495Y-85211955D01*
X175349689Y-85208807D01*
X175345822Y-85205773D01*
X175337906Y-85200048D01*
X175329747Y-85194782D01*
X175321347Y-85189973D01*
X175312704Y-85185623D01*
X175303818Y-85181730D01*
X175294691Y-85178295D01*
X175290036Y-85176750D01*
X175285321Y-85175319D01*
X175280545Y-85174002D01*
X175275709Y-85172800D01*
X175270812Y-85171712D01*
X175265854Y-85170739D01*
X175260836Y-85169881D01*
X175255757Y-85169136D01*
X175250618Y-85168507D01*
X175245418Y-85167991D01*
X175240157Y-85167591D01*
X175234836Y-85167305D01*
X175229454Y-85167133D01*
X175224012Y-85167076D01*
X175218817Y-85167131D01*
X175213675Y-85167297D01*
X175208584Y-85167574D01*
X175203545Y-85167961D01*
X175198559Y-85168459D01*
X175193624Y-85169068D01*
X175188741Y-85169787D01*
X175183910Y-85170617D01*
X175174405Y-85172609D01*
X175165108Y-85175044D01*
X175156018Y-85177921D01*
X175147137Y-85181242D01*
X175138463Y-85185005D01*
X175129998Y-85189210D01*
X175121740Y-85193858D01*
X175113691Y-85198949D01*
X175105849Y-85204483D01*
X175098216Y-85210459D01*
X175094477Y-85213613D01*
X175090790Y-85216878D01*
X175087155Y-85220254D01*
X175083572Y-85223740D01*
X175080034Y-85227299D01*
X175076607Y-85230908D01*
X175073293Y-85234568D01*
X175070091Y-85238278D01*
X175064025Y-85245849D01*
X175058408Y-85253621D01*
X175053240Y-85261595D01*
X175048522Y-85269770D01*
X175044253Y-85278146D01*
X175040433Y-85286724D01*
X175037063Y-85295503D01*
X175034142Y-85304483D01*
X175031670Y-85313665D01*
X175029648Y-85323048D01*
X175028075Y-85332632D01*
X175027458Y-85337499D01*
X175026952Y-85342417D01*
X175026559Y-85347385D01*
X175026278Y-85352404D01*
X175026109Y-85357473D01*
X175026053Y-85362592D01*
X174947907Y-85362592D01*
X174947975Y-85356518D01*
X174948213Y-85349530D01*
X174948609Y-85342606D01*
X174949164Y-85335746D01*
X174949878Y-85328950D01*
X174950751Y-85322217D01*
X174951782Y-85315548D01*
X174952971Y-85308942D01*
X174954319Y-85302401D01*
X174955826Y-85295923D01*
X174957492Y-85289508D01*
X174959316Y-85283158D01*
X174961298Y-85276871D01*
X174963440Y-85270647D01*
X174965740Y-85264488D01*
X174968198Y-85258392D01*
X174970815Y-85252360D01*
X174973591Y-85246391D01*
X174976525Y-85240486D01*
X174979618Y-85234645D01*
X174982870Y-85228867D01*
X174986280Y-85223154D01*
X174989849Y-85217503D01*
X174993577Y-85211917D01*
X174997463Y-85206394D01*
X175001507Y-85200935D01*
X175005711Y-85195540D01*
X175010073Y-85190208D01*
X175014593Y-85184940D01*
X175019272Y-85179736D01*
X175024110Y-85174595D01*
X175029106Y-85169518D01*
X175034205Y-85164529D01*
X175039367Y-85159699D01*
X175044591Y-85155027D01*
X175049876Y-85150513D01*
X175055225Y-85146158D01*
X175060635Y-85141961D01*
X175066108Y-85137922D01*
X175071643Y-85134042D01*
X175077240Y-85130320D01*
X175082899Y-85126756D01*
X175088621Y-85123351D01*
X175094405Y-85120105D01*
X175100251Y-85117016D01*
X175106160Y-85114086D01*
X175112130Y-85111315D01*
X175118163Y-85108702D01*
X175124259Y-85106247D01*
X175130416Y-85103950D01*
X175136636Y-85101812D01*
X175142918Y-85099832D01*
X175149262Y-85098011D01*
X175155668Y-85096348D01*
X175162137Y-85094844D01*
X175168668Y-85093497D01*
X175175261Y-85092310D01*
X175181917Y-85091280D01*
X175188635Y-85090409D01*
X175195415Y-85089696D01*
X175202257Y-85089142D01*
X175209161Y-85088746D01*
X175216128Y-85088509D01*
X175223157Y-85088429D01*
X175231139Y-85088516D01*
G37*
G36*
X174963527Y-85741290D02*
G01*
X175318046Y-85878799D01*
X174937759Y-86022292D01*
X175318046Y-86159678D01*
X174963527Y-86305614D01*
X174963527Y-86392076D01*
X175527606Y-86156259D01*
X175151716Y-86020582D01*
X175527850Y-85879043D01*
X174963527Y-85654829D01*
X174963527Y-85741290D01*
G37*
G36*
X175038876Y-86744518D02*
G01*
X175078077Y-86679916D01*
X175072363Y-86676496D01*
X175067035Y-86673107D01*
X175062093Y-86669747D01*
X175057538Y-86666418D01*
X175053369Y-86663118D01*
X175049586Y-86659849D01*
X175045144Y-86655536D01*
X175041389Y-86651277D01*
X175038321Y-86647072D01*
X175037044Y-86644989D01*
X175034468Y-86640493D01*
X175032236Y-86635677D01*
X175030347Y-86630541D01*
X175028801Y-86625083D01*
X175027599Y-86619305D01*
X175026740Y-86613207D01*
X175026225Y-86606788D01*
X175026064Y-86601763D01*
X175026053Y-86600048D01*
X175026221Y-86593852D01*
X175026723Y-86587858D01*
X175027560Y-86582066D01*
X175028732Y-86576475D01*
X175030239Y-86571086D01*
X175032081Y-86565899D01*
X175034258Y-86560914D01*
X175036769Y-86556130D01*
X175039616Y-86551549D01*
X175042797Y-86547169D01*
X175045104Y-86544361D01*
X175048671Y-86540389D01*
X175052409Y-86536808D01*
X175056318Y-86533617D01*
X175060400Y-86530817D01*
X175064653Y-86528408D01*
X175070591Y-86525803D01*
X175075245Y-86524305D01*
X175080071Y-86523198D01*
X175085068Y-86522482D01*
X175090238Y-86522157D01*
X175091999Y-86522135D01*
X175099191Y-86522640D01*
X175106112Y-86524157D01*
X175112763Y-86526685D01*
X175119144Y-86530224D01*
X175123248Y-86533144D01*
X175127231Y-86536515D01*
X175131094Y-86540334D01*
X175134837Y-86544603D01*
X175138459Y-86549322D01*
X175141962Y-86554489D01*
X175145344Y-86560107D01*
X175148606Y-86566173D01*
X175151748Y-86572689D01*
X175154769Y-86579654D01*
X175176507Y-86632533D01*
X175179834Y-86640442D01*
X175183250Y-86648082D01*
X175186756Y-86655452D01*
X175190352Y-86662552D01*
X175194038Y-86669381D01*
X175197813Y-86675941D01*
X175201678Y-86682231D01*
X175205633Y-86688251D01*
X175209677Y-86694000D01*
X175213811Y-86699480D01*
X175218035Y-86704690D01*
X175222348Y-86709629D01*
X175226751Y-86714299D01*
X175231244Y-86718699D01*
X175235826Y-86722829D01*
X175240498Y-86726688D01*
X175245282Y-86730311D01*
X175250199Y-86733701D01*
X175255250Y-86736856D01*
X175260435Y-86739778D01*
X175265753Y-86742466D01*
X175271204Y-86744921D01*
X175276790Y-86747141D01*
X175282508Y-86749128D01*
X175288361Y-86750881D01*
X175294346Y-86752401D01*
X175300466Y-86753686D01*
X175306719Y-86754738D01*
X175313105Y-86755556D01*
X175319626Y-86756141D01*
X175326279Y-86756491D01*
X175333066Y-86756608D01*
X175342156Y-86756420D01*
X175351045Y-86755854D01*
X175359734Y-86754912D01*
X175368222Y-86753593D01*
X175376510Y-86751897D01*
X175384598Y-86749825D01*
X175392485Y-86747375D01*
X175400172Y-86744549D01*
X175407659Y-86741345D01*
X175414945Y-86737765D01*
X175422031Y-86733808D01*
X175428917Y-86729474D01*
X175435602Y-86724763D01*
X175442087Y-86719676D01*
X175448371Y-86714211D01*
X175454455Y-86708370D01*
X175460311Y-86702188D01*
X175465790Y-86695824D01*
X175470890Y-86689278D01*
X175475613Y-86682549D01*
X175479958Y-86675638D01*
X175483925Y-86668545D01*
X175487514Y-86661270D01*
X175490725Y-86653812D01*
X175493559Y-86646173D01*
X175496015Y-86638351D01*
X175498093Y-86630346D01*
X175499793Y-86622160D01*
X175501115Y-86613791D01*
X175502060Y-86605240D01*
X175502626Y-86596507D01*
X175502815Y-86587592D01*
X175502652Y-86579151D01*
X175502163Y-86570896D01*
X175501347Y-86562825D01*
X175500205Y-86554940D01*
X175498737Y-86547239D01*
X175496942Y-86539724D01*
X175494821Y-86532394D01*
X175492374Y-86525249D01*
X175489600Y-86518289D01*
X175486501Y-86511514D01*
X175483075Y-86504924D01*
X175479322Y-86498520D01*
X175475243Y-86492300D01*
X175470839Y-86486266D01*
X175466107Y-86480416D01*
X175461050Y-86474752D01*
X175455712Y-86469400D01*
X175450108Y-86464305D01*
X175444240Y-86459466D01*
X175438106Y-86454884D01*
X175431707Y-86450559D01*
X175425043Y-86446490D01*
X175418114Y-86442678D01*
X175410919Y-86439123D01*
X175403459Y-86435824D01*
X175395734Y-86432782D01*
X175387743Y-86429997D01*
X175379488Y-86427468D01*
X175370967Y-86425196D01*
X175362181Y-86423180D01*
X175353130Y-86421421D01*
X175343813Y-86419919D01*
X175325983Y-86498932D01*
X175331702Y-86499652D01*
X175337194Y-86500437D01*
X175342460Y-86501289D01*
X175347500Y-86502206D01*
X175352313Y-86503189D01*
X175359110Y-86504788D01*
X175365398Y-86506534D01*
X175371177Y-86508428D01*
X175376448Y-86510471D01*
X175381209Y-86512662D01*
X175386767Y-86515813D01*
X175390341Y-86518349D01*
X175394497Y-86521522D01*
X175398384Y-86524875D01*
X175402004Y-86528407D01*
X175405355Y-86532118D01*
X175408438Y-86536009D01*
X175411253Y-86540079D01*
X175413800Y-86544329D01*
X175416079Y-86548757D01*
X175418089Y-86553366D01*
X175419832Y-86558153D01*
X175421306Y-86563120D01*
X175422513Y-86568266D01*
X175423451Y-86573592D01*
X175424121Y-86579097D01*
X175424524Y-86584781D01*
X175424658Y-86590645D01*
X175424436Y-86597585D01*
X175423773Y-86604299D01*
X175422668Y-86610788D01*
X175421120Y-86617052D01*
X175419130Y-86623090D01*
X175416698Y-86628903D01*
X175413823Y-86634490D01*
X175410507Y-86639852D01*
X175406748Y-86644989D01*
X175402547Y-86649900D01*
X175399501Y-86653049D01*
X175394666Y-86657501D01*
X175389594Y-86661515D01*
X175384287Y-86665092D01*
X175378744Y-86668230D01*
X175372964Y-86670931D01*
X175366949Y-86673193D01*
X175360697Y-86675018D01*
X175354209Y-86676405D01*
X175347485Y-86677354D01*
X175340524Y-86677865D01*
X175335753Y-86677962D01*
X175330027Y-86677812D01*
X175324482Y-86677361D01*
X175319117Y-86676609D01*
X175313932Y-86675558D01*
X175308927Y-86674205D01*
X175307299Y-86673688D01*
X175302518Y-86671917D01*
X175297882Y-86669812D01*
X175293393Y-86667372D01*
X175289049Y-86664597D01*
X175284852Y-86661487D01*
X175283485Y-86660376D01*
X175279461Y-86656799D01*
X175275540Y-86652843D01*
X175271721Y-86648510D01*
X175268618Y-86644610D01*
X175265587Y-86640448D01*
X175263213Y-86636929D01*
X175260260Y-86632330D01*
X175257355Y-86627462D01*
X175254498Y-86622326D01*
X175251688Y-86616922D01*
X175249474Y-86612406D01*
X175247291Y-86607717D01*
X175245139Y-86602857D01*
X175223768Y-86551933D01*
X175220841Y-86545261D01*
X175217831Y-86538801D01*
X175214737Y-86532552D01*
X175211559Y-86526516D01*
X175208299Y-86520691D01*
X175204954Y-86515079D01*
X175201527Y-86509678D01*
X175198015Y-86504488D01*
X175194421Y-86499511D01*
X175190743Y-86494745D01*
X175186981Y-86490192D01*
X175183136Y-86485850D01*
X175179207Y-86481719D01*
X175175195Y-86477801D01*
X175171099Y-86474094D01*
X175166920Y-86470600D01*
X175162658Y-86467317D01*
X175158312Y-86464246D01*
X175153882Y-86461386D01*
X175149369Y-86458739D01*
X175144773Y-86456303D01*
X175140093Y-86454079D01*
X175135329Y-86452067D01*
X175130482Y-86450266D01*
X175125552Y-86448678D01*
X175120538Y-86447301D01*
X175115441Y-86446136D01*
X175110260Y-86445183D01*
X175104995Y-86444442D01*
X175099648Y-86443912D01*
X175094216Y-86443595D01*
X175088702Y-86443489D01*
X175081298Y-86443667D01*
X175074047Y-86444200D01*
X175066949Y-86445090D01*
X175060003Y-86446336D01*
X175053210Y-86447937D01*
X175046570Y-86449894D01*
X175040082Y-86452207D01*
X175033747Y-86454877D01*
X175027564Y-86457901D01*
X175021535Y-86461282D01*
X175015658Y-86465019D01*
X175009933Y-86469111D01*
X175004361Y-86473560D01*
X174998942Y-86478364D01*
X174993676Y-86483524D01*
X174988562Y-86489040D01*
X174983638Y-86494805D01*
X174979031Y-86500743D01*
X174974742Y-86506853D01*
X174970770Y-86513136D01*
X174967117Y-86519592D01*
X174963781Y-86526220D01*
X174960763Y-86533021D01*
X174958062Y-86539995D01*
X174955679Y-86547142D01*
X174953614Y-86554461D01*
X174951867Y-86561953D01*
X174950437Y-86569617D01*
X174949325Y-86577454D01*
X174948531Y-86585464D01*
X174948054Y-86593647D01*
X174947896Y-86602002D01*
X174947984Y-86607665D01*
X174948251Y-86613249D01*
X174948695Y-86618756D01*
X174949317Y-86624185D01*
X174950117Y-86629535D01*
X174951094Y-86634808D01*
X174952249Y-86640002D01*
X174953582Y-86645119D01*
X174955092Y-86650157D01*
X174956780Y-86655118D01*
X174958646Y-86660001D01*
X174960690Y-86664805D01*
X174962911Y-86669532D01*
X174965310Y-86674180D01*
X174967886Y-86678751D01*
X174970641Y-86683244D01*
X174973573Y-86687658D01*
X174976682Y-86691995D01*
X174979970Y-86696253D01*
X174983435Y-86700434D01*
X174987078Y-86704537D01*
X174990898Y-86708561D01*
X174994896Y-86712508D01*
X174999072Y-86716377D01*
X175003426Y-86720167D01*
X175007957Y-86723880D01*
X175012666Y-86727515D01*
X175017552Y-86731071D01*
X175022617Y-86734550D01*
X175027859Y-86737951D01*
X175033279Y-86741273D01*
X175038876Y-86744518D01*
G37*
D15*
%TO.C,SW1*%
X176628700Y-87938900D02*
X176628700Y-87938900D01*
X176628700Y-87938900D02*
X176628700Y-87938900D01*
X176628700Y-91758900D02*
X176628700Y-87938900D01*
X177248700Y-92383900D02*
X185518700Y-92383900D01*
X181708700Y-87938900D02*
X176628700Y-87938900D01*
X181708700Y-87938900D02*
X181708700Y-87938900D01*
D11*
X183509200Y-81869035D02*
X185433200Y-81869035D01*
D15*
X184568700Y-86033900D02*
X187428700Y-86033900D01*
D11*
X185449200Y-80739035D02*
X183555200Y-80739035D01*
X185449200Y-81869035D02*
X185449200Y-80739035D01*
D15*
X185518700Y-92383900D02*
X185518700Y-92383900D01*
X188058700Y-86648900D02*
X188058700Y-89843900D01*
X188058700Y-89843900D02*
X188058700Y-89843900D01*
X176628700Y-91768900D02*
G75*
G03*
X177243700Y-92383900I614999J-1D01*
G01*
X181708700Y-87935827D02*
G75*
G03*
X184048699Y-86378900I-3J2536931D01*
G01*
X184568699Y-86032760D02*
G75*
G03*
X184048700Y-86378900I-1659J-561170D01*
G01*
X188058830Y-86648900D02*
G75*
G03*
X187443829Y-86033900I-614980J20D01*
G01*
X185518700Y-92383900D02*
G75*
G03*
X188058700Y-89843900I0J2540000D01*
G01*
D16*
X185279200Y-81639035D02*
G75*
G03*
X185279200Y-81639035I-50000J0D01*
G01*
%TO.C,D1*%
X178270000Y-93427200D02*
X177870000Y-93427200D01*
X177870000Y-93427200D02*
X177870000Y-92877200D01*
X177870000Y-93427200D02*
X177870000Y-93977200D01*
X177870000Y-93427200D02*
X177270000Y-93027200D01*
X177270000Y-93027200D02*
X177270000Y-93827200D01*
X177270000Y-93427200D02*
X176770000Y-93427200D01*
X177270000Y-93827200D02*
X177870000Y-93427200D01*
%TD*%
D17*
%TO.C,J2*%
X173598600Y-77020000D03*
X173341400Y-79560000D03*
X173598600Y-82100000D03*
%TD*%
%TO.C,J1*%
X178640000Y-77020000D03*
X181180000Y-77277200D03*
X183720000Y-77020000D03*
%TD*%
M02*
