%TF.GenerationSoftware,KiCad,Pcbnew,(7.0.0-0)*%
%TF.CreationDate,2023-04-16T17:27:38-07:00*%
%TF.ProjectId,Amoeba_executive,416d6f65-6261-45f6-9578-656375746976,rev?*%
%TF.SameCoordinates,Original*%
%TF.FileFunction,Copper,L2,Bot*%
%TF.FilePolarity,Positive*%
%FSLAX46Y46*%
G04 Gerber Fmt 4.6, Leading zero omitted, Abs format (unit mm)*
G04 Created by KiCad (PCBNEW (7.0.0-0)) date 2023-04-16 17:27:38*
%MOMM*%
%LPD*%
G01*
G04 APERTURE LIST*
G04 Aperture macros list*
%AMRoundRect*
0 Rectangle with rounded corners*
0 $1 Rounding radius*
0 $2 $3 $4 $5 $6 $7 $8 $9 X,Y pos of 4 corners*
0 Add a 4 corners polygon primitive as box body*
4,1,4,$2,$3,$4,$5,$6,$7,$8,$9,$2,$3,0*
0 Add four circle primitives for the rounded corners*
1,1,$1+$1,$2,$3*
1,1,$1+$1,$4,$5*
1,1,$1+$1,$6,$7*
1,1,$1+$1,$8,$9*
0 Add four rect primitives between the rounded corners*
20,1,$1+$1,$2,$3,$4,$5,0*
20,1,$1+$1,$4,$5,$6,$7,0*
20,1,$1+$1,$6,$7,$8,$9,0*
20,1,$1+$1,$8,$9,$2,$3,0*%
%AMFreePoly0*
4,1,14,0.900000,-0.425000,0.000000,-0.425000,-0.687500,-0.425000,-0.768820,-0.408824,-0.837760,-0.362760,-0.883824,-0.293820,-0.900000,-0.212500,-0.900000,0.212500,-0.883824,0.293820,-0.837760,0.362760,-0.768820,0.408824,-0.687500,0.425000,0.900000,0.425000,0.900000,-0.425000,0.900000,-0.425000,$1*%
%AMFreePoly1*
4,1,14,0.768820,0.408824,0.837760,0.362760,0.883824,0.293820,0.900000,0.212500,0.900000,-0.212500,0.883824,-0.293820,0.837760,-0.362760,0.768820,-0.408824,0.687500,-0.425000,0.000000,-0.425000,-0.900000,-0.425000,-0.900000,0.425000,0.687500,0.425000,0.768820,0.408824,0.768820,0.408824,$1*%
%AMFreePoly2*
4,1,13,-1.275000,1.000000,-1.255970,1.095671,-1.201777,1.176777,-1.120671,1.230970,-1.025000,1.250000,1.275000,1.250000,1.275000,-1.250000,-1.025000,-1.250000,-1.120671,-1.230970,-1.201777,-1.176777,-1.255970,-1.095671,-1.275000,-1.000000,-1.275000,1.000000,-1.275000,1.000000,$1*%
%AMFreePoly3*
4,1,13,-1.275000,1.250000,1.025000,1.250000,1.120671,1.230970,1.201777,1.176777,1.255970,1.095671,1.275000,1.000000,1.275000,-1.000000,1.255970,-1.095671,1.201777,-1.176777,1.120671,-1.230970,1.025000,-1.250000,-1.275000,-1.250000,-1.275000,1.250000,-1.275000,1.250000,$1*%
G04 Aperture macros list end*
%TA.AperFunction,ComponentPad*%
%ADD10C,1.750000*%
%TD*%
%TA.AperFunction,SMDPad,CuDef*%
%ADD11FreePoly0,0.000000*%
%TD*%
%TA.AperFunction,SMDPad,CuDef*%
%ADD12FreePoly1,180.000000*%
%TD*%
%TA.AperFunction,SMDPad,CuDef*%
%ADD13FreePoly0,180.000000*%
%TD*%
%TA.AperFunction,SMDPad,CuDef*%
%ADD14FreePoly1,0.000000*%
%TD*%
%TA.AperFunction,SMDPad,CuDef*%
%ADD15FreePoly2,180.000000*%
%TD*%
%TA.AperFunction,SMDPad,CuDef*%
%ADD16FreePoly3,180.000000*%
%TD*%
%TA.AperFunction,ComponentPad*%
%ADD17R,1.650000X1.650000*%
%TD*%
%TA.AperFunction,SMDPad,CuDef*%
%ADD18R,1.600000X1.200000*%
%TD*%
%TA.AperFunction,SMDPad,CuDef*%
%ADD19RoundRect,0.225000X0.225000X0.375000X-0.225000X0.375000X-0.225000X-0.375000X0.225000X-0.375000X0*%
%TD*%
%TA.AperFunction,ComponentPad*%
%ADD20C,1.650000*%
%TD*%
%TA.AperFunction,ViaPad*%
%ADD21C,0.800000*%
%TD*%
%TA.AperFunction,Conductor*%
%ADD22C,0.250000*%
%TD*%
%TA.AperFunction,Conductor*%
%ADD23C,0.400000*%
%TD*%
%TA.AperFunction,Conductor*%
%ADD24C,0.500000*%
%TD*%
G04 APERTURE END LIST*
%TO.C,Amoeba-Logo-Small*%
G36*
X189466615Y-84160190D02*
G01*
X189486971Y-84160962D01*
X189507259Y-84163279D01*
X189527478Y-84167141D01*
X189547629Y-84172548D01*
X189567711Y-84179500D01*
X189587724Y-84187996D01*
X189607669Y-84198037D01*
X189627545Y-84209622D01*
X189647352Y-84222753D01*
X189664783Y-84236718D01*
X189681413Y-84253136D01*
X189697132Y-84271325D01*
X189711832Y-84290603D01*
X189725401Y-84310288D01*
X189737732Y-84329699D01*
X189748714Y-84348154D01*
X189758238Y-84364973D01*
X189766194Y-84379473D01*
X189772474Y-84390972D01*
X189789041Y-84420150D01*
X189805694Y-84447980D01*
X189822417Y-84474505D01*
X189839195Y-84499767D01*
X189856012Y-84523811D01*
X189872853Y-84546679D01*
X189889703Y-84568414D01*
X189906546Y-84589060D01*
X189923366Y-84608659D01*
X189940148Y-84627255D01*
X189956877Y-84644890D01*
X189973537Y-84661609D01*
X189990112Y-84677454D01*
X190006588Y-84692468D01*
X190022949Y-84706694D01*
X190039179Y-84720176D01*
X190055262Y-84732956D01*
X190071184Y-84745078D01*
X190086929Y-84756585D01*
X190102481Y-84767520D01*
X190117826Y-84777926D01*
X190132947Y-84787846D01*
X190147828Y-84797324D01*
X190162456Y-84806402D01*
X190176813Y-84815123D01*
X190190886Y-84823532D01*
X190204657Y-84831670D01*
X190218112Y-84839582D01*
X190231236Y-84847309D01*
X190244012Y-84854896D01*
X190256425Y-84862385D01*
X190268461Y-84869820D01*
X190280103Y-84877243D01*
X190291336Y-84884698D01*
X190302144Y-84892228D01*
X190312512Y-84899876D01*
X190322425Y-84907685D01*
X190331867Y-84915699D01*
X190340823Y-84923960D01*
X190349277Y-84932511D01*
X190357213Y-84941396D01*
X190364617Y-84950658D01*
X190371473Y-84960340D01*
X190377765Y-84970485D01*
X190383478Y-84981136D01*
X190388596Y-84992336D01*
X190393104Y-85004129D01*
X190396987Y-85016557D01*
X190400229Y-85029665D01*
X190402814Y-85043494D01*
X190404727Y-85058087D01*
X190405953Y-85073489D01*
X190406476Y-85089743D01*
X190406275Y-85108682D01*
X190405305Y-85126228D01*
X190403606Y-85142455D01*
X190401217Y-85157437D01*
X190398177Y-85171248D01*
X190394525Y-85183963D01*
X190390301Y-85195654D01*
X190385544Y-85206397D01*
X190380293Y-85216266D01*
X190374588Y-85225334D01*
X190368468Y-85233676D01*
X190361972Y-85241365D01*
X190355139Y-85248477D01*
X190348008Y-85255085D01*
X190340620Y-85261264D01*
X190333013Y-85267086D01*
X190325226Y-85272627D01*
X190317299Y-85277961D01*
X190309271Y-85283162D01*
X190301181Y-85288303D01*
X190293068Y-85293459D01*
X190284973Y-85298705D01*
X190276933Y-85304113D01*
X190268989Y-85309759D01*
X190261179Y-85315717D01*
X190253543Y-85322060D01*
X190246121Y-85328862D01*
X190238950Y-85336199D01*
X190232072Y-85344143D01*
X190225524Y-85352770D01*
X190219347Y-85362153D01*
X190213579Y-85372366D01*
X190208260Y-85383483D01*
X190203429Y-85395579D01*
X190199125Y-85408728D01*
X190195388Y-85423003D01*
X190192256Y-85438479D01*
X190189770Y-85455231D01*
X190187968Y-85473331D01*
X190186890Y-85492855D01*
X190186574Y-85513876D01*
X190187061Y-85536468D01*
X190188390Y-85560707D01*
X190190599Y-85586664D01*
X190193728Y-85614416D01*
X190197064Y-85642145D01*
X190199491Y-85666922D01*
X190200709Y-85689275D01*
X190200421Y-85709733D01*
X190198328Y-85728824D01*
X190194130Y-85747078D01*
X190187529Y-85765023D01*
X190178227Y-85783188D01*
X190165924Y-85802102D01*
X190151798Y-85820192D01*
X190136608Y-85836155D01*
X190120354Y-85849989D01*
X190103035Y-85861695D01*
X190084653Y-85871272D01*
X190065206Y-85878722D01*
X190044695Y-85884042D01*
X190023120Y-85887235D01*
X190000481Y-85888299D01*
X189969894Y-85888299D01*
X189947650Y-85887448D01*
X189926200Y-85884895D01*
X189905545Y-85880639D01*
X189885684Y-85874681D01*
X189866618Y-85867020D01*
X189848346Y-85857657D01*
X189830868Y-85846592D01*
X189812678Y-85832843D01*
X189797038Y-85817550D01*
X189783946Y-85800711D01*
X189773403Y-85782328D01*
X189765409Y-85762401D01*
X189759964Y-85740928D01*
X189759908Y-85738497D01*
X189759613Y-85731540D01*
X189758883Y-85720564D01*
X189757526Y-85706075D01*
X189755347Y-85688579D01*
X189752153Y-85668584D01*
X189747750Y-85646595D01*
X189741945Y-85623118D01*
X189734542Y-85598660D01*
X189725349Y-85573727D01*
X189714173Y-85548826D01*
X189700818Y-85524463D01*
X189685091Y-85501143D01*
X189666800Y-85479375D01*
X189645748Y-85459663D01*
X189629067Y-85447096D01*
X189611237Y-85435839D01*
X189592377Y-85425887D01*
X189572609Y-85417234D01*
X189552053Y-85409876D01*
X189530827Y-85403806D01*
X189509053Y-85399019D01*
X189486849Y-85395509D01*
X189464338Y-85393271D01*
X189441637Y-85392300D01*
X189418867Y-85392590D01*
X189396149Y-85394135D01*
X189373603Y-85396930D01*
X189351347Y-85400969D01*
X189329503Y-85406247D01*
X189308190Y-85412758D01*
X189287529Y-85420497D01*
X189267639Y-85429459D01*
X189248640Y-85439637D01*
X189230653Y-85451026D01*
X189213797Y-85463621D01*
X189192453Y-85483301D01*
X189173801Y-85505052D01*
X189157661Y-85528366D01*
X189143850Y-85552736D01*
X189132189Y-85577652D01*
X189122497Y-85602607D01*
X189114592Y-85627092D01*
X189108295Y-85650601D01*
X189103424Y-85672623D01*
X189099798Y-85692651D01*
X189097237Y-85710178D01*
X189095560Y-85724694D01*
X189094586Y-85735692D01*
X189094134Y-85742663D01*
X189094024Y-85745100D01*
X189088964Y-85764912D01*
X189081202Y-85783565D01*
X189070736Y-85801059D01*
X189057567Y-85817395D01*
X189041695Y-85832572D01*
X189023119Y-85846591D01*
X189004312Y-85859335D01*
X188984964Y-85869762D01*
X188965075Y-85877872D01*
X188944646Y-85883664D01*
X188923676Y-85887140D01*
X188902166Y-85888299D01*
X188871579Y-85888299D01*
X188849180Y-85887200D01*
X188827708Y-85883905D01*
X188807163Y-85878412D01*
X188787545Y-85870723D01*
X188768853Y-85860836D01*
X188751089Y-85848753D01*
X188734251Y-85834473D01*
X188718340Y-85817996D01*
X188703356Y-85799322D01*
X188690680Y-85781307D01*
X188679980Y-85764925D01*
X188671470Y-85749205D01*
X188665364Y-85733176D01*
X188661873Y-85715867D01*
X188661211Y-85696308D01*
X188663592Y-85673526D01*
X188669228Y-85646553D01*
X188678332Y-85614416D01*
X188689862Y-85576339D01*
X188700431Y-85539323D01*
X188710065Y-85503347D01*
X188718792Y-85468390D01*
X188726640Y-85434434D01*
X188733637Y-85401458D01*
X188739808Y-85369442D01*
X188745183Y-85338366D01*
X188749789Y-85308212D01*
X188753653Y-85278957D01*
X188756803Y-85250584D01*
X188759266Y-85223071D01*
X188761070Y-85196400D01*
X188762243Y-85170549D01*
X188762811Y-85145500D01*
X188762802Y-85121231D01*
X188762245Y-85097725D01*
X188761166Y-85074959D01*
X188759593Y-85052915D01*
X188757554Y-85031573D01*
X188755075Y-85010913D01*
X188752185Y-84990914D01*
X188748912Y-84971558D01*
X188745281Y-84952824D01*
X188741322Y-84934691D01*
X188737062Y-84917142D01*
X188732528Y-84900154D01*
X188727747Y-84883709D01*
X188722748Y-84867787D01*
X188717557Y-84852367D01*
X188715296Y-84846058D01*
X189200529Y-84846058D01*
X189214259Y-84851546D01*
X189213569Y-84873511D01*
X189210135Y-84872825D01*
X189210135Y-84914694D01*
X189231414Y-84996369D01*
X189297107Y-84996369D01*
X189297107Y-85005292D01*
X189355445Y-85005292D01*
X189355445Y-85084223D01*
X189369173Y-85097948D01*
X189384270Y-85084223D01*
X189383579Y-85055397D01*
X189404172Y-85083536D01*
X189477611Y-85083536D01*
X189492713Y-85056083D01*
X189492023Y-85005978D01*
X189529085Y-85005978D01*
X189528394Y-85084909D01*
X189543496Y-85098634D01*
X189559279Y-85084909D01*
X189559279Y-85005292D01*
X189583302Y-85005292D01*
X189583302Y-84994997D01*
X189607326Y-84996369D01*
X189631346Y-84914004D01*
X189630655Y-84874883D01*
X189627224Y-84874197D01*
X189627915Y-84851546D01*
X189633408Y-84851546D01*
X189640268Y-84846743D01*
X189580558Y-84712219D01*
X189577296Y-84708957D01*
X189573007Y-84707414D01*
X189534573Y-84707414D01*
X189527708Y-84692313D01*
X189494782Y-84692313D01*
X189494782Y-84602401D01*
X189449673Y-84594850D01*
X189351524Y-84594850D01*
X189345345Y-84603087D01*
X189346036Y-84692999D01*
X189311717Y-84692999D01*
X189306912Y-84706727D01*
X189267106Y-84707413D01*
X189261614Y-84710672D01*
X189257495Y-84716336D01*
X189200529Y-84846058D01*
X188715296Y-84846058D01*
X188712203Y-84837430D01*
X188706713Y-84822956D01*
X188701114Y-84808926D01*
X188695434Y-84795318D01*
X188689700Y-84782113D01*
X188683940Y-84769292D01*
X188678181Y-84756834D01*
X188672452Y-84744720D01*
X188666778Y-84732930D01*
X188661189Y-84721443D01*
X188655712Y-84710240D01*
X188650373Y-84699301D01*
X188645201Y-84688607D01*
X188640224Y-84678136D01*
X188635467Y-84667869D01*
X188630960Y-84657787D01*
X188626730Y-84647870D01*
X188622804Y-84638097D01*
X188619209Y-84628449D01*
X188615974Y-84618905D01*
X188613125Y-84609447D01*
X188610691Y-84600053D01*
X188608699Y-84590705D01*
X188607176Y-84581382D01*
X188606150Y-84572064D01*
X188605648Y-84562732D01*
X188605698Y-84553365D01*
X188606328Y-84543943D01*
X188607564Y-84534448D01*
X188609436Y-84524858D01*
X188611969Y-84515154D01*
X188615191Y-84505317D01*
X188622516Y-84487842D01*
X188631009Y-84472572D01*
X188640605Y-84459378D01*
X188651240Y-84448130D01*
X188662849Y-84438699D01*
X188675369Y-84430955D01*
X188688734Y-84424767D01*
X188702879Y-84420006D01*
X188717742Y-84416544D01*
X188733256Y-84414248D01*
X188749358Y-84412991D01*
X188765984Y-84412643D01*
X188783068Y-84413073D01*
X188800546Y-84414151D01*
X188818355Y-84415750D01*
X188836428Y-84417737D01*
X188854703Y-84419984D01*
X188873114Y-84422362D01*
X188891597Y-84424739D01*
X188910088Y-84426987D01*
X188928522Y-84428976D01*
X188946834Y-84430576D01*
X188964961Y-84431658D01*
X188982837Y-84432091D01*
X189000399Y-84431747D01*
X189017581Y-84430494D01*
X189034320Y-84428204D01*
X189050551Y-84424747D01*
X189066209Y-84419993D01*
X189081230Y-84413812D01*
X189095550Y-84406075D01*
X189109104Y-84396652D01*
X189121827Y-84385413D01*
X189130798Y-84374628D01*
X189140940Y-84359615D01*
X189152278Y-84341406D01*
X189164841Y-84321031D01*
X189178655Y-84299522D01*
X189193746Y-84277909D01*
X189210141Y-84257222D01*
X189227868Y-84238493D01*
X189246953Y-84222753D01*
X189267035Y-84209622D01*
X189287116Y-84198037D01*
X189307198Y-84187996D01*
X189327279Y-84179500D01*
X189347361Y-84172548D01*
X189367442Y-84167141D01*
X189387523Y-84163279D01*
X189407605Y-84160962D01*
X189427687Y-84160190D01*
X189466615Y-84160190D01*
G37*
%TD*%
D10*
%TO.P,J2,1,Pin_1*%
%TO.N,GND*%
X173598600Y-77020000D03*
%TO.P,J2,2,Pin_2*%
%TO.N,VDD*%
X173341400Y-79560000D03*
%TO.P,J2,3,Pin_3*%
%TO.N,Net-(J2-Pin_3)*%
X173598600Y-82100000D03*
%TO.P,J2,4,Pin_4*%
%TO.N,/Row*%
X173341400Y-84640000D03*
%TO.P,J2,5,Pin_5*%
X173598600Y-87180000D03*
%TD*%
%TO.P,J1,1,Pin_1*%
%TO.N,GND*%
X178640000Y-77020000D03*
%TO.P,J1,2,Pin_2*%
%TO.N,VDD*%
X181180000Y-77277200D03*
%TO.P,J1,3,Pin_3*%
%TO.N,Net-(J1-Pin_3)*%
X183720000Y-77020000D03*
%TO.P,J1,4,Pin_4*%
%TO.N,/Column*%
X186260000Y-77277200D03*
%TO.P,J1,5,Pin_5*%
X188800000Y-77020000D03*
%TD*%
D11*
%TO.P,SW1,1,VDD*%
%TO.N,VDD*%
X179009200Y-79554035D03*
D12*
%TO.P,SW1,2,DOUT*%
%TO.N,Net-(J2-Pin_3)*%
X179009200Y-81304035D03*
D13*
%TO.P,SW1,3,GND*%
%TO.N,GND*%
X184409200Y-81299035D03*
D14*
%TO.P,SW1,4,DIN*%
%TO.N,Net-(J1-Pin_3)*%
X184409200Y-79554035D03*
D15*
%TO.P,SW1,5*%
%TO.N,Net-(D1-K)*%
X188793699Y-87938899D03*
D16*
%TO.P,SW1,6*%
%TO.N,/Column*%
X175866699Y-90478899D03*
%TD*%
D17*
%TO.P,D1,1,K*%
%TO.N,Net-(D1-K)*%
X181519999Y-93427199D03*
D18*
X180219999Y-93427199D03*
D19*
X179170000Y-93427200D03*
%TO.P,D1,2,A*%
%TO.N,/Row*%
X175870000Y-93427200D03*
D18*
X174819999Y-93427199D03*
D20*
X173520000Y-93427200D03*
%TD*%
D21*
%TO.N,Net-(J2-Pin_3)*%
X179009200Y-81304035D03*
%TO.N,VDD*%
X179009202Y-79554035D03*
%TD*%
D22*
%TO.N,/Column*%
X184590000Y-85867731D02*
X182689931Y-87767800D01*
X182689931Y-87767800D02*
X178577800Y-87767800D01*
X175866700Y-90478900D02*
X175340000Y-89952200D01*
X178577800Y-87767800D02*
X175866700Y-90478900D01*
X188781400Y-77268900D02*
X188780300Y-77270000D01*
X186241400Y-77270000D02*
X186241400Y-83358600D01*
X188542800Y-77277200D02*
X188800000Y-77020000D01*
X184590000Y-85010000D02*
X184590000Y-85867731D01*
X186260000Y-77277200D02*
X188542800Y-77277200D01*
X186241400Y-83358600D02*
X184590000Y-85010000D01*
D23*
%TO.N,GND*%
X178330000Y-82950000D02*
X183110000Y-82950000D01*
D22*
X184409200Y-81650800D02*
X184409200Y-81299035D01*
D23*
X176920000Y-81540000D02*
X178330000Y-82950000D01*
D22*
X172790100Y-77540000D02*
X173580100Y-77540000D01*
D23*
X178621400Y-77250000D02*
X176920000Y-78951400D01*
X176920000Y-78951400D02*
X176920000Y-81540000D01*
X183110000Y-82950000D02*
X184409200Y-81650800D01*
D22*
%TO.N,Net-(J1-Pin_3)*%
X184570000Y-79393235D02*
X184409200Y-79554035D01*
X184409200Y-79554035D02*
X184420000Y-79543235D01*
X183701400Y-77501400D02*
X183701400Y-77250000D01*
X184420000Y-79543235D02*
X184420000Y-78220000D01*
X184420000Y-78220000D02*
X183701400Y-77501400D01*
D24*
%TO.N,VDD*%
X179009200Y-79554035D02*
X179009202Y-79554035D01*
D22*
%TO.N,Net-(D1-K)*%
X181520000Y-93427200D02*
X183305400Y-93427200D01*
X183305400Y-93427200D02*
X188793700Y-87938900D01*
%TD*%
%TA.AperFunction,Conductor*%
%TO.N,GND*%
G36*
X177843639Y-76690121D02*
G01*
X178636215Y-77017438D01*
X178640021Y-77019978D01*
X178642562Y-77023785D01*
X178970700Y-77818351D01*
X178970849Y-77826904D01*
X178965138Y-77833272D01*
X177678260Y-78479739D01*
X177671145Y-78480835D01*
X177664735Y-78477557D01*
X177392772Y-78205594D01*
X177389710Y-78200219D01*
X177389815Y-78194037D01*
X177827946Y-76697647D01*
X177831401Y-76692192D01*
X177837224Y-76689400D01*
X177843639Y-76690121D01*
G37*
%TD.AperFunction*%
%TD*%
%TA.AperFunction,Conductor*%
%TO.N,Net-(D1-K)*%
G36*
X182353214Y-92609169D02*
G01*
X182804689Y-92992239D01*
X183165870Y-93298696D01*
X183168917Y-93302701D01*
X183170000Y-93307617D01*
X183170000Y-93546783D01*
X183168917Y-93551699D01*
X183165870Y-93555704D01*
X182353215Y-94245229D01*
X182345170Y-94247998D01*
X182337377Y-94244586D01*
X181527288Y-93435478D01*
X181524255Y-93430230D01*
X181524255Y-93424170D01*
X181527288Y-93418922D01*
X181643650Y-93302701D01*
X182337378Y-92609812D01*
X182345170Y-92606401D01*
X182353214Y-92609169D01*
G37*
%TD.AperFunction*%
%TD*%
%TA.AperFunction,Conductor*%
%TO.N,/Column*%
G36*
X188188200Y-76408189D02*
G01*
X188795455Y-77014464D01*
X188798664Y-77020463D01*
X188797994Y-77027233D01*
X188469250Y-77818530D01*
X188463398Y-77824641D01*
X188454956Y-77825209D01*
X188433580Y-77818530D01*
X188087056Y-77710254D01*
X187109370Y-77404765D01*
X187103434Y-77400529D01*
X187101160Y-77393598D01*
X187101160Y-77158316D01*
X187102491Y-77152896D01*
X187106181Y-77148709D01*
X188173256Y-76406861D01*
X188180969Y-76404815D01*
X188188200Y-76408189D01*
G37*
%TD.AperFunction*%
%TD*%
%TA.AperFunction,Conductor*%
%TO.N,/Column*%
G36*
X186264485Y-77278063D02*
G01*
X187056832Y-77607244D01*
X187061791Y-77611148D01*
X187064001Y-77617060D01*
X187062819Y-77623259D01*
X186369628Y-79017010D01*
X186365314Y-79021746D01*
X186359152Y-79023500D01*
X186123822Y-79023500D01*
X186117555Y-79021680D01*
X186113237Y-79016785D01*
X185456827Y-77623135D01*
X185455769Y-77616995D01*
X185458013Y-77611182D01*
X185462920Y-77607346D01*
X186255516Y-77278062D01*
X186259999Y-77277169D01*
X186264485Y-77278063D01*
G37*
%TD.AperFunction*%
%TD*%
%TA.AperFunction,Conductor*%
%TO.N,/Column*%
G36*
X177740829Y-88438816D02*
G01*
X177906823Y-88604810D01*
X177909994Y-88610650D01*
X177909473Y-88617275D01*
X177144928Y-90609701D01*
X177140102Y-90615495D01*
X177132742Y-90617141D01*
X175875138Y-90480599D01*
X175868219Y-90477330D01*
X175864800Y-90470484D01*
X175703673Y-89237975D01*
X175705202Y-89230506D01*
X175711009Y-89225564D01*
X177728293Y-88436192D01*
X177734952Y-88435637D01*
X177740829Y-88438816D01*
G37*
%TD.AperFunction*%
%TD*%
%TA.AperFunction,Conductor*%
%TO.N,Net-(J1-Pin_3)*%
G36*
X184582923Y-77019986D02*
G01*
X184588878Y-77021622D01*
X184593170Y-77026062D01*
X184594604Y-77032069D01*
X184545370Y-78536077D01*
X184541813Y-78544101D01*
X184533676Y-78547394D01*
X184298947Y-78547394D01*
X184291860Y-78545004D01*
X183111930Y-77646823D01*
X183108034Y-77641546D01*
X183107590Y-77635002D01*
X183110736Y-77629248D01*
X183716569Y-77022435D01*
X183720369Y-77019895D01*
X183724855Y-77019005D01*
X184582923Y-77019986D01*
G37*
%TD.AperFunction*%
%TD*%
%TA.AperFunction,Conductor*%
%TO.N,Net-(D1-K)*%
G36*
X188785261Y-87937200D02*
G01*
X188792180Y-87940469D01*
X188795599Y-87947315D01*
X188956727Y-89179822D01*
X188955198Y-89187293D01*
X188949389Y-89192235D01*
X186932106Y-89981606D01*
X186925447Y-89982162D01*
X186919570Y-89978983D01*
X186753576Y-89812989D01*
X186750405Y-89807149D01*
X186750925Y-89800527D01*
X187515473Y-87808096D01*
X187520297Y-87802305D01*
X187527655Y-87800659D01*
X188785261Y-87937200D01*
G37*
%TD.AperFunction*%
%TD*%
%TA.AperFunction,Conductor*%
%TO.N,GND*%
G36*
X173589195Y-77022420D02*
G01*
X173593372Y-77028680D01*
X173592874Y-77036189D01*
X173267972Y-77818236D01*
X173261964Y-77824419D01*
X173253352Y-77824807D01*
X172797985Y-77667720D01*
X172792273Y-77663451D01*
X172790100Y-77656660D01*
X172790100Y-77415493D01*
X172790100Y-77415000D01*
X172756042Y-77212703D01*
X172725897Y-77033642D01*
X172726716Y-77027010D01*
X172731031Y-77021908D01*
X172737435Y-77020000D01*
X173582069Y-77020000D01*
X173589195Y-77022420D01*
G37*
%TD.AperFunction*%
%TD*%
%TA.AperFunction,Conductor*%
%TO.N,/Column*%
G36*
X186605990Y-76474185D02*
G01*
X187958249Y-77127209D01*
X188003388Y-77149007D01*
X188008210Y-77153324D01*
X188010000Y-77159543D01*
X188010000Y-77394857D01*
X188008210Y-77401076D01*
X188003388Y-77405393D01*
X186605992Y-78080213D01*
X186599824Y-78081327D01*
X186593966Y-78079098D01*
X186590100Y-78074168D01*
X186260863Y-77281685D01*
X186259969Y-77277199D01*
X186260862Y-77272716D01*
X186590101Y-76480229D01*
X186593966Y-76475301D01*
X186599824Y-76473072D01*
X186605990Y-76474185D01*
G37*
%TD.AperFunction*%
%TD*%
M02*
