%TF.GenerationSoftware,KiCad,Pcbnew,(7.0.0-0)*%
%TF.CreationDate,2023-04-16T17:27:38-07:00*%
%TF.ProjectId,Amoeba_executive,416d6f65-6261-45f6-9578-656375746976,rev?*%
%TF.SameCoordinates,Original*%
%TF.FileFunction,Profile,NP*%
%FSLAX46Y46*%
G04 Gerber Fmt 4.6, Leading zero omitted, Abs format (unit mm)*
G04 Created by KiCad (PCBNEW (7.0.0-0)) date 2023-04-16 17:27:38*
%MOMM*%
%LPD*%
G01*
G04 APERTURE LIST*
%TA.AperFunction,Profile*%
%ADD10C,0.100000*%
%TD*%
G04 APERTURE END LIST*
D10*
X173183700Y-75873900D02*
G75*
G03*
X172183700Y-76873900I0J-1000000D01*
G01*
X175184000Y-76873900D02*
G75*
G03*
X174184000Y-75873900I-1000000J0D01*
G01*
X178184000Y-75873900D02*
X190233700Y-75873900D01*
X172183699Y-88924001D02*
G75*
G03*
X173183700Y-89924001I1000001J1D01*
G01*
X178184000Y-75873900D02*
G75*
G03*
X177184000Y-76873900I0J-1000000D01*
G01*
X189789543Y-94923757D02*
G75*
G03*
X191233700Y-93499900I20157J1423857D01*
G01*
X191233700Y-81874000D02*
X191233700Y-93499900D01*
X191233700Y-81874000D02*
G75*
G03*
X190233700Y-80874000I-1000000J0D01*
G01*
X190233700Y-78874000D02*
G75*
G03*
X189233700Y-79874000I0J-1000000D01*
G01*
X172183700Y-76873900D02*
X172183700Y-88924001D01*
X173183700Y-75873900D02*
X174184000Y-75873900D01*
X174183699Y-90924001D02*
G75*
G03*
X173183700Y-89924001I-999999J1D01*
G01*
X172183700Y-93923900D02*
G75*
G03*
X173183700Y-94923900I1000000J0D01*
G01*
X173183700Y-91924000D02*
G75*
G03*
X174183700Y-90924001I0J1000000D01*
G01*
X175184000Y-76873900D02*
G75*
G03*
X176184000Y-77873900I1000000J0D01*
G01*
X172183700Y-93923900D02*
X172183700Y-92924001D01*
X189789543Y-94923757D02*
X173183700Y-94923900D01*
X191233700Y-76873900D02*
G75*
G03*
X190233700Y-75873900I-1000000J0D01*
G01*
X176184000Y-77873900D02*
G75*
G03*
X177184000Y-76873900I0J1000000D01*
G01*
X191233700Y-76873900D02*
X191233700Y-77874000D01*
X189233700Y-79874000D02*
G75*
G03*
X190233700Y-80874000I1000000J0D01*
G01*
X190233700Y-78874000D02*
G75*
G03*
X191233700Y-77874000I0J1000000D01*
G01*
X173183700Y-91924000D02*
G75*
G03*
X172183700Y-92924001I0J-1000000D01*
G01*
%TO.C,SW1*%
X180009200Y-78969035D02*
X180009200Y-81969035D01*
X183409200Y-78969035D02*
X180009200Y-78969035D01*
X183409200Y-81969035D02*
X180009200Y-81969035D01*
X183409200Y-81969035D02*
X183409200Y-78969035D01*
%TD*%
M02*
