%TF.GenerationSoftware,KiCad,Pcbnew,(7.0.0-0)*%
%TF.CreationDate,2023-04-16T17:27:38-07:00*%
%TF.ProjectId,Amoeba_executive,416d6f65-6261-45f6-9578-656375746976,rev?*%
%TF.SameCoordinates,Original*%
%TF.FileFunction,Soldermask,Bot*%
%TF.FilePolarity,Negative*%
%FSLAX46Y46*%
G04 Gerber Fmt 4.6, Leading zero omitted, Abs format (unit mm)*
G04 Created by KiCad (PCBNEW (7.0.0-0)) date 2023-04-16 17:27:38*
%MOMM*%
%LPD*%
G01*
G04 APERTURE LIST*
G04 Aperture macros list*
%AMRoundRect*
0 Rectangle with rounded corners*
0 $1 Rounding radius*
0 $2 $3 $4 $5 $6 $7 $8 $9 X,Y pos of 4 corners*
0 Add a 4 corners polygon primitive as box body*
4,1,4,$2,$3,$4,$5,$6,$7,$8,$9,$2,$3,0*
0 Add four circle primitives for the rounded corners*
1,1,$1+$1,$2,$3*
1,1,$1+$1,$4,$5*
1,1,$1+$1,$6,$7*
1,1,$1+$1,$8,$9*
0 Add four rect primitives between the rounded corners*
20,1,$1+$1,$2,$3,$4,$5,0*
20,1,$1+$1,$4,$5,$6,$7,0*
20,1,$1+$1,$6,$7,$8,$9,0*
20,1,$1+$1,$8,$9,$2,$3,0*%
%AMFreePoly0*
4,1,13,-0.909987,0.212526,-0.893809,0.293856,-0.847740,0.362805,-0.778791,0.408874,-0.697461,0.425052,0.909987,0.425052,0.909987,-0.425052,-0.697461,-0.425052,-0.778791,-0.408874,-0.847740,-0.362805,-0.893809,-0.293856,-0.909987,-0.212526,-0.909987,0.212526,-0.909987,0.212526,$1*%
%AMFreePoly1*
4,1,13,-0.909987,0.210051,-0.893998,0.290434,-0.848464,0.358580,-0.780318,0.404114,-0.699935,0.420103,0.909987,0.420103,0.909987,-0.420103,-0.699935,-0.420103,-0.780318,-0.404114,-0.848464,-0.358580,-0.893998,-0.290434,-0.909987,-0.210051,-0.909987,0.210051,-0.909987,0.210051,$1*%
%AMFreePoly2*
4,1,18,-0.744993,0.000000,-0.324890,0.420103,0.534941,0.420103,0.615324,0.404114,0.683470,0.358580,0.729004,0.290434,0.744993,0.210051,0.744993,-0.210051,0.729004,-0.290434,0.683470,-0.358580,0.615324,-0.404114,0.534941,-0.420103,-0.534941,-0.420103,-0.615324,-0.404114,-0.683470,-0.358580,-0.729004,-0.290434,-0.744993,-0.210051,-0.744993,0.000000,-0.744993,0.000000,$1*%
%AMFreePoly3*
4,1,13,-1.275000,1.000000,-1.255970,1.095671,-1.201777,1.176777,-1.120671,1.230970,-1.025000,1.250000,1.275000,1.250000,1.275000,-1.250000,-1.025000,-1.250000,-1.120671,-1.230970,-1.201777,-1.176777,-1.255970,-1.095671,-1.275000,-1.000000,-1.275000,1.000000,-1.275000,1.000000,$1*%
%AMFreePoly4*
4,1,13,-1.275000,1.250000,1.025000,1.250000,1.120671,1.230970,1.201777,1.176777,1.255970,1.095671,1.275000,1.000000,1.275000,-1.000000,1.255970,-1.095671,1.201777,-1.176777,1.120671,-1.230970,1.025000,-1.250000,-1.275000,-1.250000,-1.275000,1.250000,-1.275000,1.250000,$1*%
G04 Aperture macros list end*
%ADD10C,2.100000*%
%ADD11C,1.750000*%
%ADD12FreePoly0,0.000000*%
%ADD13FreePoly1,0.000000*%
%ADD14C,3.000000*%
%ADD15C,3.987800*%
%ADD16C,1.000000*%
%ADD17R,1.379987X0.840206*%
%ADD18FreePoly1,180.000000*%
%ADD19FreePoly2,180.000000*%
%ADD20FreePoly3,180.000000*%
%ADD21FreePoly4,180.000000*%
%ADD22RoundRect,0.225000X0.225000X0.375000X-0.225000X0.375000X-0.225000X-0.375000X0.225000X-0.375000X0*%
G04 APERTURE END LIST*
%TO.C,Amoeba-Logo-Small*%
G36*
X189556236Y-83739198D02*
G01*
X189578012Y-83740795D01*
X189599741Y-83743455D01*
X189621423Y-83747179D01*
X189643058Y-83751967D01*
X189664645Y-83757819D01*
X189686185Y-83764735D01*
X189707678Y-83772715D01*
X189729123Y-83781759D01*
X189750521Y-83791867D01*
X189771872Y-83803039D01*
X189793175Y-83815274D01*
X189814431Y-83828574D01*
X189835640Y-83842938D01*
X189853945Y-83856946D01*
X189871754Y-83872716D01*
X189889024Y-83889972D01*
X189905710Y-83908437D01*
X189921767Y-83927832D01*
X189937151Y-83947881D01*
X189951818Y-83968306D01*
X189965722Y-83988830D01*
X189978820Y-84009175D01*
X189991067Y-84029065D01*
X190002418Y-84048222D01*
X190012828Y-84066368D01*
X190022254Y-84083227D01*
X190030651Y-84098521D01*
X190037973Y-84111972D01*
X190044177Y-84123304D01*
X190061666Y-84154551D01*
X190078969Y-84184737D01*
X190096087Y-84213883D01*
X190113019Y-84242011D01*
X190129764Y-84269143D01*
X190146322Y-84295302D01*
X190162692Y-84320508D01*
X190178874Y-84344786D01*
X190194866Y-84368156D01*
X190210669Y-84390640D01*
X190226281Y-84412261D01*
X190241702Y-84433040D01*
X190256932Y-84453000D01*
X190271970Y-84472163D01*
X190286815Y-84490550D01*
X190301466Y-84508184D01*
X190315923Y-84525087D01*
X190330186Y-84541281D01*
X190344253Y-84556788D01*
X190358125Y-84571630D01*
X190371800Y-84585829D01*
X190385278Y-84599407D01*
X190398558Y-84612386D01*
X190411640Y-84624788D01*
X190424522Y-84636636D01*
X190437206Y-84647951D01*
X190449689Y-84658755D01*
X190461971Y-84669070D01*
X190474052Y-84678919D01*
X190485931Y-84688324D01*
X190497608Y-84697306D01*
X190509081Y-84705887D01*
X190520350Y-84714090D01*
X190531415Y-84721937D01*
X190542275Y-84729449D01*
X190552929Y-84736650D01*
X190563377Y-84743560D01*
X190573618Y-84750202D01*
X190583651Y-84756598D01*
X190593476Y-84762769D01*
X190603092Y-84768739D01*
X190612500Y-84774529D01*
X190621697Y-84780161D01*
X190630683Y-84785657D01*
X190639458Y-84791040D01*
X190648022Y-84796330D01*
X190656373Y-84801551D01*
X190664511Y-84806724D01*
X190672435Y-84811872D01*
X190680145Y-84817016D01*
X190687640Y-84822179D01*
X190694920Y-84827382D01*
X190701983Y-84832648D01*
X190708830Y-84837998D01*
X190715459Y-84843455D01*
X190721871Y-84849041D01*
X190728064Y-84854778D01*
X190734038Y-84860687D01*
X190739791Y-84866792D01*
X190745325Y-84873113D01*
X190750637Y-84879673D01*
X190755728Y-84886495D01*
X190760597Y-84893599D01*
X190765243Y-84901009D01*
X190769665Y-84908746D01*
X190773863Y-84916831D01*
X190777837Y-84925289D01*
X190781585Y-84934139D01*
X190785107Y-84943405D01*
X190788403Y-84953109D01*
X190791471Y-84963272D01*
X190794312Y-84973916D01*
X190796924Y-84985064D01*
X190799308Y-84996738D01*
X190801461Y-85008959D01*
X190803385Y-85021750D01*
X190805078Y-85035133D01*
X190806539Y-85049129D01*
X190807768Y-85063762D01*
X190808765Y-85079052D01*
X190809528Y-85095023D01*
X190810057Y-85111695D01*
X190810352Y-85129091D01*
X190810058Y-85142564D01*
X190809221Y-85155187D01*
X190807858Y-85166994D01*
X190805987Y-85178016D01*
X190803624Y-85188283D01*
X190800787Y-85197827D01*
X190797493Y-85206679D01*
X190793759Y-85214871D01*
X190789604Y-85222433D01*
X190785043Y-85229397D01*
X190780095Y-85235795D01*
X190774777Y-85241657D01*
X190769106Y-85247016D01*
X190763099Y-85251901D01*
X190756774Y-85256344D01*
X190750148Y-85260378D01*
X190743238Y-85264032D01*
X190736061Y-85267338D01*
X190728636Y-85270328D01*
X190720979Y-85273033D01*
X190713107Y-85275484D01*
X190705039Y-85277711D01*
X190696790Y-85279748D01*
X190688379Y-85281624D01*
X190679822Y-85283372D01*
X190671138Y-85285022D01*
X190662343Y-85286605D01*
X190653455Y-85288153D01*
X190644491Y-85289698D01*
X190635468Y-85291270D01*
X190626404Y-85292901D01*
X190617315Y-85294622D01*
X190608220Y-85296464D01*
X190599136Y-85298458D01*
X190590079Y-85300637D01*
X190581067Y-85303030D01*
X190572118Y-85305670D01*
X190563249Y-85308588D01*
X190554477Y-85311814D01*
X190545819Y-85315381D01*
X190537293Y-85319319D01*
X190528916Y-85323660D01*
X190520705Y-85328435D01*
X190512678Y-85333675D01*
X190504852Y-85339412D01*
X190497244Y-85345677D01*
X190489872Y-85352500D01*
X190482752Y-85359914D01*
X190475903Y-85367950D01*
X190469341Y-85376638D01*
X190463084Y-85386011D01*
X190457149Y-85396099D01*
X190451554Y-85406934D01*
X190446315Y-85418547D01*
X190441450Y-85430969D01*
X190436977Y-85444232D01*
X190432912Y-85458367D01*
X190429274Y-85473404D01*
X190426078Y-85489376D01*
X190423343Y-85506314D01*
X190421086Y-85524248D01*
X190419325Y-85543211D01*
X190418075Y-85563233D01*
X190417356Y-85584346D01*
X190417184Y-85606581D01*
X190417576Y-85629969D01*
X190418550Y-85654542D01*
X190420122Y-85680330D01*
X190422312Y-85707366D01*
X190425135Y-85735680D01*
X190428609Y-85765303D01*
X190432099Y-85793672D01*
X190435115Y-85820143D01*
X190437549Y-85844905D01*
X190439295Y-85868150D01*
X190440244Y-85890068D01*
X190440290Y-85910848D01*
X190439323Y-85930682D01*
X190437238Y-85949760D01*
X190433925Y-85968271D01*
X190429279Y-85986407D01*
X190423191Y-86004357D01*
X190415553Y-86022313D01*
X190406259Y-86040464D01*
X190395200Y-86059000D01*
X190382269Y-86078112D01*
X190368356Y-86096629D01*
X190353804Y-86113868D01*
X190338614Y-86129831D01*
X190322785Y-86144516D01*
X190306318Y-86157924D01*
X190289213Y-86170056D01*
X190271468Y-86180911D01*
X190253086Y-86190488D01*
X190234065Y-86198789D01*
X190214405Y-86205812D01*
X190194107Y-86211559D01*
X190173170Y-86216028D01*
X190151595Y-86219221D01*
X190129382Y-86221137D01*
X190106530Y-86221775D01*
X190055552Y-86221775D01*
X190031806Y-86221201D01*
X190008597Y-86219477D01*
X189985924Y-86216605D01*
X189963787Y-86212584D01*
X189942186Y-86207413D01*
X189921122Y-86201094D01*
X189900594Y-86193626D01*
X189880601Y-86185009D01*
X189861145Y-86175243D01*
X189842226Y-86164327D01*
X189823842Y-86152263D01*
X189805143Y-86138824D01*
X189787973Y-86124457D01*
X189772332Y-86109164D01*
X189758221Y-86092943D01*
X189745639Y-86075796D01*
X189734586Y-86057721D01*
X189725062Y-86038720D01*
X189717068Y-86018792D01*
X189710603Y-85997938D01*
X189705668Y-85976157D01*
X189687179Y-85964514D01*
X189668488Y-85953735D01*
X189649606Y-85943824D01*
X189630545Y-85934782D01*
X189611317Y-85926611D01*
X189591934Y-85919313D01*
X189572408Y-85912891D01*
X189552750Y-85907345D01*
X189532972Y-85902679D01*
X189513087Y-85898894D01*
X189493105Y-85895993D01*
X189473040Y-85893976D01*
X189452901Y-85892847D01*
X189432703Y-85892608D01*
X189412455Y-85893259D01*
X189392171Y-85894804D01*
X189371861Y-85897245D01*
X189351539Y-85900583D01*
X189331215Y-85904820D01*
X189310901Y-85909959D01*
X189290610Y-85916001D01*
X189270352Y-85922948D01*
X189250141Y-85930804D01*
X189229987Y-85939568D01*
X189209903Y-85949244D01*
X189189900Y-85959834D01*
X189169991Y-85971339D01*
X189150187Y-85983762D01*
X189130499Y-85997105D01*
X189110940Y-86011369D01*
X189091522Y-86026557D01*
X189072256Y-86042670D01*
X189067737Y-86062713D01*
X189061596Y-86082061D01*
X189053834Y-86100714D01*
X189044449Y-86118672D01*
X189033443Y-86135935D01*
X189020815Y-86152503D01*
X189006565Y-86168376D01*
X188990692Y-86183553D01*
X188973198Y-86198035D01*
X188954082Y-86211822D01*
X188935383Y-86225029D01*
X188916359Y-86236847D01*
X188897011Y-86247273D01*
X188877339Y-86256310D01*
X188857342Y-86263956D01*
X188837021Y-86270212D01*
X188816376Y-86275078D01*
X188795406Y-86278554D01*
X188774112Y-86280639D01*
X188752493Y-86281334D01*
X188701515Y-86281334D01*
X188678931Y-86280675D01*
X188656903Y-86278698D01*
X188635431Y-86275402D01*
X188614515Y-86270789D01*
X188594155Y-86264857D01*
X188574352Y-86257607D01*
X188555104Y-86249039D01*
X188536413Y-86239153D01*
X188518277Y-86227948D01*
X188500698Y-86215425D01*
X188483675Y-86201585D01*
X188467208Y-86186425D01*
X188451297Y-86169948D01*
X188435942Y-86152153D01*
X188421143Y-86133039D01*
X188408092Y-86114607D01*
X188396175Y-86097388D01*
X188385469Y-86081032D01*
X188376053Y-86065189D01*
X188368001Y-86049511D01*
X188361391Y-86033648D01*
X188356299Y-86017249D01*
X188352803Y-85999966D01*
X188350978Y-85981450D01*
X188350902Y-85961349D01*
X188352652Y-85939316D01*
X188356303Y-85915000D01*
X188361933Y-85888053D01*
X188369619Y-85858123D01*
X188379436Y-85824863D01*
X188390967Y-85787280D01*
X188401905Y-85750525D01*
X188412262Y-85714586D01*
X188422046Y-85679453D01*
X188431268Y-85645114D01*
X188439938Y-85611559D01*
X188448066Y-85578778D01*
X188455662Y-85546759D01*
X188462735Y-85515491D01*
X188469296Y-85484963D01*
X188475354Y-85455166D01*
X188480920Y-85426087D01*
X188486003Y-85397716D01*
X188490614Y-85370043D01*
X188494763Y-85343055D01*
X188498459Y-85316744D01*
X188501712Y-85291097D01*
X188504532Y-85266103D01*
X188506930Y-85241753D01*
X188508915Y-85218035D01*
X188510497Y-85194938D01*
X188511686Y-85172452D01*
X188512493Y-85150565D01*
X188512926Y-85129267D01*
X188512997Y-85108547D01*
X188512714Y-85088394D01*
X188512089Y-85068798D01*
X188511130Y-85049747D01*
X188509848Y-85031230D01*
X188508253Y-85013237D01*
X188506355Y-84995757D01*
X188504164Y-84978780D01*
X188501689Y-84962293D01*
X188498941Y-84946287D01*
X188495929Y-84930750D01*
X188492664Y-84915672D01*
X188489156Y-84901042D01*
X188485414Y-84886849D01*
X188481449Y-84873082D01*
X188477270Y-84859731D01*
X188472887Y-84846784D01*
X188468311Y-84834230D01*
X188463551Y-84822060D01*
X188458617Y-84810261D01*
X188453519Y-84798824D01*
X188448268Y-84787737D01*
X188442873Y-84776989D01*
X188437343Y-84766570D01*
X188431690Y-84756469D01*
X188425923Y-84746675D01*
X188420052Y-84737176D01*
X188414087Y-84727964D01*
X188408037Y-84719025D01*
X188401914Y-84710350D01*
X188395726Y-84701928D01*
X188389484Y-84693748D01*
X188383197Y-84685799D01*
X188376877Y-84678070D01*
X188370532Y-84670550D01*
X188364172Y-84663229D01*
X188357808Y-84656096D01*
X188351450Y-84649140D01*
X188345107Y-84642349D01*
X188338790Y-84635714D01*
X188332508Y-84629223D01*
X188326271Y-84622866D01*
X188320089Y-84616631D01*
X188313973Y-84610508D01*
X188307932Y-84604487D01*
X188301976Y-84598555D01*
X188296116Y-84592703D01*
X188290360Y-84586919D01*
X188284720Y-84581192D01*
X188279204Y-84575513D01*
X188273824Y-84569869D01*
X188268588Y-84564251D01*
X188263508Y-84558647D01*
X188258592Y-84553046D01*
X188253851Y-84547438D01*
X188249294Y-84541811D01*
X188244933Y-84536156D01*
X188240776Y-84530460D01*
X188236834Y-84524714D01*
X188233116Y-84518906D01*
X188229633Y-84513026D01*
X188226395Y-84507062D01*
X188223411Y-84501005D01*
X188220691Y-84494842D01*
X188218246Y-84488563D01*
X188216085Y-84482158D01*
X188214219Y-84475616D01*
X188212656Y-84468925D01*
X188211408Y-84462075D01*
X188210485Y-84455054D01*
X188209895Y-84447853D01*
X188209649Y-84440461D01*
X188209758Y-84432865D01*
X188210231Y-84425057D01*
X188211077Y-84417024D01*
X188212308Y-84408756D01*
X188213932Y-84400242D01*
X188215960Y-84391472D01*
X188218402Y-84382434D01*
X188221268Y-84373117D01*
X188224568Y-84363512D01*
X188232272Y-84343807D01*
X188240589Y-84325621D01*
X188249497Y-84308897D01*
X188258977Y-84293576D01*
X188269007Y-84279603D01*
X188279569Y-84266919D01*
X188290640Y-84255466D01*
X188302201Y-84245189D01*
X188314231Y-84236028D01*
X188326710Y-84227927D01*
X188339618Y-84220829D01*
X188352933Y-84214675D01*
X188366637Y-84209410D01*
X188380708Y-84204974D01*
X188395125Y-84201311D01*
X188409869Y-84198364D01*
X188424920Y-84196074D01*
X188440255Y-84194385D01*
X188455857Y-84193240D01*
X188471703Y-84192580D01*
X188487773Y-84192349D01*
X188504048Y-84192489D01*
X188520506Y-84192942D01*
X188537128Y-84193652D01*
X188553893Y-84194560D01*
X188570780Y-84195610D01*
X188587769Y-84196745D01*
X188604839Y-84197905D01*
X188621971Y-84199036D01*
X188639144Y-84200078D01*
X188656338Y-84200974D01*
X188673531Y-84201668D01*
X188690704Y-84202102D01*
X188707837Y-84202218D01*
X188724908Y-84201958D01*
X188741898Y-84201267D01*
X188758785Y-84200085D01*
X188775551Y-84198357D01*
X188792173Y-84196023D01*
X188808633Y-84193028D01*
X188824909Y-84189313D01*
X188840981Y-84184822D01*
X188856829Y-84179496D01*
X188872431Y-84173279D01*
X188887769Y-84166113D01*
X188902821Y-84157940D01*
X188917568Y-84148704D01*
X188931987Y-84138346D01*
X188946061Y-84126810D01*
X188959766Y-84114039D01*
X188968506Y-84104195D01*
X188977941Y-84091567D01*
X188988082Y-84076527D01*
X188998938Y-84059445D01*
X189010518Y-84040693D01*
X189022833Y-84020641D01*
X189035892Y-83999661D01*
X189049705Y-83978125D01*
X189064281Y-83956402D01*
X189079631Y-83934864D01*
X189095762Y-83913882D01*
X189112687Y-83893827D01*
X189130413Y-83875071D01*
X189148950Y-83857984D01*
X189168309Y-83842937D01*
X189189826Y-83828574D01*
X189211342Y-83815274D01*
X189232857Y-83803038D01*
X189254373Y-83791866D01*
X189275889Y-83781758D01*
X189297405Y-83772714D01*
X189318921Y-83764734D01*
X189340436Y-83757818D01*
X189361952Y-83751966D01*
X189383468Y-83747178D01*
X189404984Y-83743454D01*
X189426500Y-83740794D01*
X189448016Y-83739198D01*
X189469532Y-83738666D01*
X189534412Y-83738666D01*
X189556236Y-83739198D01*
G37*
%TD*%
D10*
%TO.C,REF\u002A\u002A*%
X189783700Y-93473900D03*
%TD*%
D11*
%TO.C,SW1*%
X176628700Y-85398900D03*
X176628700Y-85398900D03*
D12*
X179019199Y-79554086D03*
D13*
X179019212Y-81303931D03*
D14*
X179168700Y-90478900D03*
D15*
X181708700Y-85398900D03*
X181708700Y-85398900D03*
D16*
X182459200Y-78969035D03*
X182459200Y-81968765D03*
D17*
X184179205Y-81309034D03*
D18*
X184399199Y-79559034D03*
D19*
X184564192Y-81309034D03*
D14*
X185518700Y-87938900D03*
D11*
X186788700Y-85398900D03*
X186788700Y-85398900D03*
D20*
X188793699Y-87938899D03*
D21*
X175866699Y-90478899D03*
%TD*%
D22*
%TO.C,D1*%
X179170000Y-93427200D03*
X175870000Y-93427200D03*
%TD*%
M02*
