%TF.GenerationSoftware,KiCad,Pcbnew,(7.0.0-0)*%
%TF.CreationDate,2023-04-16T17:27:38-07:00*%
%TF.ProjectId,Amoeba_executive,416d6f65-6261-45f6-9578-656375746976,rev?*%
%TF.SameCoordinates,Original*%
%TF.FileFunction,Soldermask,Top*%
%TF.FilePolarity,Negative*%
%FSLAX46Y46*%
G04 Gerber Fmt 4.6, Leading zero omitted, Abs format (unit mm)*
G04 Created by KiCad (PCBNEW (7.0.0-0)) date 2023-04-16 17:27:38*
%MOMM*%
%LPD*%
G01*
G04 APERTURE LIST*
%ADD10C,1.750000*%
%ADD11C,2.100000*%
%ADD12C,3.000000*%
%ADD13C,3.987800*%
%ADD14C,1.000000*%
%ADD15R,1.650000X1.650000*%
%ADD16C,1.650000*%
G04 APERTURE END LIST*
%TO.C,Amoeba-Logo-Small*%
G36*
X189467847Y-83769198D02*
G01*
X189489363Y-83770794D01*
X189510879Y-83773454D01*
X189532395Y-83777178D01*
X189553911Y-83781966D01*
X189575427Y-83787818D01*
X189596942Y-83794734D01*
X189618458Y-83802714D01*
X189639974Y-83811758D01*
X189661490Y-83821866D01*
X189683006Y-83833038D01*
X189704521Y-83845274D01*
X189726037Y-83858574D01*
X189747554Y-83872937D01*
X189766913Y-83887984D01*
X189785450Y-83905071D01*
X189803176Y-83923827D01*
X189820101Y-83943882D01*
X189836232Y-83964864D01*
X189851582Y-83986402D01*
X189866158Y-84008125D01*
X189879971Y-84029661D01*
X189893030Y-84050641D01*
X189905345Y-84070693D01*
X189916925Y-84089445D01*
X189927781Y-84106527D01*
X189937922Y-84121567D01*
X189947357Y-84134195D01*
X189956097Y-84144039D01*
X189969802Y-84156810D01*
X189983876Y-84168346D01*
X189998295Y-84178704D01*
X190013042Y-84187940D01*
X190028094Y-84196113D01*
X190043432Y-84203279D01*
X190059034Y-84209496D01*
X190074882Y-84214822D01*
X190090954Y-84219313D01*
X190107230Y-84223028D01*
X190123690Y-84226023D01*
X190140312Y-84228357D01*
X190157078Y-84230085D01*
X190173965Y-84231267D01*
X190190955Y-84231958D01*
X190208026Y-84232218D01*
X190225159Y-84232102D01*
X190242332Y-84231668D01*
X190259525Y-84230974D01*
X190276719Y-84230078D01*
X190293892Y-84229036D01*
X190311024Y-84227905D01*
X190328094Y-84226745D01*
X190345083Y-84225610D01*
X190361970Y-84224560D01*
X190378735Y-84223652D01*
X190395357Y-84222942D01*
X190411815Y-84222489D01*
X190428090Y-84222349D01*
X190444160Y-84222580D01*
X190460006Y-84223240D01*
X190475608Y-84224385D01*
X190490943Y-84226074D01*
X190505994Y-84228364D01*
X190520738Y-84231311D01*
X190535155Y-84234974D01*
X190549226Y-84239410D01*
X190562930Y-84244675D01*
X190576245Y-84250829D01*
X190589153Y-84257927D01*
X190601632Y-84266028D01*
X190613662Y-84275189D01*
X190625223Y-84285466D01*
X190636294Y-84296919D01*
X190646856Y-84309603D01*
X190656886Y-84323576D01*
X190666366Y-84338897D01*
X190675274Y-84355621D01*
X190683591Y-84373807D01*
X190691295Y-84393512D01*
X190694595Y-84403117D01*
X190697461Y-84412434D01*
X190699903Y-84421472D01*
X190701931Y-84430242D01*
X190703555Y-84438756D01*
X190704786Y-84447024D01*
X190705632Y-84455057D01*
X190706105Y-84462865D01*
X190706214Y-84470461D01*
X190705968Y-84477853D01*
X190705378Y-84485054D01*
X190704455Y-84492075D01*
X190703207Y-84498925D01*
X190701644Y-84505616D01*
X190699778Y-84512158D01*
X190697617Y-84518563D01*
X190695172Y-84524842D01*
X190692452Y-84531005D01*
X190689468Y-84537062D01*
X190686230Y-84543026D01*
X190682747Y-84548906D01*
X190679029Y-84554714D01*
X190675087Y-84560460D01*
X190670930Y-84566156D01*
X190666569Y-84571811D01*
X190662012Y-84577438D01*
X190657271Y-84583046D01*
X190652355Y-84588647D01*
X190647275Y-84594251D01*
X190642039Y-84599869D01*
X190636659Y-84605513D01*
X190631143Y-84611192D01*
X190625503Y-84616919D01*
X190619747Y-84622703D01*
X190613887Y-84628555D01*
X190607931Y-84634487D01*
X190601890Y-84640508D01*
X190595774Y-84646631D01*
X190589592Y-84652866D01*
X190583355Y-84659223D01*
X190577073Y-84665714D01*
X190570756Y-84672349D01*
X190564413Y-84679140D01*
X190558055Y-84686096D01*
X190551691Y-84693229D01*
X190545331Y-84700550D01*
X190538986Y-84708070D01*
X190532666Y-84715799D01*
X190526379Y-84723748D01*
X190520137Y-84731928D01*
X190513949Y-84740350D01*
X190507826Y-84749025D01*
X190501776Y-84757964D01*
X190495811Y-84767176D01*
X190489940Y-84776675D01*
X190484173Y-84786469D01*
X190478520Y-84796570D01*
X190472990Y-84806989D01*
X190467595Y-84817737D01*
X190462344Y-84828824D01*
X190457246Y-84840261D01*
X190452312Y-84852060D01*
X190447552Y-84864230D01*
X190442976Y-84876784D01*
X190438593Y-84889731D01*
X190434414Y-84903082D01*
X190430449Y-84916849D01*
X190426707Y-84931042D01*
X190423199Y-84945672D01*
X190419934Y-84960750D01*
X190416922Y-84976287D01*
X190414174Y-84992293D01*
X190411699Y-85008780D01*
X190409508Y-85025757D01*
X190407610Y-85043237D01*
X190406015Y-85061230D01*
X190404733Y-85079747D01*
X190403774Y-85098798D01*
X190403149Y-85118394D01*
X190402866Y-85138547D01*
X190402937Y-85159267D01*
X190403370Y-85180565D01*
X190404177Y-85202452D01*
X190405366Y-85224938D01*
X190406948Y-85248035D01*
X190408933Y-85271753D01*
X190411331Y-85296103D01*
X190414151Y-85321097D01*
X190417404Y-85346744D01*
X190421100Y-85373055D01*
X190425249Y-85400043D01*
X190429860Y-85427716D01*
X190434943Y-85456087D01*
X190440509Y-85485166D01*
X190446567Y-85514963D01*
X190453128Y-85545491D01*
X190460201Y-85576759D01*
X190467797Y-85608778D01*
X190475925Y-85641559D01*
X190484595Y-85675114D01*
X190493817Y-85709453D01*
X190503601Y-85744586D01*
X190513958Y-85780525D01*
X190524896Y-85817280D01*
X190536427Y-85854863D01*
X190546244Y-85888123D01*
X190553930Y-85918053D01*
X190559560Y-85945000D01*
X190563211Y-85969316D01*
X190564961Y-85991349D01*
X190564885Y-86011450D01*
X190563060Y-86029966D01*
X190559564Y-86047249D01*
X190554472Y-86063648D01*
X190547862Y-86079511D01*
X190539810Y-86095189D01*
X190530394Y-86111032D01*
X190519688Y-86127388D01*
X190507771Y-86144607D01*
X190494720Y-86163039D01*
X190479921Y-86182153D01*
X190464566Y-86199948D01*
X190448655Y-86216425D01*
X190432188Y-86231585D01*
X190415165Y-86245425D01*
X190397586Y-86257948D01*
X190379450Y-86269153D01*
X190360759Y-86279039D01*
X190341511Y-86287607D01*
X190321708Y-86294857D01*
X190301348Y-86300789D01*
X190280432Y-86305402D01*
X190258960Y-86308698D01*
X190236932Y-86310675D01*
X190214348Y-86311334D01*
X190163370Y-86311334D01*
X190141751Y-86310639D01*
X190120457Y-86308554D01*
X190099487Y-86305078D01*
X190078842Y-86300212D01*
X190058521Y-86293956D01*
X190038524Y-86286310D01*
X190018852Y-86277273D01*
X189999504Y-86266847D01*
X189980480Y-86255029D01*
X189961781Y-86241822D01*
X189942665Y-86228035D01*
X189925171Y-86213553D01*
X189909298Y-86198376D01*
X189895048Y-86182503D01*
X189882420Y-86165935D01*
X189871414Y-86148672D01*
X189862029Y-86130714D01*
X189854267Y-86112061D01*
X189848126Y-86092713D01*
X189843607Y-86072670D01*
X189824341Y-86056557D01*
X189804923Y-86041369D01*
X189785364Y-86027105D01*
X189765676Y-86013762D01*
X189745872Y-86001339D01*
X189725963Y-85989834D01*
X189705960Y-85979244D01*
X189685876Y-85969568D01*
X189665722Y-85960804D01*
X189645511Y-85952948D01*
X189625253Y-85946001D01*
X189604962Y-85939959D01*
X189584648Y-85934820D01*
X189564324Y-85930583D01*
X189544002Y-85927245D01*
X189523692Y-85924804D01*
X189503408Y-85923259D01*
X189483160Y-85922608D01*
X189462962Y-85922847D01*
X189442823Y-85923976D01*
X189422758Y-85925993D01*
X189402776Y-85928894D01*
X189382891Y-85932679D01*
X189363113Y-85937345D01*
X189343455Y-85942891D01*
X189323929Y-85949313D01*
X189304546Y-85956611D01*
X189285318Y-85964782D01*
X189266257Y-85973824D01*
X189247375Y-85983735D01*
X189228684Y-85994514D01*
X189210195Y-86006157D01*
X189205260Y-86027938D01*
X189198795Y-86048792D01*
X189190801Y-86068720D01*
X189181277Y-86087721D01*
X189170224Y-86105796D01*
X189157642Y-86122943D01*
X189143531Y-86139164D01*
X189127890Y-86154457D01*
X189110720Y-86168824D01*
X189092021Y-86182263D01*
X189073637Y-86194327D01*
X189054718Y-86205243D01*
X189035262Y-86215009D01*
X189015269Y-86223626D01*
X188994741Y-86231094D01*
X188973677Y-86237413D01*
X188952076Y-86242584D01*
X188929939Y-86246605D01*
X188907266Y-86249477D01*
X188884057Y-86251201D01*
X188860311Y-86251775D01*
X188809333Y-86251775D01*
X188786481Y-86251137D01*
X188764268Y-86249221D01*
X188742693Y-86246028D01*
X188721756Y-86241559D01*
X188701458Y-86235812D01*
X188681798Y-86228789D01*
X188662777Y-86220488D01*
X188644395Y-86210911D01*
X188626650Y-86200056D01*
X188609545Y-86187924D01*
X188593078Y-86174516D01*
X188577249Y-86159831D01*
X188562059Y-86143868D01*
X188547507Y-86126629D01*
X188533594Y-86108112D01*
X188520663Y-86089000D01*
X188509604Y-86070464D01*
X188500310Y-86052313D01*
X188492672Y-86034357D01*
X188486584Y-86016407D01*
X188481938Y-85998271D01*
X188478625Y-85979760D01*
X188476540Y-85960682D01*
X188475573Y-85940848D01*
X188475619Y-85920068D01*
X188476568Y-85898150D01*
X188478314Y-85874905D01*
X188480748Y-85850143D01*
X188483764Y-85823672D01*
X188487254Y-85795303D01*
X188490728Y-85765680D01*
X188493551Y-85737366D01*
X188495741Y-85710330D01*
X188497313Y-85684542D01*
X188498287Y-85659969D01*
X188498679Y-85636581D01*
X188498507Y-85614346D01*
X188497788Y-85593233D01*
X188496538Y-85573211D01*
X188494777Y-85554248D01*
X188492520Y-85536314D01*
X188489785Y-85519376D01*
X188486589Y-85503404D01*
X188482951Y-85488367D01*
X188478886Y-85474232D01*
X188474413Y-85460969D01*
X188469548Y-85448547D01*
X188464309Y-85436934D01*
X188458714Y-85426099D01*
X188452779Y-85416011D01*
X188446522Y-85406638D01*
X188439960Y-85397950D01*
X188433111Y-85389914D01*
X188425991Y-85382500D01*
X188418619Y-85375677D01*
X188411011Y-85369412D01*
X188403185Y-85363675D01*
X188395158Y-85358435D01*
X188386947Y-85353660D01*
X188378570Y-85349319D01*
X188370044Y-85345381D01*
X188361386Y-85341814D01*
X188352614Y-85338588D01*
X188343745Y-85335670D01*
X188334796Y-85333030D01*
X188325784Y-85330637D01*
X188316727Y-85328458D01*
X188307643Y-85326464D01*
X188298548Y-85324622D01*
X188289459Y-85322901D01*
X188280395Y-85321270D01*
X188271372Y-85319698D01*
X188262408Y-85318153D01*
X188253520Y-85316605D01*
X188244725Y-85315022D01*
X188236041Y-85313372D01*
X188227484Y-85311624D01*
X188219073Y-85309748D01*
X188210824Y-85307711D01*
X188202756Y-85305484D01*
X188194884Y-85303033D01*
X188187227Y-85300328D01*
X188179802Y-85297338D01*
X188172625Y-85294032D01*
X188165715Y-85290378D01*
X188159089Y-85286344D01*
X188152764Y-85281901D01*
X188146757Y-85277016D01*
X188141086Y-85271657D01*
X188135768Y-85265795D01*
X188130820Y-85259397D01*
X188126259Y-85252433D01*
X188122104Y-85244871D01*
X188118370Y-85236679D01*
X188115076Y-85227827D01*
X188112239Y-85218283D01*
X188109876Y-85208016D01*
X188108005Y-85196994D01*
X188106642Y-85185187D01*
X188105805Y-85172564D01*
X188105511Y-85159091D01*
X188105806Y-85141695D01*
X188106335Y-85125023D01*
X188107098Y-85109052D01*
X188108095Y-85093762D01*
X188109324Y-85079129D01*
X188110785Y-85065133D01*
X188112478Y-85051750D01*
X188114402Y-85038959D01*
X188116555Y-85026738D01*
X188118939Y-85015064D01*
X188121551Y-85003916D01*
X188124392Y-84993272D01*
X188127460Y-84983109D01*
X188130756Y-84973405D01*
X188134278Y-84964139D01*
X188138026Y-84955289D01*
X188142000Y-84946831D01*
X188146198Y-84938746D01*
X188150620Y-84931009D01*
X188155266Y-84923599D01*
X188160135Y-84916495D01*
X188165226Y-84909673D01*
X188170538Y-84903113D01*
X188176072Y-84896792D01*
X188181825Y-84890687D01*
X188187799Y-84884778D01*
X188193992Y-84879041D01*
X188200404Y-84873455D01*
X188207033Y-84867998D01*
X188213880Y-84862648D01*
X188220943Y-84857382D01*
X188228223Y-84852179D01*
X188235718Y-84847016D01*
X188243428Y-84841872D01*
X188251352Y-84836724D01*
X188259490Y-84831551D01*
X188267841Y-84826330D01*
X188276405Y-84821040D01*
X188285180Y-84815657D01*
X188294166Y-84810161D01*
X188303363Y-84804529D01*
X188312771Y-84798739D01*
X188322387Y-84792769D01*
X188332212Y-84786598D01*
X188342245Y-84780202D01*
X188352486Y-84773560D01*
X188362934Y-84766650D01*
X188373588Y-84759449D01*
X188384448Y-84751937D01*
X188395513Y-84744090D01*
X188406782Y-84735887D01*
X188418255Y-84727306D01*
X188429932Y-84718324D01*
X188441811Y-84708919D01*
X188453892Y-84699070D01*
X188466174Y-84688755D01*
X188478657Y-84677951D01*
X188491341Y-84666636D01*
X188504223Y-84654788D01*
X188517305Y-84642386D01*
X188530585Y-84629407D01*
X188544063Y-84615829D01*
X188557738Y-84601630D01*
X188571610Y-84586788D01*
X188585677Y-84571281D01*
X188599940Y-84555087D01*
X188614397Y-84538184D01*
X188629048Y-84520550D01*
X188643893Y-84502163D01*
X188658931Y-84483000D01*
X188674161Y-84463040D01*
X188689582Y-84442261D01*
X188705194Y-84420640D01*
X188720997Y-84398156D01*
X188736989Y-84374786D01*
X188753171Y-84350508D01*
X188769541Y-84325302D01*
X188786099Y-84299143D01*
X188802844Y-84272011D01*
X188819776Y-84243883D01*
X188836894Y-84214737D01*
X188854197Y-84184551D01*
X188871686Y-84153304D01*
X188877890Y-84141972D01*
X188885212Y-84128521D01*
X188893609Y-84113227D01*
X188903035Y-84096368D01*
X188913445Y-84078222D01*
X188924796Y-84059065D01*
X188937043Y-84039175D01*
X188950141Y-84018830D01*
X188964045Y-83998306D01*
X188978712Y-83977881D01*
X188994096Y-83957832D01*
X189010153Y-83938437D01*
X189026839Y-83919972D01*
X189044109Y-83902716D01*
X189061918Y-83886946D01*
X189080223Y-83872938D01*
X189101432Y-83858574D01*
X189122688Y-83845274D01*
X189143991Y-83833039D01*
X189165342Y-83821867D01*
X189186740Y-83811759D01*
X189208185Y-83802715D01*
X189229678Y-83794735D01*
X189251218Y-83787819D01*
X189272805Y-83781967D01*
X189294440Y-83777179D01*
X189316122Y-83773455D01*
X189337851Y-83770795D01*
X189359627Y-83769198D01*
X189381451Y-83768666D01*
X189446331Y-83768666D01*
X189467847Y-83769198D01*
G37*
%TD*%
D10*
%TO.C,J2*%
X173598600Y-77020000D03*
X173341400Y-79560000D03*
X173598600Y-82100000D03*
X173341400Y-84640000D03*
X173598600Y-87180000D03*
%TD*%
%TO.C,J1*%
X178640000Y-77020000D03*
X181180000Y-77277200D03*
X183720000Y-77020000D03*
X186260000Y-77277200D03*
X188800000Y-77020000D03*
%TD*%
D11*
%TO.C,REF\u002A\u002A*%
X189783700Y-93473900D03*
%TD*%
D10*
%TO.C,SW1*%
X176628700Y-85398900D03*
X176628700Y-85398900D03*
D12*
X179168700Y-90478900D03*
D13*
X181708700Y-85398900D03*
X181708700Y-85398900D03*
D14*
X182459200Y-78969035D03*
X182459200Y-81968765D03*
D12*
X185518700Y-87938900D03*
D10*
X186788700Y-85398900D03*
X186788700Y-85398900D03*
%TD*%
D15*
%TO.C,D1*%
X181519999Y-93427199D03*
D16*
X173520000Y-93427200D03*
%TD*%
M02*
